<?xml version="1.0" encoding="utf-8"?>
<!-- Generator: Adobe Illustrator 21.0.0, SVG Export Plug-In . SVG Version: 6.00 Build 0)  -->
<svg version="1.1" xmlns="http://www.w3.org/2000/svg" xmlns:xlink="http://www.w3.org/1999/xlink" x="0px" y="0px"
	 viewBox="0 0 1728 1296" style="enable-background:new 0 0 1728 1296;" xml:space="preserve">
<style type="text/css">
	.st0{fill:#EDEDED;}
	.st1{fill:#FEFEFE;}
	.st2{fill:#FDFDFD;}
	.st3{fill:#ECEBEB;}
	.st4{fill:#FAF8F8;}
	.st5{fill:#D71B27;}
	.st6{fill:#EDECEC;}
	.st7{fill:#FAF9FA;}
	.st8{fill:#F6F6F6;}
	.st9{fill:#E1E0DF;}
	.st10{fill:#716E63;}
	.st11{fill:#781621;}
	.st12{fill:#E85C47;}
	.st13{fill:#420D15;}
	.st14{fill:#951D22;}
	.st15{fill:#C01C23;}
	.st16{fill:#DC453F;}
	.st17{fill:#E4675A;}
	.st18{fill:#EB8375;}
	.st19{fill:#480B13;}
	.st20{fill:#BA1D24;}
	.st21{fill:#B31E24;}
	.st22{fill:#DD6B52;}
	.st23{fill:#DC6D53;}
	.st24{fill:#12110F;}
	.st25{fill:#DF3333;}
	.st26{fill:#1F0807;}
	.st27{fill:#D81223;}
	.st28{fill:#E26051;}
	.st29{fill:#DA3B39;}
	.st30{fill:#E97B70;}
	.st31{fill:#78151E;}
	.st32{fill:#A11D25;}
	.st33{fill:#150A0B;}
	.st34{fill:#342523;}
	.st35{fill:#0C100E;}
	.st36{fill:#D01D28;}
	.st37{fill:#999898;}
	.st38{fill:#070404;}
	.st39{fill:#2F302E;}
	.st40{fill:#070504;}
	.st41{fill:#8D887E;}
	.st42{fill:#CE302E;}
	.st43{fill:#A11B22;}
	.st44{fill:#A11A20;}
	.st45{fill:#CE3530;}
	.st46{fill:#8C191D;}
	.st47{fill:#18100C;}
	.st48{fill:#3A2F28;}
	.st49{fill:#DE8269;}
	.st50{fill:#C12E37;}
	.st51{fill:#B51923;}
	.st52{fill:#711A1A;}
	.st53{fill:#DD6D53;}
	.st54{fill:#346A5A;}
	.st55{fill:#306250;}
	.st56{fill:#130605;}
	.st57{fill:#293432;}
	.st58{fill:#3D796D;}
	.st59{fill:#383836;}
	.st60{fill:#3E7B71;}
	.st61{fill:#1F2423;}
	.st62{fill:#F19789;}
	.st63{fill:#E97A6A;}
	.st64{fill:#EC8377;}
	.st65{fill:#E4645E;}
	.st66{fill:#4E4D4B;}
	.st67{fill:#2D2F2D;}
	.st68{fill:#0F0F0E;}
	.st69{fill:#FDFEFB;}
	.st70{fill:#ACA8A0;}
	.st71{fill:#858179;}
	.st72{fill:#B21D23;}
	.st73{fill:#75161F;}
	.st74{fill:#8F1820;}
	.st75{fill:#0D0D0C;}
	.st76{fill:#11100F;}
	.st77{fill:#080808;}
	.st78{fill:#8B867D;}
	.st79{fill:#951921;}
	.st80{fill:#D57255;}
	.st81{fill:#9C1B22;}
	.st82{fill:#CD543E;}
	.st83{fill:#DA5743;}
	.st84{fill:#CC543D;}
	.st85{fill:#D67658;}
	.st86{fill:#D96650;}
	.st87{fill:#326655;}
	.st88{fill:#DA1726;}
	.st89{fill:#D16248;}
	.st90{fill:#6A1717;}
	.st91{fill:#CC533D;}
	.st92{fill:#121613;}
	.st93{fill:#DD5A45;}
	.st94{fill:#F5BD37;}
	.st95{fill:#969899;}
	.st96{fill:#BFC2C2;}
	.st97{fill:#437F77;}
	.st98{fill:#951C21;}
	.st99{fill:#DA3F36;}
	.st100{fill:#AF1922;}
	.st101{fill:#510C0E;}
	.st102{fill:#8FBDA7;}
	.st103{fill:#9DCBB5;}
	.st104{fill:#8DBAA4;}
	.st105{fill:#99C7B0;}
	.st106{fill:#921E23;}
	.st107{fill:#DE473C;}
	.st108{fill:#1E2220;}
	.st109{fill:#D33230;}
	.st110{fill:#A7D5C0;}
	.st111{fill:#A4D2BC;}
	.st112{fill:#3A766B;}
	.st113{fill:#E8544C;}
	.st114{fill:#7C746A;}
	.st115{fill:#F3F3F2;}
	.st116{fill:#8F867C;}
	.st117{fill:#D0CBC5;}
	.st118{fill:#C8C1B9;}
	.st119{fill:#E6E3DF;}
	.st120{fill:#7F776D;}
	.st121{fill:#F4F3F2;}
	.st122{fill:#C7C0BA;}
	.st123{fill:#E5E1DD;}
	.st124{fill:#D8D2CD;}
	.st125{fill:#B7AFA7;}
	.st126{fill:#B41D24;}
	.st127{fill:#DA5643;}
	.st128{fill:#F1F1F1;}
	.st129{fill:#E2664D;}
	.st130{fill:#0A0404;}
	.st131{fill:#E47C62;}
	.st132{fill:#040303;}
	.st133{fill:#030303;}
	.st134{fill:#030203;}
	.st135{fill:#575248;}
	.st136{fill:#B1A9A0;}
	.st137{fill:#DAD5CF;}
	.st138{fill:#040404;}
	.st139{fill:#A8A097;}
	.st140{fill:#A9A097;}
	.st141{fill:#CEC9C3;}
	.st142{fill:#776E64;}
	.st143{fill:#030202;}
	.st144{fill:#5B564C;}
	.st145{fill:#797166;}
	.st146{fill:#B3ABA4;}
	.st147{fill:#D8D3CE;}
	.st148{fill:#A9A198;}
	.st149{fill:#CCC7C2;}
	.st150{fill:#827A6F;}
	.st151{fill:#6D665B;}
	.st152{fill:#BBB4AC;}
	.st153{fill:#7A7167;}
	.st154{fill:#888075;}
	.st155{fill:#B2ABA3;}
</style>
<g id="Layer_1">
	<g>
		<path class="st0" d="M755.2,678.1"/>
		<path class="st0" d="M755.8,659"/>
		<path class="st0" d="M755.2,638.1"/>
		<path class="st0" d="M755.1,617.8"/>
		<path class="st1" d="M976.2,618.9c-1-0.4-1.6-1-2.1-2c-0.7-6.4-1.9-12.8,0.8-19.1"/>
		<path class="st1" d="M755.7,617.3c-0.2,0.2-0.4,0.5-0.7,0.7"/>
		<path class="st0" d="M755.7,597.3c-0.2,0.2-0.4,0.5-0.7,0.7"/>
		<path class="st0" d="M975,598c-0.2-0.2-0.4-0.4-0.6-0.7"/>
		<path class="st1" d="M755,638c0.2,0.2,0.4,0.4,0.6,0.6c1.4,5.8,1.1,11.7,0.3,17.6"/>
		<path class="st1" d="M755,678c0.2,0.2,0.4,0.4,0.6,0.7c1.4,5.7,1.1,11.4,0.2,17"/>
		<path class="st0" d="M995,718"/>
		<path class="st0" d="M975,714.6"/>
		<path class="st0" d="M985.6,638.8c-3.2-2.8-2.1-6.9-3.4-10.3c-0.3-0.7-0.6-1.3-0.9-1.9c-1.1-3.2-5.1-4.7-5.5-8.4"/>
		<path class="st2" d="M975,693.1c0.9-1.9,2.8-2.1,4.5-2.4c2.6-0.4,4.1-1.7,4.6-4.3c1.3-3.1,0.8-7.1,4.2-9.3"/>
		<path class="st2" d="M989.7,658.9c-0.7-0.2-1.4-0.7-1.9-1.2c-1.1-1.3-1.6-3-2.5-4.4c-0.5-0.9-0.9-1.8-1.2-2.7
			c-0.2-0.7-0.4-1.5-0.4-2.3c-0.1-2.7-0.2-5.4,0.1-8.1c0.2-0.8,0.5-1.6,1.3-2.1"/>
		<path class="st3" d="M988.1,678c-2.3-4,0.7-7.8,0.5-11.7c0.2-2.3-0.2-4.7-0.3-7c0.1-0.5,0.3-1,0.8-1.3"/>
		<path class="st0" d="M775.2,717.7"/>
		<path class="st4" d="M755,678"/>
		<path class="st4" d="M757.8,658.4c0.8,6.4,3.5,12.5,2.8,19.1"/>
		<path class="st1" d="M775.9,636.8c-0.5,1.3-1.6,2-3,2.4"/>
		<path class="st1" d="M755,618"/>
		<path class="st1" d="M755,638"/>
		<path class="st5" d="M975.8,618.1c2.1,2.5,4.1,5,6.2,7.5c-1.5,2.6-4.6,2.6-6.8,4.2c-1.4,0.5-2.8,1.4-4.2,0.1
			c-0.4-1.6,1.1-2.2,1.7-3.5c-6.8-0.1-13.5-0.1-20.2,0.2c-0.4-0.2-0.8-0.5-1-0.9c0.3-3.1-0.9-5.6-3-7.9c-1.4-1.5-2.9-3.1-3.1-5.4
			c-0.1-2.6,1.4-3.4,3.7-3.4c0.7,0,1.4,0.1,2.1,0.3c2.9,0.7,5.8,0.7,8.8,0.2c0.8-0.3,1.6-0.6,2.3-1.1c0.6-0.6,1.2-1.3,2.1-1.6
			c4.8,2.3,8.1,6,10.6,10.5C975.2,617.5,975.5,617.8,975.8,618.1z"/>
		<path class="st0" d="M755,598"/>
		<path class="st0" d="M954.7,717.8"/>
		<path class="st1" d="M975,598c-3.9-0.5-8,1-11.7-1c-2.1,0.4-4.1-0.4-6.1-0.9c-0.8-0.2-1.5-0.6-2.2-1.2"/>
		<path class="st6" d="M773,638c0.6,1.6-0.5,2.1-1.5,2.8c-3.4,1.3-6.6,3-9.3,5.5c-0.3,0.4-0.6,0.7-0.9,1c-1.9,3.4-0.6,8.1-4.4,10.7"
			/>
		<path class="st7" d="M762.5,696.6c4.5,0.9,9.4-0.1,13.5,2.8c0.8,1.9-0.4,3-1.9,3.3"/>
		<path class="st8" d="M775,718"/>
		<path class="st9" d="M975,715"/>
		<path class="st9" d="M989.4,715"/>
		<path class="st10" d="M973.9,692.9c-1.1-0.9-2.1-3.5-3.2,0.1c-1.1,3.5-3.3,6.4-5.6,9.1c-0.4,0.3-0.9,0.5-1.4,0.4
			c-0.5-0.1-0.9-0.5-1-1c2.4-4.5,5-8.8,6.1-13.9c1.5-7.1-0.4-13-4.9-18.4c-1-1.3-2.4-2.3-2.1-4.3c0.7-0.9,1.6-1.3,2.7-1.3
			c6.6,3.6,7.9,10,8.8,16.6c0.4,3.2-0.7,6.6,1.2,9.6C974.9,691,974.8,692,973.9,692.9z"/>
		<path class="st11" d="M973.9,692.9c0-0.9,0-1.9,0-2.8c-0.8-1.2-0.8-2.4,0.4-3.3c3.6-1,7.2-0.5,10.8,0.3c0.2,3.4-1.8,4.8-4.8,5
			c-1.8,0.1-3.6,0.3-5.3,1.1C974.7,693,974.3,692.9,973.9,692.9z"/>
		<path class="st12" d="M985.1,638c-0.1,0.7-0.2,1.4-0.3,2.1c-2.4,1.7-4.8,1.6-6.6-0.6c-1.9-2.4-2-5.2-0.4-7.8
			c0.9-1.5,2.5-2.6,2.8-4.5c0.7-0.7,1.4-0.6,2.2-0.3C984.4,630.4,984.6,634.2,985.1,638z"/>
		<path class="st13" d="M982.9,626.8c-0.5,0.1-1.1,0.2-1.6,0.4c-1.3,1.7-2.9,3.1-5.2,3.1c-0.7-0.3-1.2-0.8-1.3-1.6
			c2.1-1.7,4.7-2.5,7.3-3.2C982.3,626,982.6,626.4,982.9,626.8z"/>
		<path class="st14" d="M985.1,687c-3.4,1.6-6.7,0.3-10.1,0c-2.1-2.6-1.4-5.5-0.9-8.4c2.3-2.9,4.4-5.6,4.9-9.7
			c0.4-3.4,6.3-4.6,10.9-2.9c0.4,4.2-1.8,7.9-1.8,12C987.1,681,986.1,684,985.1,687z"/>
		<path class="st15" d="M975.9,629.9c1.8-0.9,3.5-1.8,5.3-2.7c0.4,1.1,1.2,2.4-0.2,3.1c-3.5,1.7-3.5,4.5-2.5,7.5
			c1.1,3.4,4.1,1.9,6.3,2.3c0,2.9,0.1,5.8,0.1,8.7c-1.4,1.7-3.5,1.6-5.3,2.2c-3,0.4-4.7-1.1-5.3-3.9c-0.9-3.8-1.8-7.7-2.3-11.6
			C971.6,632.7,972.4,630.2,975.9,629.9z"/>
		<path class="st16" d="M989.1,658c-0.1,0.4-0.1,0.7-0.2,1.1c-1.1,2.3-3.3,2.5-5.3,3.1c-1.6,0.3-3.2,0.5-4.8,0.5
			c-2.3,0.1-3.7-0.9-3.2-3.6c3.8-3,7.7-5.1,12.5-2.2C988.5,657.3,988.8,657.6,989.1,658z"/>
		<path class="st17" d="M988.2,656.9c-4.4-1.1-8.1,1.1-12.2,2.1c-1.7,0.1-1.5-1-1.4-2.1c3.1-3.3,6.7-5.2,11.4-3.9
			C987.2,654,987.9,655.4,988.2,656.9z"/>
		<path class="st18" d="M986,653c-3.9,0.8-7.6,2-11,4c-2.2,0.1-2.3-1.4-2.2-3c1-1.2,2.6-1.2,3.9-1.8c1.1-0.4,2.2-0.9,3.4-1.1
			c1.6-0.2,3.3-0.9,4.9-0.1C985.3,651.7,985.7,652.3,986,653z"/>
		<path class="st19" d="M985,651c-1.6,0.7-3.2,1.3-5,1.1c-0.6-0.7-0.5-1.4,0-2.1c1.4-1.4,3.3-0.7,4.9-1.1
			C984.9,649.5,985,650.3,985,651z"/>
		<path class="st20" d="M984,661c1.7-0.7,3.3-1.3,5-2c1.5,2.1,1.6,4.5,1,6.9c-2.7-0.4-5.2,0.6-7.7,1.2c-1.6,0.4-3.1,1.3-2.5,3.5
			c1.1,4.2-1.5,6-4.7,7.4c-3.6-3.4-4.6-7.9-5.5-12.5c0.7-3,2.8-4.2,5.5-3.6C978.2,662.7,981.1,661.8,984,661z"/>
		<path class="st1" d="M935,718c6.7,0,13.3,0,20,0"/>
		<path class="st1" d="M895,718c6.7,0,13.3,0,20,0"/>
		<path class="st1" d="M855,718c6.7,0,13.3,0,20,0"/>
		<path class="st1" d="M815,718c6.7,0,13.3,0,20,0"/>
		<path class="st1" d="M775,718c6.7,0,13.3,0,20,0"/>
		<path class="st21" d="M761.3,677.6c-0.4-0.2-0.8-0.5-1.3-0.7c-1.2-6.3-3.1-12.4-3.2-18.9c2.3-3.8,0.9-8.7,4.1-12.2
			c3.4-0.1,6.5-1.2,9.6-2.3c1.5-0.6,2.9-1.8,4.6-0.6c0.4,2.3-1.4,3.4-2.5,5c-1.2,1.2-2.9,1.6-4.4,2.2c-7,2.6-7.9,3.9-7.9,11.2
			c0.3,1.6-0.1,3.7,2.6,3.5c2.3-0.6,4-2.7,6.6-2.5c1.3,0.2,2.7-0.1,3.8,0.7c1.4,2,4.2,2.7,5.1,5.2c-0.1,3.4-1.6,6.4-2.7,9.6
			c-0.3,0.6-0.8,1.2-1.4,1.6c-1.4,0.7-2.7,1.8-4.4,1.9C767.3,679.5,764.3,678.7,761.3,677.6z"/>
		<path class="st22" d="M775,637.1c1.7,0,3.1-1.7,5-1.1c2.2,1.4,3.9-0.2,5.7-1c8.6-3.9,18.2-4.6,27.1-7.6c0.9-0.3,2-0.1,2.8,0.7
			c2.3,3.5,0.3,4.8-2.8,5.5c-7.4,1.7-14.9,3.2-22.2,5.2c-4.4,0.8-8.6,2.3-12.7,3.9c-0.9,0.4-1.8,0.8-2.8,0.3c-3.4,0.6-6.1,3-9.6,3.4
			c-1.6,0.2-3.2,1.2-4.5-0.5c0,0,0,0.1,0,0.1c3.4-2,6.8-4,10.2-6.1c0.6-0.6,1.2-1.3,1.9-1.9C773.7,637.9,774.6,638,775,637.1z"/>
		<path class="st23" d="M952,625.9c8-1.8,16.1-0.4,24.5-1.1c-1.1,3.1-4.8,2.6-5.5,5.3c-0.1,0.2-0.2,0.5-0.3,0.7
			c-1.9,2-1.7,5.7-5.3,6.4c-5.9,0.9-11.9,0.6-17.9,0.8c-14.7,0.6-29.4,2-44.2,1.6c-2.7-2.9-3.9-6.1-2.3-10c3.2-1.4,6.9-1.7,10.2-1.7
			c8.5,0,16.8-1.7,25.3-1.2C941.8,626.9,946.8,624.6,952,625.9z"/>
		<path class="st24" d="M945.8,612.1c1.9,2.5,3.7,5,5.6,7.4c1.3,1.7,2.2,3.3,0.5,5.2c-3.2,2.1-7,2-10.5,2.1
			c-13.4,0.2-26.7,1.9-40.1,2.3c-0.9,0.1-1.6,0.7-2.5,0.9c-4.8,0.2-9.5,1.6-14.4,0.8c-0.8-0.4-1.3-0.9-1.7-1.7
			c0.4-2.3,2.3-2.3,3.9-2.2c5.7,0.4,7.1-2.4,7.1-7.8c0.1-1.9,0.6-3.7,1.8-5.2c3.4-2.1,3.1-5.5,3.2-8.8c0-2-0.1-4-0.2-5.9
			c0.1-0.6,0.3-1,0.7-1.4c0.8-0.3,1.6-0.2,2.2,0.5c1.2,2,0.9,4.2,0.9,6.3c0.3,3.5-1.4,7.4,2.3,10c0.9,2,0.6,4.1,0.7,6.2
			c-0.4,3.3,0.4,4.8,4.3,4.4c11.4-1.2,22.8-1.6,34.2-2.5c1.4-0.1,3.3,0.4,4-1.2c0.6-1.6-0.9-2.7-1.7-3.9c-1-1.5-2.2-2.9-3.3-4.3
			c-0.6-0.8-1.2-1.7-1.3-2.7c0-0.8,0.3-1.4,1.1-1.8C944.5,609,945.3,610.4,945.8,612.1z"/>
		<path class="st25" d="M945.8,612.1c-1-1-2-2-3-3.1c-1.8-0.6-3.2-1.8-4.3-3.2c-4.1-5.2-9.7-6.4-15.9-6.5c-5.3,0-10.6,0-15.9,0
			c-2,0-4,0.2-5.7-1.2c-0.6-0.1-1.3-0.1-1.9-0.2c-9.5,0.5-19,0.3-28.2,3.5c-1.3,0.5-2.6,0.5-3.8-0.3c-0.4-0.5-0.4-1.1-0.1-1.7
			c4.9-3.6,10.6-4.9,16.4-4.9c15.1-0.1,30.3-0.7,45.4,0.9c3,0.3,5.9,1.1,8.4,2.8c2.7,1.9,4.9,4.5,7.3,6.8c1.1,2,4.3,2,4.5,4.8
			C947.1,609.4,946.6,611,945.8,612.1z"/>
		<path class="st26" d="M980,649.9c0,0.7,0,1.4,0,2.1c-1,0.3-1.9,0.7-2.9,1c-3,1.1-4.5-0.4-5.4-3.1c-0.7-2.2-1-4.4-1.5-6.6
			c-0.4-1.8-0.5-3.6-1.1-5.3c-0.6-3-1.8-6.1,1.9-8.1c0,0,0,0,0,0c1.2-0.4,2.5-0.9,3.7-1.3c0.4,0.4,0.8,0.7,1.2,1.1
			c-2.7,1.8-3.3,4.1-2.4,7.3c0.9,3,1.3,6.1,1.8,9.2C975.8,649.1,977,650.5,980,649.9z"/>
		<path class="st27" d="M900.2,628.3c17.3-0.8,34.5-1.9,51.7-3.5c0,0.4,0.1,0.8,0.1,1.1c-3.8,1.8-8.1,1.8-12.1,1.9
			c-13,0.4-26,1.5-39.1,2.3C899.6,629.8,899,629.4,900.2,628.3z"/>
		<path class="st28" d="M949,610c-1.6-1.4-4.2-1.6-5-4c1-2.3,3.1-2.2,5-2.3c3.1-0.1,6.3,0,9.4-0.2c2.7,0.9,5,2.1,4.6,5.6
			c-0.5,0.8-1.2,1-2.1,1c-3.3,0.7-6.7,0.7-10,0C950.3,610,949.7,610,949,610z"/>
		<path class="st29" d="M956,594.8c0.6,0.1,1.3,0.2,1.9,0.3c-0.2,1.6-0.1,2.8,1.9,3.2c0.9,0.2,2.6-0.3,2.2,1.7c-2,3,0.7,4.7,2,6.7
			c0,0.9-0.1,1.7-1,2.3c-0.3-2.5-2.2-3.8-4-5.1c-3.2-1-5.1-4-8.3-5.1c-3.8-2.1-8.6-1.3-12.1-4.2c0-0.6,0.3-1.1,0.9-1.3"/>
		<path class="st25" d="M951,610.1c3.3,0,6.7,0,10,0C957.7,611.6,954.3,611.5,951,610.1z"/>
		<path class="st30" d="M962,600c-1.4-0.3-2.8-0.6-4.1-1.1c-1-0.4-2.5-0.6-2.6-2c-0.1-1.5,2.1-0.6,2.5-1.9c2,0,3.8,0.6,5.4,1.9
			C963.2,598.1,963.1,599.3,962,600z"/>
		<path class="st0" d="M956,594.8c-5.7-0.3-11.3-0.6-17-1"/>
		<path class="st21" d="M771.1,639.9c-2.9,2.8-6.2,5.1-10.2,6.1C763.7,643,767.1,640.9,771.1,639.9z"/>
		<path class="st31" d="M774,679c0.3-0.3,0.6-0.7,0.9-1c1.1,0.7,1.4,1.9,1.4,3.1c-0.3,5.9,0.8,11.6,1.9,17.3
			c-0.1,1.3-1.3,1.5-2.2,1.9c-4.5-1.7-9.2-1.4-13.8-2.2c-1.3-1.3-3.9-1.7-3.2-4.2c0.3-1.3,2-0.5,3-0.7c1.8-0.4,3.6-0.1,5.3,0.3
			c1.4,0.3,2.6,0.2,3-1.6C771.5,687.5,772.8,683.3,774,679z"/>
		<path class="st32" d="M774,679c1.1,4.8-1.5,8.7-2.9,13c-3.1,0.6-6.2,1.2-9-1.1c-1-1.4-1.7-2.7,0.1-4c1.2-1.2,2.7-0.7,4-0.4
			c-1.2-1-3.4,0.2-4.1-1.9c-0.3-0.6-0.7-1.1-1-1.7c2.2-2,5.1-0.8,7.5-1.6c0.4-0.1,0.9-0.3,1.4-0.4C771.1,679.9,772.1,678.6,774,679z
			"/>
		<path class="st33" d="M762.1,690.9c3,0.6,6.2-0.6,9,1.1c0.7,1.7,1,3.4-1.7,2.9c-2.5-0.5-5.1-0.4-7.4-1.8
			C762,692.3,762,691.6,762.1,690.9z"/>
		<path class="st34" d="M770.1,681c-0.1,0.3-0.1,0.6-0.1,0.8c-3,1.2-5.7,0.8-8.2-1.2c-0.1-1-0.3-2-0.4-3
			C764.9,677,768.2,677.2,770.1,681z"/>
		<path class="st35" d="M762.2,684.6c2,0.1,4,0.2,5.9,0.3c1.1,0.1,1.9,0.5,1.8,1.8c-0.1,1.1-1.1,1.2-1.8,1.1c-2-0.2-3.9-0.6-5.8-0.9
			C762.2,686.2,762.2,685.4,762.2,684.6z"/>
		<path class="st36" d="M761.8,680.6c2.7,0.5,5.3,1.8,8.2,1.2c-2.7,2.4-5.9,0.7-8.8,1.2C760.8,682.1,760.7,681.2,761.8,680.6z"/>
		<path class="st0" d="M795,718c6.7,0,13.3,0,20,0"/>
		<path class="st0" d="M835,718c6.7,0,13.3,0,20,0"/>
		<path class="st0" d="M915,718c6.7,0,13.3,0,20,0"/>
		<path class="st0" d="M875,718c6.7,0,13.3,0,20,0"/>
		<path class="st10" d="M964.1,702c-0.1,0.7-0.2,1.3-0.3,2c3.4,1.1,7,2,10.1,3.9c1.5,0.9,2.9,1.9,2.5,3.9c-0.5,2.4-2.6,1.6-4.1,1.6
			c-67,0-133.9,0-200.9,0c-1.8,0-3.9,0.6-4.5-1.9c-0.6-2.3,1.2-3.4,2.7-4.2c3-1.8,6.3-2.9,9.7-3.8c1.4-0.4,3.6,0.1,3.6-2.5
			c-1-1.1-1.6-2.5-3.1-3.1c-2.2-1.6-2.9-4-3.3-6.5c-1.1-6.9-1.6-13.8,1.5-20.4c0.8-1.7,1.3-3.4,3.2-4.2c1.3,0.1,1.8,1.1,2.2,2.1
			c0.4,1.6-0.3,2.9-0.9,4.3c-4.5,10-2.8,20.7,4.5,27.6c7.9,7.5,20.4,9.6,29.6,4.1c8.3-4.9,12.8-12.5,12.3-22.4
			c-0.6-10.6-6.7-17-16.4-20.3c-6.9-2.1-13.6-1.5-20.2,1.5c-1.2,0.4-2.4,1.1-3.7,0.2c-0.2-0.5-0.3-1-0.1-1.6
			c6.7-6.6,14.8-6.4,23.1-4.9c2.8,0.5,5.2,2,7.9,2.8c9,2.6,12,9.9,13.4,17.9c1.1,6.2,0.5,12.5-2.2,18.4c-0.7,1.5-2.5,2.3-2.4,4.3
			c0.8,0.9,1.8,0.8,2.8,0.8c30-0.1,60.1,0.2,90.1-0.1c0.5-0.3,0.9-0.5,1.4-0.8c0.8-0.3,1.6-0.4,2.4-0.1c1.6,1.1,3.4,2.1,3,4.5
			c-0.4,0.4-0.9,0.7-1.5,0.9c-2.6,0.7-5.3,0.5-8,0.5c-29.5,0-59,0-88.4,0c-4.4,0-8.4,1-12.5,2.6c-8.9,3.6-18.3,3.7-27.1-0.3
			c-4.8-2.1-8.8-1.9-12.9,1.2c11.3-0.8,22.4,2.6,33.7,1c3.8-0.5,7.6-0.7,11.4-0.7c48.3,0,96.6,0,144.9,0.1c0.6-0.2,2,0.5,1.8-0.4
			c-0.2-1-1.8-0.9-2.7-1.3c-0.9-0.3-1.7-0.7-2.5-1.1c-1.6-0.9-4-0.3-4.8-2.6c0.2-2.1,1.1-3.4,3.4-3.2C963.3,702,963.7,702,964.1,702
			z"/>
		<path class="st37" d="M781,702.1c0.9-0.1,1.6-0.3,2-1.1"/>
		<path class="st38" d="M782,667.1c-6.5,8.4-6.6,17.6-3.3,27.2c0.4,1.2,1.5,2.2,1.2,3.7c-0.6,0.1-1.2,0.2-1.8,0.3
			c-3.4-4.3-3.2-9.4-3.2-14.4c0-2,0-3.9,0-5.9c0.3-3.5,2-6.7,3-10c0.5-5.3,4.4-8.1,8.2-10.7c12.1-8.4,38.3-6.3,45.8,10.4
			c1.8,3.4,3,7,3.5,10.9c0,3.9,0.3,7.8-0.1,11.8c-0.9,2.7-0.2,6.2-3.5,8c-1,0.1-1.5-0.5-1.7-1.4c0.8-5.8,3.1-11.5,2-17.5
			c-1.5-8.1-4.5-15.2-12.9-18.5c-10.6-5.8-21-5.6-31.1,1.4C786.1,663.9,784.6,666.2,782,667.1z"/>
		<path class="st39" d="M962.9,702c-1,0.9-2,1.9-3,2.8c-1,2.1-2.7,3.3-4.8,4c-8,2.7-15.9,2.3-23.6-1.4c-1.5-0.7-2.7-1.8-3.4-3.4
			c-1-1-2-2-3.1-3c-6.8-2.9-8.9-18.1-6.3-25.2c0.9-2.3,1.9-4.6,3.1-6.7c2.2-3.1,5.1-5.2,8.3-7.1c10.4-6.2,20.6-5.4,30.7,1.1
			c0.7,0.5,1.1,1.2,1.1,2c2.5,3.2,5.8,5.8,7.2,9.9C972.6,685.3,969.7,694.1,962.9,702z"/>
		<path class="st40" d="M970.2,665.9c1.6,4,3.2,8.1,4.8,12.1c0,3,0,6-0.1,9c-1,0.8-0.8,2-1.1,3.1c-3.1-0.4-1.7-2.7-1.7-4.3
			c0.4-8.5-1.4-16.1-8.1-21.9c-3.1-0.6-5-3.4-8-4.2c-9.8-3.7-19.3-3.8-27.9,3.1c-2.5,1.6-4.6,3.6-6.1,6.1c-5,7.7-5.2,16-2.7,24.5
			c0.4,1.2,1,2.4,0.7,3.8c-0.7,0.6-1.4,0.7-2.3,0.6c-4.5-1.9-3.6-6.5-4.8-9.9c-0.5-2.4-0.4-4.9-0.4-7.4c-0.1-4.8,2.7-8.7,4.6-12.8
			c10.8-18.8,37.8-18.4,48.7-8.6C968,660.9,970,662.8,970.2,665.9z"/>
		<path class="st41" d="M957.1,658.9c2.9,0.9,5.1,2.8,7,5c-0.4,1-1.3,1.1-2.2,1.2c-0.3-0.3-0.7-0.6-1-0.9c-1-1.9-4-1.6-4.4-4.2
			C956.5,659.6,956.7,659.2,957.1,658.9z"/>
		<path class="st42" d="M970.2,665.9c-13.6-17.7-38-16.7-52.1,2.2c-3-1.1-4.4-4.2-7.1-5.7c-1.1-1.8-2.9-1.9-4.6-2.2
			c-2.2-0.3-4.6-0.5-6.1-2.5c-0.6-1.5-0.5-2.8,0.6-4c4.8-1.9,9.8-1.1,14.8-0.6c4.3,4.5,4.3,4.5,10.9,1.3c1.9-0.9,4-1.7,6-2.5
			c8.5-2.3,16.9-1.9,25.4,0c4.2,1.5,8,3.6,12.4,5.8c0.2-2.8-1.9-3.6-3-5.1c-1.7-1.8-3.5-3.3-5.6-4.5c-1.3-0.7-3.3-1.1-2.7-3.4
			c0.9-0.7,1.8-0.7,2.8-0.5c5,1.9,8.9,5.1,11.4,10c0.4,1,0.8,2.2,1.8,2.8c0,0.8,0.3,1.5,1,2c0.2,1.9,0.9,3.1,3.2,2.5
			c1.6-0.4,3.2-0.3,4.8-0.5c-2.6,2.1-5.8,2.2-8.9,1.9C972.6,662.7,971.1,663.6,970.2,665.9z"/>
		<path class="st43" d="M973.2,654.2c-3.8-2.9-6.7-7.1-11.2-9.2c2.3-4.1,6-2.1,9.2-2.2c0.6,2.2,1.5,4.4,1.7,6.7
			c0.3,2.8,1.7,3.7,4.2,3.6C976,654.3,974.5,653.9,973.2,654.2z"/>
		<path class="st44" d="M773,663c-1,0.3-2.1,1.6-3-0.1c-0.9-5.5,3.9-7.7,6.3-11.4c0.8-1.3,3.7-1.9,1.3-4.2c-2-3-1.5-4.1,2.8-5.4
			c8.1-2.3,16.2-4.6,24.4-6.3c5.6-1.2,11.4-1.7,16.7-4.3c1.3-0.4,2.5-0.6,3.9-0.6c0.5,0,1,0,1.6,0.1c0.8,0.1,1.5,0.3,2.2,0.8
			c1.1,1.1,2.2,2.3,2.2,4c-0.2,0.5-0.5,0.9-1.1,1.1c-13.1-1.5-25.1,4.2-37.7,5.8c-1.6,0.2-3.3,0.2-4.9,1.1c-0.5,0.1,0.4,0.7,0,0.1
			c-0.1-0.1,0.1-0.2,0.4-0.3c14-4.1,27.9-2.1,41.8,1.1c1.6,4,2.3,8.4,4.3,12.3c-2.2,2-3.8,0.4-5.5-0.8c-2.4-2.3-4.4-5.2-7.7-6.3
			c-12.6-6.4-24.8-5-36.7,1.9c-2.7,1.5-4.6,3.8-6.7,5.9C775.9,659.1,775.9,662.3,773,663z"/>
		<path class="st45" d="M773,663c1.8-1.7,1.5-4.8,4-6c3.6,1.4,6.6-0.4,9.7-2c1.6-0.8,3.2-1.5,4.9-2.1c9-2,18-2.4,27,0.7
			c3.4,1.5,6.6,3.5,9.7,5.6c1.3-1.5-0.6-3.1,0.8-4.3c1.5,1,2.8,2.4,4.9,2.2c1.1,0.2,1.5,1,1.6,2c-0.5,2.1,0.6,4.1-0.1,6.2
			c-1.2,1.5-2.1,3.5-4.6,2.9c-8.8-18.1-42.4-20.4-52.9-0.2C776.4,666.1,772.6,666.7,773,663z"/>
		<path class="st46" d="M822,631.9c-5.1,4-11.5,3.4-17.3,5c-8.1,2.2-16.3,4.1-24.5,6.2c-1.4,0.3-2.6,1.1-3.1,2.5
			c0,0.1,1.3,0.8,2,1.2c-0.1,0.8-0.5,1.3-1.2,1.6c-0.5,0.1-0.9,0.1-1.4,0.1c-1.5-0.4-3.3-0.1-4.5-1.5c1-1.3,2-2.7,3-4
			c0.6-0.3,1.2-0.7,1.8-1c4.8-1.3,9.6-2.6,14.3-4.3c9.5-2.3,19.4-3.3,28.5-7.2C820.8,630.4,822,630.3,822,631.9z"/>
		<path class="st47" d="M777.8,647.7c0.4-0.3,0.8-0.6,1.3-0.9c3.8,1.2,0.9,2.6,0,3.6c-3.3,3.9-7.5,7.2-9,12.5c-2.3,1-4.6,2-6.9,3
			c-0.4-0.3-0.5-0.8-0.3-1.2c0.5-1.1,1.4-1.9,2.3-2.6c2.2-1.3,3.4-3.4,4.2-5.8c0.4-1.2,0.9-2.7,0-3.7c-1.2-1.5-2.6-0.2-4,0.2
			c-3.8,1.5-3.2,5.4-4.6,8.3c-0.4,0.6-0.8,1.1-1.6,0.9c-0.5-8.6,0.5-10.1,8.4-13.1c1.5-0.6,2.9-1.3,4.4-2c1.8,0,3.7-0.4,5.3,0.7
			c-0.8,1.8-3.8,1.5-3.9,4.6C775.1,650.6,776.9,649.7,777.8,647.7z"/>
		<path class="st48" d="M763,665.1c0,0.3,0.1,0.5,0.1,0.8c-4.9,2.3-2.9-2.4-4-3.9c0.3-0.4,0.7-0.8,1-1.1
			C762.5,661.3,762.3,663.6,763,665.1z"/>
		<path class="st2" d="M814.9,625.9c-0.6,0.6-1.4,1-2.2,1.2c-4.4,0.8-8.5,2.7-13,3.3c-1.6,0.2-3.3,1.1-4.6-0.5"/>
		<path class="st49" d="M795,629.9c5.7-1.3,11.4-2.5,17-3.8c0.6,1.2,3.2-0.8,2.8,1.8c-11.1,3.6-22.8,5.4-33.8,9.5
			c-0.6,0.2-1.7,1.4-1.9-0.3c-0.1-0.3,0.6-0.7,0.9-1.1C785,634,790,631.9,795,629.9z"/>
		<path class="st50" d="M814.8,627.9c-0.4-1.5-2.3-0.5-2.8-1.8c0.7-0.1,1.3-0.2,2-0.3c2-1.2,3.9-2.7,6.5-1.4
			c0.4,0.2,0.7,0.6,0.8,1.1c-1.1,1.7-4.3,2.9-1.4,5.7c-1.7,2.3-4.5,1.8-6.8,2.3c-7.3,1.7-14.7,3.1-22,4.6c-0.4,0.4-0.8,0.3-1.2-0.2
			c7.2-2.9,14.9-3.8,22.5-5.5C815.4,631.7,816.2,630.7,814.8,627.9z"/>
		<path class="st21" d="M789.9,637.9c0.4,0.1,0.8,0.1,1.2,0.2c-4.5,2.1-9.2,3.5-14.2,3.9C781,639.8,785.3,638.4,789.9,637.9z"/>
		<path class="st51" d="M971.2,642.8c-2.6,2.8-6.6-0.4-9.2,2.2c-1,0-2,0-3,0c-1.7,1.3-3.5,0.7-5.2,0.3c-8.2-1.7-16.1-1.2-23.8,2.1
			c-0.8,0.3-1.6,0.4-2.4,0.4c-0.5-0.1-1-0.2-1.5-0.5c-1.2-2-3.2-2-5.2-2c-5.1,0.1-10.2-0.2-15.3,0.2c-1.4,0.1-3,0.5-4.1-0.9
			c-0.7-2.3-1.6-4.7,1.7-5.8c8-1.9,16.1-0.9,24.2-1.6c13.2-1.1,26.4-0.9,39.7-1.3c2.5-1.5,2.1,1.2,3.1,2
			C971.4,639.4,970.9,641.2,971.2,642.8z"/>
		<path class="st52" d="M903.1,638.9c-1.9,1.8-0.8,4-1,6.1c2.1,3.3,1.1,6.3-0.9,9.2c0,1.3-0.1,2.6-0.1,3.9c0.7,1.2,0.3,1.9-1,2.2
			c-0.8-0.3-1.3-0.8-1.6-1.6c-0.3-0.8-0.3-1.6-0.2-2.4c0.4-4.4,0.3-9,1.2-13.4c0.1-1.6,0.1-3.1,0.1-4.7c0.6-3.1-2.1-5.9-0.9-9.1
			c0.5-0.3,1-0.6,1.5-0.9c-0.1,0.7-0.1,1.4,0.6,1.8C901.6,633,902.3,635.9,903.1,638.9z"/>
		<path class="st5" d="M970.1,638c-1.1-0.5-1.5-2.2-3.1-2c1.7-1.8-0.1-5.9,4-6C968.1,632.4,969.7,635.3,970.1,638z"/>
		<path class="st53" d="M898.7,629.1c1.1,2.9,2.7,5.7,2.3,8.9c-4-0.1-7.7-2.7-11.8-0.7c-0.4,0.2-1,0-1.5,0.2
			c-13.9,7.8-29.4,4.8-44.1,6.8c-1.3,0.2-2.6,0.4-3.9,0.7c-3,0.2-6.2,1.2-8.5-1.9c-1-2.8-0.6-5.6,0.6-8.3c3.2-2.8,7.2-2.1,10.9-2.7
			c11.1-1.8,22.4-1.7,33.6-3.5c2.6-0.4,5.3-0.2,7.7,1.2C888.9,629.7,893.8,629.4,898.7,629.1z"/>
		<path class="st54" d="M943.1,611.8c2.7,2.3,4.3,5.4,6.5,8.1c2.3,2.8,0.9,3.8-2,4c-11.1,0.7-22.1,1.3-33.2,2c-1.5,0.1-3,0-4.5,0.2
			c-5.9,1-5.9,1.1-5.8-5.1c0.4-0.4,0.9-0.5,1.4-0.3c7.3,1.3,14.4-0.3,21.6-0.8c2.4-0.2,3.5-2.2,4.6-4.2c1.3-1.9,2.6-3.8,5-4.4
			C938.9,611.2,941,611.9,943.1,611.8z"/>
		<path class="st55" d="M894.9,619c0.1,8.2-0.4,8.7-8.3,9c-1.3,0.1-2.7-0.3-3.7,1c-10.7,0.7-21.4,2.4-32.1,2.6
			c-3.3-2.6,0-6.2-1.5-9.1c-0.1-0.8-0.1-1.5,0.2-2.2c1-2.3,5.1,0.8,5.2-3c0.7-0.9,1.6-1,2.6-0.4c2.4,7,7.1,9,14.2,7
			c2.9-0.8,6.2-0.2,9.4-0.6c3.6-0.5,6.3-1.9,7.8-5.3c0.5-0.8,1.1-1.6,2-2.1C893.3,615.2,893.7,617.7,894.9,619z"/>
		<path class="st56" d="M849.7,631c11.1-0.3,22.1-2.4,33.2-2c0.4,0.3,0.8,0.7,1.1,1c-17.3,1.3-34.5,2.7-51.7,5.3
			c-0.5,0.4-1,0.4-1.4-0.2c-1.1-0.7-2.2-1.4-1.9-2.9c3-4.8,6.6-9,11.8-11.7c0.5,0,0.9,0.2,1.3,0.5c0.7,1.3,0.2,2.3-0.5,3.4
			c-0.8,2-4.2,2.3-3.4,5.3c3.4,0.3,6.8-0.4,10.1,0.5C848.9,630.3,849.3,630.6,849.7,631z"/>
		<path class="st57" d="M904.9,620.9c-0.2,0-0.5,0.1-0.7,0.2c-0.1-2.3-0.1-4.7-0.2-7c-2.5-2.6,0-6.7-2.9-9.1c0-2.3-0.1-4.5-0.1-6.8
			c8.3-0.8,16.6,0.1,24.9,0.1c7.9,0,12.7,4.9,16.9,10.8c-0.3,0.3-0.6,0.6-0.8,1c-1.6,0.4-2.5-0.7-3.3-1.7
			c-4.4-6.1-10.4-7.9-17.5-6.9c-4.4,0.1-8.7-0.2-13.1,0.2c-2.1,0.7-1.7,2.5-1.7,4.1c0,3.4,0,6.9,0,10.3
			C906.3,617.8,906.5,619.6,904.9,620.9z"/>
		<path class="st58" d="M894.9,619c-2.1,0.1-2.1-2.5-3.8-2.9c-1.8-1.1-2.1-3-2.3-4.8c-0.3-5.3,2.8-9,6-12.6c3.2,0.8,2.2,3.6,2.7,5.7
			c-0.2,3.3,0.8,6.7-1.5,9.7C895.6,615.7,895.3,617.3,894.9,619z"/>
		<path class="st59" d="M896.1,604c-0.9-1.6,1.5-4.7-2.3-4.9c-4.5,2.1-9.3,1.8-14,2.3c-3.5-0.4-6.7,0.5-9.8,2.1
			c-1.6,0.8-3.2,1.6-5.1,1.5c-0.5,0-1-0.2-1.5-0.4c-0.5-0.3-0.7-0.7-0.8-1.2c0.7-1.9,2-2.7,4.1-2.3c9.1-2.5,18.2-4.7,27.7-4
			c1.6,0.1,3.3-0.6,4.6,0.9c0,0.3,0,0.7,0,1C899.7,601.6,900.3,604.2,896.1,604z"/>
		<path class="st60" d="M921.8,600.1c9.4-2.1,15,3.5,20.2,9.9c0.4,0.6,0.8,1.2,1.2,1.8c-2.1,2.2-4.2,1-6.3,0.1
			c-1.8-1.3-3-3.2-4.8-4.6C929.5,603.7,924.8,603.2,921.8,600.1z"/>
		<path class="st61" d="M896.1,604c2.4-0.8,3.2-2.6,2.9-5c1.9,4.1,0.9,8.3,0.6,12.5c-0.2,1.8-1.6,2.7-3.6,2.5
			C896.1,610.7,896.1,607.3,896.1,604z"/>
		<path class="st61" d="M901.1,604.9c2.4-0.1,3,1.2,2.9,3.3c-0.1,1.9,0,3.9-0.1,5.8c-2,1-3,0.6-2.9-1.8
			C901.1,609.8,901.1,607.4,901.1,604.9z"/>
		<path class="st62" d="M939.1,594.9c4.5,0.3,8.8,1.1,12.8,3.2c0.1,1.6-1.2,2-2.3,2c-3.9,0.3-7.9,1.1-11.8,0
			c-6.3-4.2-13.7-3.5-20.7-3.9c-9.1-0.5-18.3,0-27.4-0.4c-8-0.3-15.4,1.6-22.8,4.2c-1.7-0.2-3.7-0.6-3.9-2.4
			c-0.2-1.9,1.9-2.3,3.4-2.9"/>
		<path class="st63" d="M937.8,600.2c4.4-2.4,9.6,0.1,14-2.1c2.8,1.4,5.4,3.2,7.2,5.9c-2.4,2-5.3,0.7-7.9,1c-2.4,0.2-4.9-0.4-7.1,1
			C941.6,604.4,939.7,602.3,937.8,600.2z"/>
		<path class="st64" d="M871,593.7c-1.8,2.5-5.2,1.6-7.2,3.7c1,1,2.8,0.9,3.2,2.6c-0.1,0.4-0.2,0.7-0.3,1.1
			c-1.1,0.6-2.2,1.3-3.4,1.9c-1,0.9-1.9,0.5-2.8-0.3c-0.9-1.3-1.8-2.6-1.9-4.3"/>
		<path class="st65" d="M939,593.9c0,0.3,0.1,0.7,0.1,1"/>
		<path class="st0" d="M859,598.7c-0.7,0.9-1.6,0.8-2.5,0.4"/>
		<path class="st0" d="M871,593.7"/>
		<path class="st1" d="M857,598.9c-0.2,0.2-0.5,0.3-0.7,0.5"/>
		<path class="st66" d="M965,707c0.7,0.3,1.3,0.7,2,1c1.2,1.1,4.5,0.7,2.9,3.9c-63.8,0-127.6,0.1-191.3,0c-1.7,0-4.5,1-4.9-1
			c-0.5-2.5,2.5-3.2,4.4-3.9c4.5-1.6,8.7-2.4,13.6,0.5c9,5.4,18.4,4.6,27.4-0.7c1.9-1.1,3.7-2,6-2c34.3,0.1,68.6,0.1,102.9,0.2
			c9.6,5.7,19.4,7.2,29.8,1.8C960,705.7,962.6,706.4,965,707z"/>
		<path class="st67" d="M813,661c10.6,2.6,18.5,12.9,17.5,23.5c-1.2,13.7-10.7,23.6-22.6,24.5c-17.9,1.3-29.8-10.5-29.1-28.3
			c0.2-4.4,2.9-7.7,4.3-11.5c0.9-2.9,2.5-5,5.8-5.3c1-0.3,2-0.6,3-0.9c0.7,2.5-1.4,3.5-2.6,5c-8.7,10.7-8.4,22.5,1.1,31.2
			c6.9,6.4,17.1,7.5,24.9,2.7c8.3-5.1,12.1-14.6,9.8-23.7c-1.3-5.4-4-9.8-8.8-12.8C814.8,664.4,812.6,663.7,813,661z"/>
		<path class="st68" d="M813,661c0.8,1.9,2.7,2.5,4.2,3.4c8.8,5.6,10.8,14,9.6,23.4c-1.1,8.6-9.4,16.1-18.6,18
			c-8.3,1.7-17.1-2.2-22.3-9.9c-6.3-9.2-5.1-20.5,2.9-29.2c1.1-1.2,2.1-2.5,3.2-3.8C798.7,658.8,805.7,658.7,813,661z"/>
		<path class="st69" d="M827,700c0.9-1.2,1-3.2,3.1-3.1c0.4,0.4,0.7,0.7,1.1,1.1c14.6-1.2,29.1-0.4,43.7-0.5c1.3,0,2.6,0.2,3.8,1
			c0.9,0.8,1,1.6,0.3,2.6c-12.8,0-25.7,0-38.5,0"/>
		<path class="st69" d="M879,701c0-0.6,0-1.3,0-1.9c1.8-2,4.2-1.6,6.5-1.6c9.4,0.1,18.8-0.5,28.2,0.4c1.5,0.1,3,0.1,4.3-0.8
			c0.7-0.1,1.4-0.2,2.1-0.2c1.9,0.7,2.5,2.4,3,4.1c0.1,0.3,0.2,0.6,0.2,1C908.5,700,893.7,701.4,879,701z"/>
		<path class="st10" d="M923,701c-2-0.7-2.1-2.7-3-4.1c-4.5-10-5.1-19.9,1.7-29.2c0.8,0.1,0.9,0.9,1.3,1.4c-4.4,7.9-5.8,16-2.3,24.7
			c1.1,2.7,3,4.7,4.2,7.2C924.3,701,923.6,701,923,701z"/>
		<path class="st70" d="M787,662.1c10.1-8.2,23.3-8.7,32.1-1.2c-4.8-0.4-9-3.2-14-3c-6,0.2-11.4,1.6-16.3,5.1
			C787.8,663.8,787.1,663.7,787,662.1z"/>
		<path class="st10" d="M965,707c-3.8-0.4-7.1,0.8-10.6,2.1c-9.4,3.5-18.5,2.9-26.4-4c0-0.4,0-0.7,0-1.1c10.5,6.4,21.1,7.4,31.9,0.8
			C961,706.9,963.8,705.1,965,707z"/>
		<path class="st71" d="M787,662.1c0.4,0.8,1.1,0.9,1.9,0.8c0,0.3,0,0.6,0,1c-1.9,1.8-3.8,3.5-5.8,5.3c-0.9-0.4-1.1-1.2-1.1-2.1
			C783.3,665,784.8,663.2,787,662.1z"/>
		<path class="st10" d="M969.9,711.9c0.4-2.3-2-2.6-2.9-3.9c1.8-0.2,3.2,0.6,4.4,1.7c0.6,0.5,1.7,0.9,0.8,1.8
			C971.7,712,970.7,711.8,969.9,711.9z"/>
		<path class="st72" d="M830.8,668.1c1.4-1.1,2.9-2.1,4.3-3.2c1.8-0.2,2.6,1.1,3.8,2c1.4,1.7,1.6,3.9,2.3,5.8
			c1.2,3.9,1.4,7.8,1.2,11.8c-0.1,2.7,1.2,3.9,3.9,3.9c13.3,0,26.6,0.2,39.9-0.1c6.2-0.2,9.2-3.1,10.7-9.2c1.2-4.7,0.9-9.6,2.5-14.1
			c3.8-2.4,8.6-1.3,12.5-3.3c2.8,1.3,5.3,3,6.2,6.2c-1.2,4-4.3,7.4-4.2,11.9c-5.1-0.1-5.7,1.1-3.9,8.5c0.4,2.1,1.7,4.2-0.5,6
			c-24-0.6-48.1,0.2-72.1-0.1c-1.2-0.6-1.3-1.7-1.3-2.8c0.8-2.6,0.2-5.5,1.2-8c-0.9,0.2-2.8,3.7-2.9-0.7c0-1.6,0.4-3.3-0.3-4.8
			C833,674.7,831.9,671.4,830.8,668.1z"/>
		<path class="st73" d="M909.9,694c-0.3-2-0.6-4-0.9-6c1.7-3.9,3.3-0.6,5,0c2,2.8,0.5,7,3.9,9.2c0.5,2.9-1.4,2.9-3.3,2.6
			c-11.8-1.6-23.7-0.6-35.6-0.7c-14.5,0-29-0.1-43.6-0.2c-1.4,0-3.3,1.2-4.3-0.9c2.9-1.5,1.1-5,3-7c1.8-1.9,2.1-1.9,2.9,0.1
			c0,1,0,1.9,0,2.9C861.3,694.2,885.6,693.9,909.9,694z"/>
		<path class="st74" d="M837,691c-0.9-1.5-2-0.4-2.9-0.1c0-4.3,0-8.6,0.1-12.9c1.6,1.7,0.5,3.8,1.1,6.1c0.7-0.9,1.2-1.6,2.4-3.2
			C837.9,684.9,838.8,688,837,691z"/>
		<path class="st75" d="M954,704c-13.5,5-24.9,0.3-30.8-12.5c-3.4-7.5-0.7-18.9,5.8-24.5c0.3,0.4,0.5,0.8,0.6,1.3
			c-0.2,2.5-2.2,4.3-2.9,6.6c-1.9,5.5-2.1,10.9-0.1,16.4c1,2.5,2.3,4.7,4.4,6.4c4.6,4.6,10.2,5.5,16.4,5c1.8-0.1,3.6-0.8,5.4-0.4
			C953.6,702.6,954.2,703,954,704z"/>
		<path class="st76" d="M954,704c-0.4-0.3-0.7-0.7-1.1-1c0.3-2.8,3.2-3,4.7-4.7c1.4-1.6,3-3,3.9-5c2.5-3.6,2.4-7.7,2.3-11.8
			c0.4-3.3-1.4-5.9-2.6-8.7c-0.4-0.9-0.8-1.8-0.9-2.8c0-0.8,0.2-1.5,0.8-2c7.4,5.5,7.9,21.3,2.4,28.2C960.8,699.5,957.7,702,954,704
			z"/>
		<path class="st77" d="M961,668c0,0.7,0,1.4,0,2.1c-1.8,0.5-2.7-0.8-3.9-1.7c-7.1-5.7-14.7-6.4-22.7-2.1c-1.7,0.9-3.2,2.6-5.4,1.8
			c0-0.4,0-0.7,0-1.1C938.8,658,951.1,658.3,961,668z"/>
		<path class="st10" d="M957,660.3c0.8,1.8,3.6,1.6,3.9,4c-10-6.3-20.3-6.7-30.9-1.3c-0.3-0.5-0.5-1-0.3-1.6
			C937.1,655.7,949.6,655.2,957,660.3z"/>
		<path class="st78" d="M929.9,661.9c0,0.3,0.1,0.7,0.1,1c-2.3,2-4.6,4.1-6.9,6.1c-0.4-0.5-0.9-0.9-1.3-1.4c1.3-2.3,2.9-4.4,5.3-5.6
			C928,662.8,928.9,661.3,929.9,661.9z"/>
		<path class="st70" d="M929.9,661.9c-0.9,0.3-1.8,1.7-2.9,0.2c9.3-7.4,19.3-8.5,30-3.2c0,0.5-0.1,0.9-0.1,1.4
			C947.7,657.1,938.6,656.4,929.9,661.9z"/>
		<path class="st79" d="M914,688c-1.7,1.2-3.4-2.6-5,0c-2-2.5-1.5-5.6-0.8-7.9c1.3-4.3,3.7-1.8,5.7-0.1C914,682.6,914,685.3,914,688
			z"/>
		<path class="st80" d="M927,647c10.4-4.9,21.1-5.1,32-2c2.8,2.6,7.2,3.2,9.1,7c-2.8,2.7-6,1.2-9.1,1.1c-9-1.5-18-2.1-27,0
			c-2.2,0.6-4.5,0.3-6.8,0.2c-1.3-0.1-2.9-0.2-3.3-1.6c-0.4-1.6,1-2.6,2.3-3.5C925.1,647.6,926.2,647.6,927,647z"/>
		<path class="st81" d="M901.2,654.2c0.3-3.1,0.6-6.2,0.9-9.2c7.8-1.9,15.7-0.8,23.5-0.8c4,0,0.9,1.8,0.3,2.8
			c-3.5,1.7-4.4,6.7-8.9,7.1C911.8,654.1,906.5,654.1,901.2,654.2z"/>
		<path class="st82" d="M917,654c3.1-2.2,5.3-5.6,8.9-7.1c0.4,0,0.7,0.1,1.1,0.1c-1.4,1.3-2.9,2.6-4.7,4.3c3.4,1.2,6.8,0.2,9.7,1.7
			c-3.3,1.8-6.7,3.5-10,5.3c-1.6,0.9-3.2,1-4.7,0.1C915.2,657.2,917.2,655.5,917,654z"/>
		<path class="st83" d="M912,661.9c-3,4.5-7.6,2.9-11.8,3c-1.7-1.6-1.6-3.2-0.2-4.9c0.8-0.4,0.9-1.2,1.1-2c2.9,0.2,5.6,1.3,8.6,1
			C911.7,658.8,912,660.3,912,661.9z"/>
		<path class="st84" d="M959,653.1c2.9-1.5,6.1-0.7,9.1-1.1c2.2,1.7,5.7,3.9,4,6.3c-1.8,2.5-4.5-0.5-6.6-2
			C963.5,654.8,960.7,655.1,959,653.1z"/>
		<path class="st85" d="M819,655c-9.2-3.3-18.6-2.6-28-1c-2.2-0.5-4.5-0.4-6.7-0.7c-1.2-0.1-2.4-0.5-1.2-2.1
			c10-8.2,27.9-9.2,38.9-2.2c1.5,1.3,4.3,2.2,3.1,4.8C823.9,656.4,821.3,655.7,819,655z"/>
		<path class="st86" d="M829.9,644.9c-3.7,0.6-7.3-0.2-10.9-1c-10.8-2.3-21.4-1.7-32,1c-1.1,0.3-2.3,0.5-3.8-0.5
			c4.5-2.7,9.6-3,14.2-4.2c7.7-2,15.6-3.2,23.3-5.3c3.8-1,6.8,0.8,10.2,1.2C832,639.2,831.5,642.1,829.9,644.9z"/>
		<path class="st87" d="M857,598.9c0.7-0.1,1.3-0.2,2-0.2c1.1,0.7,2,1.5,2,3c-2.5,4.1-7.6,5.3-10.2,9.2c-0.3,0.4-0.7,0.6-1.1,0.9
			c-7.1,4.6-13.6,10-19.1,16.4c-1.2,1.4-2.3,2.9-3.9,3.7c-0.2-0.1-0.5-0.1-0.7-0.2c-1.4-1-3.5-1.6-3.3-4
			c5.4-6.4,11.8-11.7,18.7-16.5c4.9-3.4,9.4-7.2,13.9-11.1C855.8,599.7,856.5,599.5,857,598.9L857,598.9z"/>
		<path class="st88" d="M826.7,631.9c3.9-7.4,10.7-12,16.7-17.2c1.9-1.6,3.4-4.2,6.6-3.7c-0.3,5.7-4.5,8-8.8,10.1
			c-4,3.7-8.1,7.4-12.1,11.1C828.3,632,827.5,632,826.7,631.9z"/>
		<path class="st89" d="M783.1,651.2c1.1,2.4,3.3,0.7,4.9,1c1.4,0.3,2.4,0.5,3,1.8c-2.7,1.4-5.2,3.1-8,4.2c-2,0.8-4.7,2.3-6-1.2
			C778.7,654.7,780.4,652.4,783.1,651.2z"/>
		<path class="st90" d="M829.9,644.9c0.3-2.9,0.7-5.8,1-8.8c0-0.4,0-0.7,0-1.1c0.5,0.1,0.9,0.1,1.4,0.2c-0.2,2.6-0.4,5.2-0.6,7.8
			c1.6,4.5,1.8,9.5,4.8,13.5c0.7,1.4,1.4,2.9,2.1,4.3c0.9,1.8,1.5,3.8,2.3,5.7c0.5,1.1,0.8,2.2,0.6,3.4c-0.3,0.9-0.7,1.8-1.7,2.2
			c-0.7-1.7-1.3-3.5-2-5.2c-1.7-2.3-3-4.8-3-7.8c-0.3-0.7-0.6-1.3-1-2C830.6,653.6,829.4,649.5,829.9,644.9z"/>
		<path class="st91" d="M819,655c2,0,4.4,0.2,5.3-1.6c1-2-1.9-2.7-2.4-4.4c3.4,0.8,5,3.6,7,5.9c-0.6,2.1,3.5,3.7,1.1,5.6
			c-2.4,1.8-3.9-1.2-5.7-2.4C822.7,656.9,820.8,656,819,655z"/>
		<path class="st92" d="M823,628c0.4,1.7,3,1.7,3,3.8c-1.3,0.1-2.6,0.1-4,0.2c-0.5-0.8-1.3-0.9-2.1-0.8c-1.5-0.5-3.5-0.9-3.3-2.8
			c0.3-2.1,2.2-2.5,4.1-2.4C822,626,822.7,626.8,823,628z"/>
		<path class="st93" d="M834.9,659.1c1.5,2.4,2.7,4.9,3,7.8c-1.6,0.3-1.9-1.3-2.8-2C835,663,832.8,661.1,834.9,659.1z"/>
		<path class="st94" d="M777.8,647.7c1.9,0.5,0.8,1.2,0.2,1.9c-1.6,1.8-3.1,3.6-5,5.9c-2.2-6-0.4-8,4.3-7.8
			C777.4,647.9,777.6,647.9,777.8,647.7z"/>
		<path class="st95" d="M764.9,651.9c1.8-0.9,4.1-2.9,5.6-1.3c1.1,1.2,0.7,4.2,0.1,6.1c-0.9,2.7-2.2,5.6-5.4,6.5
			c-0.4-0.3-0.6-0.6-0.8-1.1c0.2-3.2,2.4-6.3,0.7-9.7C765,652.3,765,652.1,764.9,651.9z"/>
		<path class="st96" d="M765,662c0.1,0.4,0.1,0.9,0.2,1.3c-0.7,0.6-1.4,1.3-2.2,1.9c-3.1,0-1.5-3.1-2.9-4.3c0.7-3.5,0-7.7,4.8-9
			c0,0,0.1,0.5,0.1,0.5C767,655.6,764.3,658.8,765,662z"/>
		<path class="st97" d="M820.8,625.2c3.6-1.6,6.2-4.6,9.1-7.2c0.7-2.5,3.1-3.4,4.8-5c5.1-4.3,10.4-8.3,16-11.9
			c1.6-1,3.2-2.7,5.4-1.1c-2.8,5.4-8.5,7.4-12.7,11.2c-3.4,3.1-7.8,5-11,8.2c-3,3-5.8,6.2-9.3,8.5c-0.8-0.7-1.5-1.4-2.3-2.1
			C820.8,625.7,820.8,625.4,820.8,625.2z"/>
		<path class="st98" d="M836,657c-3.8-3.9-4.5-8.8-4.2-14c2.5,2,5.4,0.5,8.1,0.9c15.3,1.1,30.6,0.3,45.9,0.4c3,0.3,6,0.2,9,0.2
			c2.4,0.7,3.9-1.6,6.1-1.6c-1.5,4.6-0.1,9.5-1.7,14.1c-17.7-1.4-35.4,0.5-53.1,1.2C842.6,658.4,839.1,659.3,836,657z"/>
		<path class="st99" d="M836,657c19.5-0.7,38.9-2.2,58.4-2c1.8,0,4.2-0.9,4.8,2.1c0,0.7,0,1.4,0,2.1c-0.2,0.3-0.3,0.5-0.5,0.8
			c-2.1,1.9-4.6,1.5-7.1,1.6c-13.8,0.4-27.5-0.6-41.3,0.7c-4,0.4-8.3-0.4-12.3-1.2C836.9,659.9,836.2,658.5,836,657z"/>
		<path class="st100" d="M900.9,643c-1.3,1.6-2.3,3.6-4.9,3c-0.7-1.2-0.4-2.5-0.5-3.8c0.2-2.4-0.7-3.7-3.4-3.4
			c-2.9,0.3-5.2,0.9-4.8,4.6c-0.1,1-0.5,1.9-1.2,2.6c-3.7-1.1-7.4,0.3-11.2,0.1c-6.9-0.3-13.9-0.2-20.9,0c-4.8,0.1-9.6,0-14-2.1
			c5.9-1.6,12.1-1.3,18.1-2c7.1-0.7,14.2-1.3,21.3-1.9c3.9-0.3,6-4.1,10.3-4.4c4.3-0.3,8-0.5,11.5,2.4
			C901,639.7,900.9,641.3,900.9,643z"/>
		<path class="st101" d="M839.9,672.1c0.1-0.8,0.2-1.6,1-2.1c3.2,2.8,2.3,6.8,2.9,10.2c1.1,6.1,1.1,6.2,7.3,6.2
			c11.3,0,22.6,0.1,34,0c6.8-0.1,9.1-2.2,10.5-8.9c0.9-4.2,0.7-8.6,1.8-12.8c0.1-2.1,0.5-4,1.6-5.8c0,0,0.3,0.1,0.3,0.1
			c0.3,0.3,0.6,0.6,0.9,0.9c0.1,1.6,0.1,3.2,0.2,4.9c-0.6,4.9-1,9.9-2,14.7c-1.4,6.9-5.1,10.1-12.1,10.2c-13.6,0.2-27.3,0-40.9,0.1
			c-2.9,0-4.5-1-4.3-4C841.2,681.3,840.6,676.7,839.9,672.1z"/>
		<path class="st102" d="M904.9,620.9c0-6.2,0-12.3,0.1-18.5c0-1.5-0.9-3.9,2.3-2.7c0.6,3.6,0,7.2,0.2,10.9c0.1,1.1-0.7,2.9,1.8,2.2
			c6.1-1.5,12.3,0,18.4-0.2c2.4-0.1,4.8,0.2,5.3,3.3c-0.8,4.1-3.5,5.6-7.4,5.8c-5.6,0.3-11.3,0.8-16.9,1.1
			C907,623,905.2,623.4,904.9,620.9z"/>
		<path class="st103" d="M932.9,616c-0.6-0.6-1.2-1.6-1.8-1.6c-8.2-0.3-16.4-1.2-25,0.2c-0.7-0.8,0.1-2.3,0-3.6
			c0.3-3.9,2.6-5.5,6.3-5.3c6.9,0.4,13.9-1.2,20.7,1.3c1.5,1.5,3.6,2.6,3.7,5.1C935.5,613.3,934.2,614.6,932.9,616z"/>
		<path class="st104" d="M889.8,617.9c-1.4,4.1-3.7,6.5-8.5,6.6c-5.3,0.1-10.6,0.7-15.8,1.4c-4,0.6-6.3-0.8-7.2-4.7
			c-0.3-1.4-0.9-2.8-1.4-4.2c1-2.3,3-2.4,5-2.5c6.8-0.2,13.6-0.1,20.4-0.4C885.2,614.1,888.5,614.3,889.8,617.9z"/>
		<path class="st105" d="M889.8,617.9c-1.8-2.1-4.5-2.3-6.8-2.3c-7.9-0.1-15.8,0.3-23.7,0.5c-0.8,0-1.5,0.6-2.3,0.9
			c-0.8,0-1.5,0.2-1.9,0.9c-1.2,0.4-1.9-0.2-2.3-1.3c2.9-5.3,7-9.2,13.3-10.1c5.3,1.6,10.8,0.8,16.2,1c3.1,0.1,5.9,0.5,7.7,3.4
			c0.4,1.7,0.8,3.4,1.2,5.1C890.6,616.7,890.2,617.3,889.8,617.9z"/>
		<path class="st106" d="M849.7,631l-0.4,0l-0.4-0.1c-4.3-0.8-8.6-0.6-12.9-0.1c-0.9-4.1,3.2-4.6,4.9-6.9c3.5,1.5,6.9,2,9.2-2
			C851.7,625,850.9,628,849.7,631z"/>
		<path class="st107" d="M850.2,621.9c-1.5,5.8-4.5,6.4-9.2,2c0.4-1,0.7-2,1.1-2.9c0.4-0.3,0.8-0.4,1.3-0.2c2,0.9,4,2.3,5.5-0.8
			c0.4-0.2,0.8-0.2,1.2,0.2C850.1,620.8,850.1,621.3,850.2,621.9z"/>
		<path class="st104" d="M850,620.2c-0.3-0.2-0.6-0.2-0.9-0.2c-0.3-0.4-0.4-0.8-0.2-1.3c0.9-1.3,1.9-2.7,3.9-1.8
			c0.8,0.4,1.6,0.7,2.3,1.1c0.4,1.2,1.7,2.5,0.3,3.6c-1.2,0.9-1.9-0.9-2.9-1.2C851.6,620.2,850.8,620.2,850,620.2z"/>
		<path class="st108" d="M843.1,621c-0.4,0-0.7,0-1.1,0c-0.3,0-0.6,0-0.8,0c2.6-3.7,7.6-5.2,8.8-10.1c0,0-0.1,0-0.1,0
			c4.1-2.8,7.3-7.2,13-7.1c0.4,0.1,0.9,0.1,1.3,0.2c0.1,1.8-1.4,2.4-2.5,3.3c-5.1,3.9-10.3,7.6-15,12
			C845.7,620.2,844.8,621.5,843.1,621z"/>
		<path class="st109" d="M836.1,630.8c4.3-1.3,8.6-1.6,12.9,0.1C844.7,631.7,840.4,630.9,836.1,630.8z"/>
		<path class="st110" d="M933.1,606.9c-6.7,0-13.4,0.3-20.1,0.1c-3.4-0.1-5.7,0.7-6.9,4c0.5-3.7-1.4-7.6,1.1-11.1
			c4.9,0.1,9.7,0.2,14.6,0.3C926.6,600.7,930.2,603.1,933.1,606.9z"/>
		<path class="st111" d="M889.8,611c-5.6-3.2-11.8-1.6-17.7-2c-2.6-0.1-5.3,0.3-7.2-2.2c3.6-4.8,9.1-5.3,14.3-6.8
			c4.9-0.3,9.7-0.7,14.6-1c0.7,1.1,1.8,2.8,0.4,3.4C889.9,604.1,890.4,607.7,889.8,611z"/>
		<path class="st112" d="M879.2,600.1c-4.8,2.2-10,3.4-14.3,6.8c-4.5,2.9-8.7,6.1-12.3,10c-1.2,0.8-2.4,1.5-3.6,2.3
			c-1.1,0.6-2.2,0.7-3.1-0.4c5.5-5.7,12.1-9.9,18.3-14.7C869.4,603.2,873.6,599.1,879.2,600.1z"/>
		<path class="st113" d="M863,603.9c-4.6,1.8-8.1,5.7-13,7.1c1.8-5.3,7.2-6.4,11-9.3c0.4,1.2,1.4,1.2,2.4,1.3
			C863.2,603.3,863.1,603.6,863,603.9z"/>
		<path class="st1" d="M835,613.9c-1.7,1.4-3.4,2.7-5.1,4.1"/>
		<path class="st0" d="M840.1,610.2c-1.7,1.2-3.4,2.5-5.2,3.7"/>
		<path class="st0" d="M856.9,599c-0.3,0.4-0.6,0.7-0.9,1.1"/>
		<path class="st114" d="M784.9,675.9c3.4-11.2,19.1-17.6,29.2-10.9c-0.5,0.9-1.4,1.4-2.3,1.7c-0.7,0.2-1.5,0.2-2.2,0
			c-3.3-0.5-6.6-0.7-9.9,0.1c-8.2,3.3-8.4,4.4-1.6,9.8c1.2,0.9,2.5,1.7,3.2,3.1c0.2,0.5,0.2,0.9,0.1,1.4c-0.3,0.7-0.9,1.1-1.6,1.4
			c-4.7-0.4-9-3.8-14-2.4C784.7,678.8,785.1,677.3,784.9,675.9z"/>
		<path class="st115" d="M819.1,698.1c-10.6,10.3-27.1,7.4-33.3-5.8c-0.4-0.8,0-1.3,0.8-1.6c2.7,1,3.8,3.8,6.2,5.3
			c1.6,1.3,3.3,2.4,5.1,3.3c4.4,2,8.9,2,13.3,0c1.9-0.9,3.5-2.4,5.6-3c0.5-0.1,1,0,1.5,0.1C818.9,696.8,819.5,697.2,819.1,698.1z"/>
		<path class="st116" d="M811.9,666.1c0.4-0.9,1.3-1.1,2.1-1.2c4.8,2.3,8.5,5.7,9.8,11.1c-0.4,1.3,0.5,2.9-0.8,4
			c-0.8,0.2-1.3-0.2-1.7-0.8c-0.8-2.8-1.4-5.7-4-7.5C816,669.5,812.6,669.1,811.9,666.1z"/>
		<path class="st117" d="M786.9,691.1c-0.4,0.4-0.7,0.8-1.1,1.2c-3.1-5.3-2.6-10.8-0.9-16.4c1.6,1,0.7,2.8,1.1,4.2
			c1.9,2.3,1.3,5.3,2,8C788.1,689.2,787.9,690.3,786.9,691.1z"/>
		<path class="st118" d="M823,680.1c0.4-1.3-0.5-2.9,1-4c2.1,5.5,2.3,11-0.7,16.3c-0.9-0.2-1.4-0.7-1.9-1.5c-0.4-1-0.5-2.1-0.4-3.2
			C821.8,685.2,821.1,682.3,823,680.1z"/>
		<path class="st119" d="M822,691c0.4,0.5,0.9,0.9,1.3,1.4c-0.9,2.3-2.1,4.4-4.2,5.8c-0.4-0.4-0.9-0.9-1.3-1.3
			C817.4,693.6,818.9,691.7,822,691z"/>
		<path class="st74" d="M909.9,694c-2,1-2,1-3.9,1c-20.9,0-41.8,0.1-62.7-0.2c-1.9,0-4.8,3-6.2-0.9c3.8-1.8,7.8-0.7,11.7-0.8
			c14.3-0.4,28.7-0.7,43.1-0.4C897.8,692.8,904,692.2,909.9,694z"/>
		<path class="st120" d="M929,668.1c6.2-4.1,12.6-7,20.4-5.2c4.8,1.1,8.1,4.2,11.6,7.2c0.3,0.7,0.6,1.4,0.8,2.1
			c-0.6,2.8,3.2,4.9,1.4,7.9c-5-1.3-9.2,1.9-13.9,2.4c-0.7-0.2-1.3-0.6-1.6-1.3c-0.1-0.5-0.1-0.9,0-1.4c1.1-2.1,3.3-3.1,5.1-4.5
			c4.4-3.6,4.3-4.8-0.9-7.5c-0.7-0.4-1.5-0.7-2.2-1c-3.4-2.1-6.8-1.5-10.2,0c-2.5,1-4.9,2.1-6.9,3.9c-2.4,1.3-2.7,4.6-5.5,5.6
			c-0.9-0.5-1.1-1.4-1.2-2.3C926.1,671.5,928.3,670.2,929,668.1z"/>
		<path class="st121" d="M962.1,694.3c-1.8,4.2-5.7,6.3-9.3,8.7c-8.4,2.2-16.4,2.2-23-4.8c-0.4-0.9,0.1-1.3,0.8-1.7
			c0.5-0.1,1-0.2,1.4-0.2c2.1,0.5,3.7,2.1,5.7,3c4.4,2,8.9,2,13.3,0c1.8-0.9,3.5-2.1,5.2-3.3c1.9-0.9,2.6-3.5,5.1-3.4
			C962.2,692.9,962.6,693.4,962.1,694.3z"/>
		<path class="st122" d="M925.9,673.9c0.8,0.5,1,1.3,1,2.1c0.9,1.4,0.3,2.9,0.4,4.4c-0.1,2.5,0.1,5,0.7,7.4c0.1,1.1,0.1,2.1-0.4,3.1
			c-0.4,0.7-1,1.2-1.9,1.4C922.5,686.2,923,680,925.9,673.9z"/>
		<path class="st123" d="M925.7,692.4c0.4-0.5,0.9-1,1.3-1.4c2.8,1,4.3,2.9,4.2,5.9c-0.4,0.4-0.9,0.9-1.3,1.3
			C927.8,696.7,926.5,694.7,925.7,692.4z"/>
		<path class="st124" d="M962.1,694.3c-0.4-0.4-0.8-0.9-1.2-1.3c-1.2-1.7-0.2-3.3,0.1-4.9c0.3-0.9,0.7-1.8,1.1-2.7
			c1.1-1.4,0-4.1,2.9-4.3C965.6,685.8,965.3,690.3,962.1,694.3z"/>
		<path class="st125" d="M965,681c-1.8,1.2-0.2,3.8-1.9,5c-1.7-1.9-1.7-3.9-0.2-5.9c1-2.9-2.9-5-1.1-8
			C963.4,674.9,965.5,677.5,965,681z"/>
		<path class="st126" d="M898.7,664.9c-0.6,4.4-1.1,8.8-1.7,13.3c-0.9,6.8-4.1,9.8-10.7,9.8c-13.1,0.1-26.2,0-39.3,0.1
			c-2.9,0-4-0.7-4.2-3.8c-0.2-4.8-1.2-9.5-1.8-14.2c-0.2-1-0.5-2.1-0.7-3.1c4.1-2.3,8.6-2.2,13-2.4c12.8-0.4,25.6,0.6,38.3-1
			C893.9,663.2,896.6,663,898.7,664.9z"/>
		<path class="st127" d="M898.7,664.9c-19.4,1.9-39,0.4-58.5,2c-0.7-2-1.4-4-2.2-5.9c1.3-1.5,3.1-0.9,4.7-0.9c16.8,0,33.6,0,50.5,0
			c2,0,4,0.2,5.8-1C898.8,661,898.7,662.9,898.7,664.9z"/>
		<path class="st128" d="M765,662c-2.7-3.2-0.2-6.4,0.1-9.7c2.6-0.6,2,1.4,2,2.7C767.2,657.6,766.2,659.8,765,662z"/>
		<path class="st129" d="M895.7,642.8c1.8,0.9,0.9,2.1,0.3,3.2c-3.3,0-6.6,0-10,0c0-1,0-2,0.1-2.9C889.2,641,892.4,641,895.7,642.8z
			"/>
		<path class="st130" d="M895.7,642.8c-3.2,0.1-6.4,0.2-9.6,0.3c0.1-1.7-1.2-4.3,1.1-4.8c2.8-0.6,6-2,8.7-0.6
			C898,638.8,897.2,641.1,895.7,642.8z"/>
		<path class="st131" d="M846,618.8c1,0.1,2.1,0.3,3.1,0.4c0,0.2-0.1,0.5-0.1,0.7c-0.3,1.1,0.6,3.3-1,3.2c-1.6-0.1-4.5,1.3-5-2.1
			C844.1,620.3,845,619.5,846,618.8z"/>
		<path class="st132" d="M787,688c-1.6-2.5-1-5.2-1-7.9c2.1-2.6,4.6-1.9,7.1-0.8c2.3,1,4.5,1.9,6.8,2.8c0.6,0.6,0.8,1.3,0.7,2.1
			c-0.1,0.5-0.3,1-0.7,1.4c-2.4,1.8-5.3,2.5-8.1,3.6C790.1,689.7,788.4,689.6,787,688z"/>
		<path class="st133" d="M811.9,666.1c1.9,1.7,4.8,2.2,5.7,5c1.2,2.9-1.1,4.1-2.8,5.4c-2.2,1.6-4.1,3.8-7,4
			c-1.1-0.2-1.9-0.8-2.4-1.8c-0.9-2.9,0.4-5.7,0.7-8.5c0.7-2,1.2-4.1,3.9-4.3C810.6,666,811.3,666.1,811.9,666.1z"/>
		<path class="st134" d="M801.1,680.1c-2.1-1.5-4.2-3-6.3-4.6c-4.5-3.5-4.4-5.3,0.6-8.1c1.1-0.6,2.4-0.9,3.6-1.3
			c2.7,0.2,3.2,2.3,3.9,4.3c0.4,2.8,1.7,5.5,0.8,8.5C803.1,679.7,802.3,680.4,801.1,680.1z"/>
		<path class="st135" d="M801.9,670c-1-1.3-1.9-2.7-2.9-4c3.7-1.7,7.3-1.6,11,0c-0.9,1.3-1.9,2.7-2.8,4
			C805.4,672.3,803.6,671.7,801.9,670z"/>
		<path class="st136" d="M800.1,684c-0.1-0.6-0.1-1.3-0.2-1.9c0.3-0.4,0.5-0.7,0.8-1.1c2.3-1.5,4.7-1.2,7-0.3c0.9-0.1,1.4,0.3,1.7,1
			c0.4,1.4,0,2.4-1.1,3.3c-0.4,0.3-0.9,0.4-1.4,0.4C804.7,685.1,802.1,685.8,800.1,684z"/>
		<path class="st137" d="M808.1,680.9c-2.5,0-4.9,0.1-7.4,0.1c0.1-0.3,0.2-0.6,0.3-0.9c0.6-0.4,1.2-0.8,1.8-1.2
			c1.1-0.7,2.1-0.7,3.2,0c0.6,0.4,1.2,0.8,1.8,1.2c0.3,0.1,0.5,0.3,0.4,0.5C808.3,680.8,808.2,680.9,808.1,680.9z"/>
		<path class="st132" d="M797,700.2c-1.7-1.1-3.3-2.2-5-3.3c-1.5-2.6-0.7-4.8,1.5-6.6c2.3-1.8,4.4-4.1,7.5-4.8
			c1.8,0.4,2.8,1.6,3.1,3.4c0.2,2.2-0.6,4.3-0.8,6.4C802.4,698.5,801.2,701.3,797,700.2z"/>
		<path class="st138" d="M817,697c-1.7,1.1-3.3,2.2-5,3.3c-3.6,0.9-5.1-1.1-6-4.1c-0.4-2.4-1.3-4.8-1-7.4c0.4-2,1.7-2.8,3.7-2.7
			c3.2,0.7,5.2,3.2,7.6,5.2C818.1,692.8,818.1,694.9,817,697z"/>
		<path class="st139" d="M801,686.1c-2.3,1.8-4.5,3.7-6.9,5.4c-2,1.4-2.6,3.2-2.1,5.5c-2-1.7-4.1-3.3-5.1-5.9c0-1,0.1-2.1,0.1-3.1
			c4.8,1.1,8.5-2.2,12.8-3.1C801,684.6,801.2,685.1,801,686.1z"/>
		<path class="st140" d="M817,697c0.9-3.2-1.2-4.8-3.4-6.4c-1.6-1.2-3-2.5-4.5-3.8c-0.8-0.3-1.6-0.7-1.1-1.8l0,0
			c5.2-1.4,9.5,1.2,14,2.9c0,1,0,2,0,3c-1.4,2-2.8,3.9-4.2,5.9C817.5,697,817.2,697,817,697z"/>
		<path class="st141" d="M807,696c0.9,2.3,1.6,4.9,5,4.3c-5,2.5-10,2.5-15,0c4.1,0.6,4.1-2.8,5.1-5.2C803.7,695.3,805.3,696,807,696
			z"/>
		<path class="st132" d="M822,687.9c-5.1,1.2-9.2-2.7-14-2.9c0.4-1,0.7-2,1.1-3c4.2-4.5,9.4-5.8,12.9-3.1c0.3,0.4,0.6,0.7,0.9,1.1
			C822.8,682.7,823.6,685.5,822,687.9z"/>
		<path class="st142" d="M822,679c-5-1.8-8.7,1.9-12.9,3.1c-0.3-0.4-0.6-0.8-0.9-1.2c-0.1-0.3-0.1-0.5-0.2-0.8
			c3.4-2.8,8.1-4.3,9.7-9C821.4,672.5,822,675.6,822,679z"/>
		<path class="st143" d="M950,665.9c1.2,0.4,2.5,0.7,3.7,1.4c5.1,2.9,5.2,4.7,0.7,8.2c-2.1,1.6-4.3,3.1-6.4,4.6
			c-1.2,0.3-2-0.4-2.6-1.3c-0.5-1.3-0.5-2.6-0.2-3.9C946.4,671.7,945.2,667.2,950,665.9z"/>
		<path class="st132" d="M962.9,680.1c0.1,2,0.1,3.9,0.2,5.9c-0.4,0.7-0.7,1.3-1.1,2c-4.9,2.8-8.9-0.3-13-2.2
			c-0.4-0.4-0.6-0.9-0.7-1.5c-0.1-0.9,0.1-1.7,0.8-2.3c2.8-1.1,5.6-1.9,8.2-3.3C959.7,677.6,961.3,678.4,962.9,680.1z"/>
		<path class="st133" d="M931.7,670c2.1-2,4.3-3.7,7.3-4.1c4.8,1.3,3.6,5.8,4.8,9c0.3,1.3,0.3,2.7-0.3,4c-0.6,1-1.4,1.6-2.6,1.7
			c-3.5-0.8-5.9-3.5-8.5-5.6C930.9,673.6,930.9,671.9,931.7,670z"/>
		<path class="st144" d="M942.9,675.2c-1.6-2.9-0.6-7-3.9-9.2c3.7-2.1,7.3-3.1,11,0c-3.3,2.3-2.2,6.3-3.8,9.3
			c-0.7-0.2-0.5-1.3-1.9-1.3C942.8,673.9,943.8,675.4,942.9,675.2z"/>
		<path class="st145" d="M931.7,670c0.3,6,6.2,6.7,9.3,10c0.3,0.4,0.3,0.9,0.1,1.3c-0.4,0.6-1,1-1.7,1.1c-4.5-0.3-8.5-3.7-13.3-2.4
			c-0.3-1.5,0.2-2.8,0.8-4.1C928.4,673.9,929.3,671.4,931.7,670z"/>
		<path class="st146" d="M939.9,682.1c0.3-0.4,0.6-0.8,0.9-1.2c2.4-1,4.9-1.2,7.3,0c0.3,0.4,0.6,0.7,0.9,1.1
			c-0.1,0.6-0.1,1.3-0.2,1.9c-2.9,2.1-5.9,0.3-8.9,0.2C939.5,683.5,939.4,682.8,939.9,682.1z"/>
		<path class="st147" d="M948.1,680.9c-2.4,0-4.9,0-7.3,0c0.1-0.3,0.2-0.5,0.2-0.8c0.6-0.4,1.2-0.8,1.8-1.2c1.1-0.7,2.1-0.7,3.2,0
			c0.6,0.4,1.2,0.8,1.8,1.2C948,680.4,948,680.7,948.1,680.9z"/>
		<path class="st132" d="M957,697c-1.6,1.1-3.3,2.2-4.9,3.3c-4.2,1-5.4-1.7-6.2-4.9c-0.3-2.2-1.1-4.3-0.8-6.5c0.4-2,1.7-2.8,3.7-2.6
			c2.9,0.9,5.2,2.7,7.3,4.8C957.8,692.6,958.7,694.6,957,697z"/>
		<path class="st133" d="M937,700.2c-1.6-1.1-3.3-2.2-4.9-3.3c-1.3-2.3-0.9-4.5,1-6.1c2.5-2,4.5-4.7,7.9-5.3
			c1.8,0.4,2.8,1.6,3.1,3.4c0.2,2.2-0.6,4.3-1,6.4C942.1,698.3,941.2,701.4,937,700.2z"/>
		<path class="st140" d="M941,686.1c-2.3,1.8-4.5,3.8-6.9,5.4c-2.1,1.4-2.6,3.2-2.1,5.5c-0.3,0-0.5,0-0.8-0.2
			c-1.4-2-2.8-3.9-4.2-5.9c0-1,0-2,0-3c4.1-1.6,8.2-3.5,12.8-3.5C940.7,684.6,941.3,685.1,941,686.1z"/>
		<path class="st148" d="M957,697c1-3.2-1.2-4.8-3.4-6.4c-1.6-1.2-3-2.5-4.6-3.8c-0.7-0.6-0.6-1.3,0-1.9c4.3,1.3,8.2,4,13,3.2
			c0.4,1.8-0.9,3.3-1.1,5C959.6,694.3,958.3,695.6,957,697z"/>
		<path class="st149" d="M937,700.2c4.1,0.6,4.1-2.8,5.1-5.2c1.6-0.1,3.2-0.3,4.8,0c0.9,2.5,1,5.8,5.1,5.2
			C947,702.7,942,702.7,937,700.2z"/>
		<path class="st132" d="M939.9,684.9c-4.4,0.7-8,4.3-12.8,3.1c-1.5-2.5-0.9-5.2-0.9-7.9c1.7-2,3.7-2.3,6.1-1.1
			c2.5,1.2,5.2,2.1,7.7,3.1c0.1,0.6,0.1,1.3,0.2,1.9C940.4,684.4,940.4,684.7,939.9,684.9z"/>
		<path class="st150" d="M808,685c0.4,0.6,0.7,1.2,1.1,1.8c-1.7-0.2-3,0.4-3.2,2.3c-0.9,0.5-1.8,0.5-2.6,0c0-1.5-1.3-2-2.2-2.9
			c-0.4-0.4-0.8-0.9-1.2-1.3c0-0.3,0.1-0.6,0.3-0.9C802.7,684.3,805.5,683.4,808,685z"/>
		<path class="st151" d="M806.1,678.9c-1.1,0-2.1,0-3.2,0c-0.3-2.9-0.7-5.9-1-8.8c1.8,0.1,3.5,1.3,5.3,0
			C806.8,673,806.5,675.9,806.1,678.9z"/>
		<path class="st152" d="M803.2,689.1c0.9-0.8,1.8-0.6,2.6,0c0.4,2.3,0.8,4.6,1.2,6.9c-2.3,3.1-3.7,1.5-4.9-1
			C802.4,693,802.8,691,803.2,689.1z"/>
		<path class="st153" d="M946.1,678.9c-1.1,0-2.1,0-3.2,0c0-1.2,0-2.5,0-3.7c0.2-0.9,0.3-1.6,1.7-1.6c1.4,0,1.4,0.8,1.6,1.7
			C946.1,676.4,946.1,677.7,946.1,678.9z"/>
		<path class="st154" d="M939.9,684.9c0.1-0.3,0.2-0.6,0.3-1c2.9-2.1,5.8,0.6,8.7,0c0.2,0.3,0.2,0.6,0.2,0.9c0,0.6,0,1.3,0,1.9
			c-1.7-0.2-3,0.4-3.3,2.2c-0.9,0.5-1.8,0.5-2.6,0c0.1-1.6-1.3-2-2.2-2.9C940.6,685.7,940.2,685.3,939.9,684.9z"/>
		<path class="st155" d="M943.2,689c0.9-0.8,1.8-0.7,2.6,0c0.4,2,0.7,4,1.1,6c-1.6,1.1-3.2,2.7-4.8,0C942.4,693,942.8,691,943.2,689
			z"/>
	</g>
</g>
<g id="Layer_2">
</g>
</svg>
