<?xml version="1.0" encoding="utf-8"?>
<!-- Generator: Adobe Illustrator 21.0.0, SVG Export Plug-In . SVG Version: 6.00 Build 0)  -->
<svg version="1.1" id="Layer_1" xmlns="http://www.w3.org/2000/svg" xmlns:xlink="http://www.w3.org/1999/xlink" x="0px" y="0px"
	 viewBox="0 0 1728 1296" style="enable-background:new 0 0 1728 1296;" xml:space="preserve">
<style type="text/css">
	.st0{fill:none;stroke:#000000;stroke-width:4.3653;stroke-linecap:round;stroke-linejoin:round;stroke-miterlimit:10;}
	.st1{fill:#FFD400;stroke:#000000;stroke-width:4.3653;stroke-linecap:round;stroke-linejoin:round;stroke-miterlimit:10;}
	.st2{fill:#DAEF16;}
	.st3{font-family:'MyriadPro-Regular';}
	.st4{font-size:24px;}
	.st5{font-size:36px;}
</style>
<g>
	<path class="st0" d="M393.3,867.9c2.9-0.2,5.8-0.4,8.5-0.6c0.5,4.3,0.9,7.9,1.3,12.1c39.1,19.3,81,29,124.7,32.7
		c-10.2,31.1-13.8,62.5-14.6,95c73.9,0,146.7,0,222.2,0c-4.6-32.2-9.1-63.5-13.7-95.1c39.2-4.1,79.9-11.5,117.9-29.8"/>
	<path class="st1" d="M543.9,395.4c-15.8-6.7-31.6-3.4-46.9,1.2c-23.6,7.1-41.3,21.5-51.3,44.6c-11.4,26.3-5.1,58,19.5,80.9
		c25.9,24.2,79.2,29.7,107.1,8.6"/>
	<path class="st1" d="M733.8,543.8c27.5-5,50.5-17,64.4-42.6c13.6-25,12.4-50.7-3.8-72.7c-19.2-26.1-46.5-39.4-80.3-35.3"/>
	<path class="st0" d="M430.4,471.8c0.7,2.2,2.7,5,2,6.5c-16.9,34.7-34.2,69.3-63.3,96c-4.8,4.4-11.3,8.9-17.4,9.6
		c-17.8,1.8-27.2,13.9-35.8,26.7c-10.1,15.2-19.1,31.2-28.5,46.8"/>
	<path class="st0" d="M403.2,466.3c-14.9,18.6-29.8,37.1-44.7,55.7c-0.7-0.7-1.5-1.5-2.6-2.6c15-22.5,30-45.1,45.1-67.7
		c-0.8-0.8-1.7-1.6-2.5-2.4c-5,5-10.1,9.8-14.9,14.9c-20.4,22.3-40.4,45-54.5,72.1c-5.2,10.1-8.4,20.5-5.9,32.7
		c3.1,14.6-4.2,27-12.9,38.1c-9.9,12.6-20.9,24.4-30.2,37.4c-4.1,5.8-6.6,5.1-12.4,3.5c-6.8-1.8-14.4-8.2-21.7-0.4"/>
	<path class="st0" d="M222,662.8c-4.1,1.5-8.2,3-12.3,4.6c1.1,10.3,7,16,14.5,20.5c8.3,5,14,11.3,12.5,18.6
		c-7.3,6.7-13.4,10.9-17.9,16.5c-16.7,20.5-32.9,41.4-49.2,62.1c-1.3,1.7-2.3,3.6-4,6.4c3.4,4.2,6.3,9.6,10.7,13
		c10.2,8,18.3,5.8,25-5.3c20.3-33.5,40.7-67,61.1-100.4"/>
	<path class="st0" d="M975,639.8c-16.4-23.6-32.4-47.5-49.2-70.9c-19.3-26.8-39.1-53.2-59-79.6c-2.7-3.6-6.9-6.2-10.1-9.1
		c-11.2,4.3-15.4,14-12.8,25.4c5,22.4,17.1,41.2,30.8,58.8c18.4,23.6,37.4,46.6,60.7,65.9c9.2,7.6,16.2,17.9,24.2,27"/>
	<path class="st1" d="M731.7,446.7c-0.7-29.9-13.9-53-38.2-69.8C650.3,347.1,592.7,350.2,553,387c-15.2,14.1-25.6,32.7-24.5,55.3
		c0,0.7-1.4,1.5-2.1,2.2"/>
	<path class="st1" d="M561.4,503.4c-1.8,12.5,5.9,20.9,14.4,27c28.4,20.7,69.9,19.7,97.8-0.1c8.1-5.8,14.1-15.5,14.5-26.9"/>
	<path class="st0" d="M1034,708.6c13.1,15.3,26.1,30.7,39.3,45.8c13.4,15.3,27.1,30.4,40.8,45.8c-2.5,14.6-12.6,20.3-25.6,23
		c-33.1-42.2-66.5-84.2-99-126.8c-5.1-6.7-6-16.5-9.1-25.9c15.4-5.6,22.3-19.9,30.3-33c2.1-3.4,0.3-9.3,0.3-13.7
		c-18.4-5.6-33.9,5.7-37.1,25.9"/>
	<path class="st0" d="M466.9,758.9c0.2,2.5,0.5,5,0.7,7.5"/>
	<path class="st0" d="M466.5,717.3c-7.3,9.7-0.5,20.1,0.1,30.6"/>
	<path class="st0" d="M492.7,806.8c4.4,2.9,9.6,5.1,12.9,8.9c14.4,16.3,32.4,27.9,51.6,36.6c27.4,12.4,57,16.7,87.1,14.5
		c19.7-1.4,38.6-6.2,56.8-14.1"/>
	<path class="st0" d="M670.5,1006.5c-1.5-17.5-2-35.1-4.6-52.3c-2.7-17.7-7.5-35.2-11.4-52.5c-5-0.8-8.7-1.5-12.3-2.1"/>
	<path class="st1" d="M740.1,595.1c-2.1-16.8-5.1-33.6-7.9-51.1c-20.3-0.6-40.7,0.7-57.3-13.3l9.8,12.4c0.8-0.2,1.7-0.2,2.7,0.2
		c1.3,0.4,2.5,0.9,3.7,1.4c2.3,0.8,4.5,1.5,6.7,2.3c0.5-0.3,1.1-0.5,1.9-0.6c7.7-1,15.7-1.6,22.2,1.6c1.3-0.4,2.7-0.2,4.1,0.4
		c2.9,1.3,2.2,3.3,2.9,5.4c0.2,0,0.4,0,0.6,0c0.3,0,0.7,0,1,0.1c0,0,0.1,0,0.1,0c0.3,0.1,0.6,0.1,0.8,0.2c0,0,0.1,0,0.1,0
		c0.2,0.1,0.5,0.2,0.7,0.4c0,0,0.1,0,0.1,0.1c0.2,0.1,0.4,0.3,0.6,0.5c0,0,0,0.1,0.1,0.1c0.2,0.2,0.3,0.4,0.5,0.6c0,0,0,0,0,0
		c0.1,0.2,0.3,0.4,0.4,0.7c0,0,0,0,0,0.1c0.1,0.2,0.2,0.5,0.3,0.7c0,0,0,0.1,0,0.1c0.1,0.2,0.1,0.5,0.1,0.7c0,0,0,0.1,0,0.1
		c0,0.2,0,0.5,0,0.7c0,0,0,0.1,0,0.1c0,0.3,0,0.5-0.1,0.8c0,0,0,0,0,0.1c0,0.1-0.1,0.3-0.1,0.4c0.5,2,0,4.3-1.6,5.6
		c5.2,9.6,6.3,21.1,5,32c-0.3,3-3.1,5.4-5.8,5l5.3,6.7C738.2,604.6,740.7,599.7,740.1,595.1z"/>
	<path class="st0" d="M908.4,842.8c27.5-21.2,51.6-45.5,70.7-75.7c-20.4-19.4-40.5-38.5-61.6-58.6c-22.1,24.8-44,49.4-66.4,74.5
		c2.5,0.8,5.9,2,9.2,3.1"/>
	<path class="st0" d="M461,822.1c15.7,14.9,36,20.2,55.7,25.9c12.2,3.5,25.4,4,38.1,5.8"/>
	<path class="st0" d="M392.3,777.3c-20.8-22.9-41.6-45.8-62.6-68.9c-19.6,18.6-40.5,38.5-61.8,58.7c22.8,30,48.4,55.6,79.6,77.8
		c-3.8,0.4-6.8,0.7-9.7,1.1"/>
	<path class="st0" d="M810.2,826.5c-15.5-3.9-28.5,3.2-41.5,9.9c-20.3,10.5-41.8,16.9-64.4,19.6"/>
	<path class="st0" d="M791.7,750.1c-0.4,7.6-0.7,15.3-1.1,22.9"/>
	<path class="st0" d="M763.3,813.4c-4,1.8-8.8,2.8-11.9,5.6c-12.8,12-26.5,22.5-42.8,29.1c-4.4,1.8-3.5,9.1-9.7,7.9"/>
	<path class="st0" d="M598.5,806.8c1.1,3.3,1.6,7,3.4,9.8c12.4,19.3,51.6,17.2,62-3.2c0.6-1.2,0.1-2.9,0.1-4.3"/>
	<path class="st0" d="M583.2,863.6c8.4,22.2,28.5,29.4,48.1,36.8c2.8,1.1,7.6-1.2,10.7-3.1c5.1-3.1,9.5-7.1,14.3-10.8"/>
	<path class="st0" d="M420.6,466.3c-13.5,24-26.9,48-40.4,72c1.3,0.8,2.6,1.6,3.9,2.4c15.1-22.2,30.1-44.5,45.2-66.7"/>
	<path class="st0" d="M275.5,648.6c-4.1-10.7-10.4-19.8-20.8-24.9c-7.4-3.7-15.3-4.7-19.9,6.2c4.9,17.8,15.7,31.8,31.8,41.7
		c-5.6,11.4-8.1,22.8,1.3,33.8"/>
	<path class="st0" d="M276.6,651.8c17.2,10.2,30.8,22.5,32,44.7c0.4,8.1,4.8,16,7.3,24"/>
	<path class="st0" d="M1001.2,647.5c-2.5-1.1-5.1-3.2-7.6-3.1c-22,1-49.2,22.8-54.5,43.5c-0.7,2.7-0.1,5.8-0.1,8.7
		c0.1,8.8-2.2,16.7-8.7,22.9"/>
	<path class="st0" d="M416.3,471.8c-13.5,17.8-26.9,35.7-40.5,53.4c-1.5,2-4.3,3-6.5,4.4"/>
	<path class="st0" d="M519.9,546c-1.8,18.6-3.6,37.1-5.5,55.7"/>
	<path class="st0" d="M843,786.1c0,2.5,0,5.1,0,7.6"/>
	<path class="st0" d="M1012.1,728.2c-7.8,3.3-15.7,6.7-25.4,10.8c-4.3,5-10.2,11.9-16.1,18.7"/>
	<path class="st0" d="M1037.2,679.1c4,0.3,8,0.6,12,1c2.6,19.6-13.2,32.3-33.8,26c-0.5-9.3,3.5-15.5,11.8-20.7
		c5.3-3.3,9.3-8.9,13.1-14c1.5-2,1-5.6,1.5-8.8c-16.3-6.5-24.8,5.5-35.1,12.2c-0.4,4.4-0.8,8.7-1.3,13.8c5.2,1,9.2,1.8,13.3,2.6"/>
	<path class="st0" d="M645.4,981.4c6.5,9.5,8.9,9.4,17.3-2.4c-3.1-2-6.1-4-10.1-6.7c-2.8,3.1-5,5.5-7.2,8"/>
	<path class="st0" d="M214.4,681.3c-3.7,0.6-7.3,1.2-10.8,1.8c-3.4,10.3,3.9,24.2,14,27.7c2.3,0.8,4.4,2.1,6.6,3.2"/>
	<path class="st0" d="M239.5,645.3c-6.5-1-13-2-19.3-2.9c-4.3,9.6-0.8,17.4,8.3,23.8c6.4,4.6,11.8,10.7,17.6,16.2"/>
	<path class="st0" d="M1026.3,660.6c1.4-5.3,2.8-10.6,4.9-18.4c-9.8,1.3-16.6,2.2-23.5,3.2"/>
	<path class="st0" d="M347.5,845c11.6,8,23.3,16,34.9,24"/>
	<path class="st0" d="M243.8,733.7c5.1,1.3,10.1,2.5,15,3.7c5.5,6.3,11,12.7,16.6,19.2"/>
	<path class="st0" d="M465.4,792.6c-6.9,1.8-13.8,3.6-20.7,5.5"/>
	<path class="st0" d="M610.5,601.6c-6.5-7.3-13.8-2-20.7-1.1"/>
	<path class="st0" d="M588.7,600.6c-6.8,2.8-13.5,5.5-21.6,8.8c-0.2,0-2.4-0.6-4.6-1.2"/>
	<path class="st0" d="M446.8,781.7c-5.1-1.5-10.2-2.9-16.6-4.8c-3.7,2-8.3,4.5-12.9,6.9"/>
	<path class="st0" d="M592,758.8c0-7.4-6.1-8.4-10.9-8.4c-4.8,0-10.9,1-10.9,8.4"/>
	<path class="st0" d="M884.4,804.6c8,4.7,16.1,9.3,22.6,13.1c5.9,0.9,10.2,1.5,14.5,2.2"/>
	<path class="st0" d="M801.5,798.1c6.5,0.2,13.4-1.4,18.6,4.4"/>
	<path class="st0" d="M696.7,758.8c-9.8-10.3-13.3-10.5-22.9-1.1"/>
	<path class="st0" d="M889.9,851.6c-7.6,4.4-15.3,8.7-22.9,13.1"/>
	<path class="st0" d="M787.3,806.8c-1.2,10.8,2.9,20.2,7.6,29.5"/>
	<path class="st0" d="M679.3,607.1c7.3,0.5,14.6,0.9,20.9,1.3c2.1,5.4,3.7,9.7,5.3,14"/>
	<path class="st0" d="M590.9,647.5c0.3,7.2-2.2,12.5-9.8,14.2"/>
	<path class="st0" d="M801.5,836.3c-1.8,0-3.6,0-6.3,0c7.2,18.4,22.5,27.8,37.9,37.1"/>
	<path class="st0" d="M757.8,618c13.9,12,24.2,26.4,31,44.9c-2.9,1.7-6,3.5-9.2,5.3"/>
	<path class="st0" d="M595.2,638.7c2.5,0,5.1,0,7.6,0"/>
	<path class="st0" d="M511.2,735.9c-3.6,0.5-7.2,1-10.8,1.5c-0.1-1.1-0.1-2.1-0.2-3.2c4.4,0,8.8,0,13.2,0c0-4.2,0-7.8,0-11.5"/>
	<path class="st0" d="M473,729.3c-2.9-0.7-5.8-1.5-8.7-2.2"/>
	<path class="st0" d="M782.9,731.5c3.7-1.7,7.5-3.3,11.2-5c0.8,0.7,1.6,1.4,2.4,2.1c-0.9,4.2-1.8,8.5-2.7,12.7"/>
	<path class="st0" d="M681.5,639.8c-6.2,0.4-12.4,0.7-18.6,1.1c-2.2,0.2-4.4,0.7-6.6,1.1"/>
	<path class="st0" d="M774.2,690c-6.9,0.7-13.8,1.5-20.7,2.2"/>
	<path class="st0" d="M483.9,681.3c6.2,0.7,12.4,1.5,18.6,2.2"/>
	<path class="st0" d="M776.4,681.3c-4.7-0.2-10.3,1.5-12-5.5"/>
	<path class="st0" d="M882.3,831.9c-5.1,0.4-10.2,0.7-15.3,1.1"/>
	<path class="st0" d="M990.3,667.1c1.6,9.5,10.2,5,15.3,7.6"/>
	<path class="st0" d="M602.9,618c1.6-6.3-2.5-10.6-5.5-15.3"/>
	<path class="st0" d="M523.2,606c-5.9-3.9-9.9,1.7-14,3.7c-5.1,2.4-8.9,7.6-13.3,11.6"/>
	<path class="st0" d="M833.1,785c-7.3,0.7-14.5,1.6-21.8,2.2c-6.2,0.5-12.4,0.8-18.6,1.1"/>
	<path class="st0" d="M887.7,827.5c3,2.5,6,4.9,8.6,7c-1.8,5.4-3.1,9-4.7,13.7c-5.4,0-11.2,0-17.1,0"/>
	<path class="st0" d="M693.5,643.1c-1.7,5.7,3.3,12.2-2.2,17.5"/>
	<path class="st0" d="M672.7,864.7c-4,5.8-8,11.6-12,17.5"/>
	<path class="st0" d="M540.7,707.5c5.8-0.5,11.6-0.9,18.2-1.4c1.2,10.7-3.4,13.3-11.6,12.4"/>
	<path class="st0" d="M369.3,810.1c4.7,0.7,9.5,1.5,14.2,2.2"/>
	<path class="st0" d="M793.9,681.3c6.8,10.2-2.6,9-7.6,10.9"/>
	<path class="st0" d="M789.5,666c3.7,6.7,1.7,10.9-5.5,13.1"/>
	<path class="st0" d="M750.2,707.5c-2.9,1.9-5.7,3.8-9,6.1c5.7,9.5,15.3,4.8,23.2,5.9"/>
	<path class="st0" d="M382.4,783.9c0.7,5.5,1.5,10.9,2.2,16.4"/>
	<path class="st0" d="M626.9,620.2c-1.8,2.9-3.6,5.8-5.5,8.7"/>
	<path class="st0" d="M874.6,797c1.3-2.3,2.7-4.5,4-6.8c13.8,7,28,12.7,36.4,26.4"/>
	<path class="st0" d="M683.6,640.9c0,5.1,0,10.2,0,15.3"/>
	<path class="st0" d="M409.7,852.6c1.8,5.8,3.6,11.6,5.5,17.5"/>
	<path class="st0" d="M754.6,652.9c-2.9,1.8-5.8,3.6-9.4,5.9c10.1,7.6,6.1,15.6,0.6,23.6"/>
	<path class="st0" d="M671.6,663.9c-9.6-3.9-11.1-3.2-10.9,5.5"/>
	<path class="st0" d="M501.4,662.8c-2.6,8.8-9.6,7.9-16.4,7.6"/>
	<path class="st0" d="M571.2,659.5c-0.4,6.5-0.7,13.1-1.1,19.6"/>
	<path class="st0" d="M601.8,679.1c-7.3-8.3-15.4,1.9-21.7-2.5c-1.7,3.4-2.5,5.1-3.4,6.8"/>
	<path class="st0" d="M930.3,861.4c-9.1-6.2-19.2-11.3-27-18.9c-6.3-6.2-12.3-4.4-18.9-5.3c0,2.7,0,4.2,0,5.6"/>
	<path class="st0" d="M605.1,680.2c1.1,4.7,2.2,9.5,3.3,14.2"/>
	<path class="st0" d="M527.6,692.2c-4.7,1.5-9.5,2.9-14.2,4.4"/>
	<path class="st0" d="M466.5,675.9c0.4,4.7,0.7,9.5,1.1,14.2"/>
	<path class="st0" d="M776.4,698.8c-1.1,3.3-2.2,6.5-3.3,9.8c5.1,0,10.2,0,15.3,0"/>
	<path class="st0" d="M637.8,608.2c0,4,0,8,0,13.7c-3,2.8-7,6.6-10.9,10.3"/>
	<path class="st0" d="M788.4,746.8c1.7,0.4,3.4,0.9,5.1,1.3c0.4-1,0.8-2.1,1.3-3.1c-3.6-1.6-7.1-3.2-10.7-4.7"/>
	<path class="st0" d="M608.3,607.1c0,4.7,0,9.5,0,14.2"/>
	<path class="st0" d="M856.1,874.5c8.8,5.5,17.6,11.1,26.4,16.6c-0.6,1-1.1,2.1-1.7,3.1c-17.7-1.8-31.9-12.8-48.9-18.8
		c3.8-3.1,6.4-5.3,9.5-7.8c0.2,1.4,0.4,2.5,0.6,3.7"/>
	<path class="st0" d="M578.9,598.4c-8,0-16,0-24,0"/>
	<path class="st0" d="M453.4,787.2c4,0,8,0,12,0"/>
	<path class="st0" d="M562.5,720.6c-4.2,1.8-8,5.9-13.1,2.2"/>
	<path class="st0" d="M247.1,684.6c1.5,11.1-7.3,8.4-13.1,9.8"/>
	<path class="st0" d="M916.1,854.8c-6.2-1.1-12.4-2.2-18.6-3.3"/>
	<path class="st0" d="M431.5,836.3c-1.6,5,4,12.2-4.4,15.3"/>
	<path class="st0" d="M536.3,728.2c-5.8,6-13.3,5.6-20.7,5.5"/>
	<path class="st0" d="M631.3,667.1c3.3,5.7,6.5,4,9.8,0"/>
	<path class="st0" d="M541.8,694.4c-4.1,1.6-8.1,3.3-13.1,5.3c0,5.2,0,10.3,0,15.5"/>
	<path class="st0" d="M761.1,698.8c0.7,4,1.5,8,2.2,12"/>
	<path class="st0" d="M371.5,839.6c-4.4,0.4-8.7,0.7-13.1,1.1"/>
	<path class="st0" d="M395.5,780.6c-9.5-1.2-17.7,0.9-22.9,9.8"/>
	<path class="st0" d="M748,650.8c0.8-1.7,1.7-3.4,3.2-6.5c2.6,0,7.3,0,12,0"/>
	<path class="st0" d="M523.2,623.5c1,3.7,2,7.3,3.7,13.2c5.8-2.4,11.1-4.6,18.5-7.8c-1.8,0-1.1,0-0.4,0c0,0.4-0.2,0.9,0,1.1
		c1.4,1.1,2.9,2.2,4.3,3.3"/>
	<path class="st0" d="M716.4,718.4c-1.1,2.5-2.2,5.1-3.3,7.6"/>
	<path class="st0" d="M619.2,634.4c3.2,2.1,6.4,4.3,10.5,7.1c-3.3,2.7-5.3,4.4-6.1,5.1c0,9.3,0,17.6,0,26"/>
	<path class="st0" d="M602.9,666c0.4,4,0.7,8,1.1,12"/>
	<path class="st0" d="M642.2,650.8c-0.8,4.4-1.6,8.8-2.6,14c4.6,2,10.1,4.3,15.6,6.7"/>
	<path class="st0" d="M612.7,663.9c-1.1,4-2.2,8-3.3,12"/>
	<path class="st0" d="M464.3,744.6c-1.1,0.1-2.2,0.2-3.3,0.3"/>
	<path class="st0" d="M725.1,609.3c-4-0.4-8-0.7-12-1.1"/>
	<path class="st0" d="M254.7,672.6c-4,0.7-8,1.5-12,2.2"/>
	<path class="st0" d="M709.8,613.6c0,2.5,0,5.1,0,7.6"/>
	<path class="st0" d="M736,654c1.1-2.5,2.2-5.1,3.3-7.6"/>
	<path class="st0" d="M455.5,821c-0.7,4-1.5,8-2.2,12"/>
	<path class="st0" d="M499.2,624.6c-4.5-5.8-7.1,0-8.6,2.3c-7,11-13.4,22.4-19.7,33.8c-1.1,2-0.2,5-0.2,7.6"/>
	<path class="st0" d="M625.8,639.8c-5.5,4.7-10.9,9.5-16.4,14.2"/>
	<path class="st0" d="M709.8,628.9c1.1-1.1,2.2-2.2,4-4c-2.6-1.1-4.8-2.1-7.6-3.3c-0.7,4.7-1.3,8.7-1.9,12.8"/>
	<path class="st0" d="M540.7,632.2c1.5,3.6,2.9,7.3,4.4,10.9"/>
	<path class="st0" d="M415.2,850.5c3.9,1.6,5.9,4.2,5.6,8.7c-0.1,2.5,1.3,5.1,2,7.6"/>
	<path class="st0" d="M765.5,628.9c-0.7,2.5-1.5,5.1-2.2,7.6"/>
	<path class="st0" d="M763.3,637.7c0,0.4,0,0.7,0,1.1c0,0.4,0,0.7,0,1.1c-5.5-4.7-10.9-9.5-16.4-14.2"/>
	<path class="st0" d="M758.9,657.3c-7.3,8.5,5.7,10.2,5.5,15.9c-2,2.5-3.7,4.8-5.5,7"/>
	<path class="st0" d="M363.9,793.7c-0.4-1.1-0.7-2.2-1.1-3.3c3.7,0,7.3,0,11,0c0.2,1.2,0.4,2.4,0.6,3.5c-6.8,2.8-13.5,5.6-20.3,8.5"
		/>
	<path class="st0" d="M781.9,751.2c2.3,0.9,4.6,1.8,7,2.7"/>
	<path class="st0" d="M680.4,659.5c-2.9,2-5.8,4-8.7,6c0.4,0.6,0.7,1.2,1.1,1.8c-3.7,1-7.3,2.1-11,3.1"/>
	<path class="st0" d="M473,806.8c-2.9,5.5-5.8,10.9-8.7,16.4"/>
	<path class="st0" d="M678.2,644.2c-0.7,4.4-1.5,8.7-2.2,13.1"/>
	<path class="st0" d="M256.9,667.1c-1.2,6.1-1,12.8-7.6,16.4"/>
	<path class="st0" d="M732.7,684.6c-2.2,3.5-4.4,7-6.6,10.6c-1.1,0.5-2.1,1-3.2,1.4c-1.1-2.2-2.2-4.4-3.3-6.5"/>
	<path class="st0" d="M569,611.5c0,3.3,0,6.6,0,9.9c-0.7,0.3-1.5,0.5-2.2,0.8c-2.2-2.8-4.3-5.7-6.5-8.5"/>
	<path class="st0" d="M599.6,683.5c0,3.7,0,7.3,0,13.7c-5.4-2-9.3-3.5-13.1-4.9"/>
	<path class="st0" d="M608.3,679.1c3.6,0,7.3,0,10.9,0"/>
	<path class="st0" d="M730.6,611.5c-0.2-1.8-0.4-3.6-0.8-5.3"/>
	<path class="st0" d="M748,611.5c-2.4-2.9-5-5.9-8.5-7.7"/>
	<path class="st0" d="M547.2,614.7c1.5,5.5,2.9,10.9,4.4,16.4"/>
	<path class="st0" d="M853.9,786.1c0.4,3.3,0.7,6.5,1.1,9.8"/>
	<path class="st0" d="M664,687.9c5.3,6.2,9.7,13.8,19.6,13.1"/>
	<path class="st0" d="M608.3,632.2c-2.3,4.3-4.7,8.6-8.1,14.9c-3.6-1.1-8.1-2.5-12.6-3.9"/>
	<path class="st0" d="M479.6,709.7c3.4,6.5,9.5,5.5,15.3,5.5"/>
	<path class="st0" d="M466.5,828.6c-15.1,19.7-33,35.9-56.8,44.7c-1.6,0.6-3.6,0.1-5.4,0.1"/>
	<path class="st0" d="M724,704.2c5.5,3.6,11,7.2,19.2,12.5c-3.7,2.3-6.5,4.2-9.4,6"/>
	<path class="st0" d="M649.8,616.9c-2.2,3.3-3.8,7.1-6.7,9.7c-2.8,2.5-6.8,3.7-10.3,5.4c-0.5,1.1-0.9,2.2-1.4,3.3
		c1.8,0.8,3.5,1.6,5.3,2.3"/>
	<path class="st0" d="M863.7,861.4c1.1,1.4,2.3,2.8,4.4,5.5c-8.6,1.2-16.3,2.2-24.1,3.2"/>
	<path class="st0" d="M742.6,694.4c-3.7,2.1-7.3,4.3-12.2,7.1c-1.3-1.8-2.7-3.9-4.2-6"/>
	<path class="st0" d="M613.8,633.3c3.3,4.4-6.5,8.7,0,13.1"/>
	<path class="st0" d="M883.3,838.5c-2.7,0.9-5.5,1.8-7.6,2.5c-3.2,4.1-6.5,8.4-9.8,12.7"/>
	<path class="st0" d="M985.9,695.5c-2.2,3.3-4.4,6.5-6.5,9.8"/>
	<path class="st0" d="M598.5,666c-0.4,2.9-0.7,5.8-1.1,8.7"/>
	<path class="st0" d="M432.6,860.3c0.1-9.3-7.1-4-10.9-5.5"/>
	<path class="st0" d="M754.6,620.2c1.4-7.1-0.7-8.4-10.9-6.5"/>
	<path class="st0" d="M370.4,815.5c-8.7,8.4-17.5,16.7-26.2,25.1"/>
	<path class="st0" d="M717.5,714.1c5.1,1.5,10.2,2.9,15.3,4.4"/>
	<path class="st0" d="M463.2,801.4c-4,2.2-8,4.4-12,6.5"/>
	<path class="st0" d="M357.3,799.2c-10.3-6.1-11.8,4.2-17.8,8.7c8.3,0,15.2,0,22.1,0"/>
	<path class="st0" d="M800.4,815.5c-0.4,2.9-0.7,5.8-1.1,8.7"/>
	<path class="st0" d="M339.9,841.7c-4,2.9-8,5.8-12,8.7"/>
	<path class="st0" d="M658.5,648.6c2.5,1.1,5.1,3.1,7.6,3.1c7.2,0.1,5.6,6.3,7.6,10"/>
	<path class="st0" d="M796,691.1c0,2.9,0,5.8,0,8.7"/>
	<path class="st0" d="M635.6,648.6c-2.9,0.7-5.8,1.5-8.7,2.2"/>
	<path class="st0" d="M538.5,697.7c6.1,5.9-1.1,10.9-1.1,16.4"/>
	<path class="st0" d="M849.5,783.9c-6.4,1.7-15.4-4.2-18.6,6.5"/>
	<path class="st0" d="M737.1,657.3c2.9,0,5.8,0,9,0c3.7-10.7-4.1-11.6-11.2-13.1"/>
	<path class="st0" d="M752.4,733.7c0,3.3,0,6.6,0,10.8c5.6,1.2,10.4,2.3,15.3,3.4"/>
	<path class="st0" d="M798.2,826.5c0.4,2.5,0.7,5.1,1.1,7.6"/>
	<path class="st0" d="M570.1,716.2c-2.2,0.7-4.4,1.5-6.5,2.2"/>
	<path class="st0" d="M778.6,696.6c-3.6,0.7-7.3,1.5-10.9,2.2"/>
	<path class="st0" d="M616,687.9c-14.3,12.7-29.1,24.6-49.1,27.4c-1.2,0.2-2.2,2.1-3.3,3.2"/>
	<path class="st0" d="M669.4,692.2c1.8-0.8,3.5-1.6,4.4-1.9c-8.2-5.2-14.6-9.3-22.5-14.4c4.3-3.5,6.4-5,8.4-6.6"/>
	<path class="st0" d="M595.2,687.9c-0.9,1.2-1.8,2.5-2.5,3.6c-1.9-0.6-3-1-4.1-1.4"/>
	<path class="st0" d="M893.2,847.2c2.5,0,5.1,0,7.6,0"/>
	<path class="st0" d="M706.6,694.4c1.4-1.1,2.8-2.3,4.9-3.9c2.5,3.2,4.8,6.3,7.1,9.4c-1.1,1.1-2.2,2.2-3.3,3.3"/>
	<path class="st0" d="M578.9,676.9c-4,1.8-8,3.6-12,5.5c-3.7,1.7-7.3,3.6-10.9,5.4"/>
	<path class="st0" d="M580,703.1c0.4,2.5,0.7,5.1,1.1,7.6"/>
	<path class="st0" d="M214.4,710.8c1.5,2.5,2.9,5.1,4.4,7.6"/>
	<path class="st0" d="M746.9,720.6c-7.2,6.5-15.5,5.8-27.3-2.2"/>
	<path class="st0" d="M545,685.7c2.4,1.1,4.7,2.2,8.2,3.8c0.1-1.1,0.3-3,0.5-4.9"/>
	<path class="st0" d="M662.9,642c-2.6,2.2-5.2,4.4-9.5,7.9c0,0.4-0.2,3.3-0.3,6.2"/>
	<path class="st0" d="M831,855.9c-4.4,1.5-8.7,2.9-13.1,4.4"/>
	<path class="st0" d="M391.2,881c0.2-9.4-6.1-1.5-8.7-3.3"/>
	<path class="st0" d="M715.3,613.6c-0.7,2.5-1.5,5.1-2.2,7.6"/>
	<path class="st0" d="M599.6,608.2c-5.1,1.8-10.2,3.6-15.3,5.5"/>
	<path class="st0" d="M512.3,652.9c2.1-3,4.2-5.9,6.3-9c5.7,0.8,11.1,1.7,16.6,2.5"/>
	<path class="st0" d="M390.1,863.6c6.3,3.9,0.1,8.8,1.1,13.1"/>
	<path class="st0" d="M527.6,636.6c-8.4,6.5-4.5,14.2-2.2,21.8"/>
	<path class="st0" d="M764.4,649.7c-4,0-8,0-12,0"/>
	<path class="st0" d="M439.2,840.6c2.2,2.9,4.4,5.8,6.5,8.7"/>
	<path class="st0" d="M667.3,659.5c-1-1.5-2-3-3.4-5.1c-2.7,1.8-5.1,3.5-7.2,5c-1.7-1.2-3.2-2.2-4.7-3.2"/>
	<path class="st0" d="M572.3,681.3c1.8,3.3,3.6,6.5,5.5,9.8"/>
	<path class="st0" d="M698.9,598.4c-5.6-3.7-7.2,1.5-9.8,4.4"/>
	<path class="st0" d="M536.3,690c2.1,0.5,4.3,0.9,6.4,1.4c-0.5,0.6-1,1.1-1.5,1.7c3.8,3.1,7.5,6.2,12.5,10.4c0-4.3,0-6.2,0-8"/>
	<path class="st0" d="M587.6,696.6c-1.5,1.1-2.9,2.2-4,3c2,1.9,4.1,3.8,6.2,5.7"/>
	<path class="st0" d="M457.7,816.6c3.3,0,6.5,0,9.8,0"/>
	<path class="st0" d="M497,657.3c4.4,2.9,8.7,5.8,13.1,8.7"/>
	<path class="st0" d="M729.5,639.8c1.2,3.1-9.5,4.7,1.3,9.3c0.3-3.6,0.6-7,0.9-10.4"/>
	<path class="st0" d="M392.3,859.2c-1.9,4.6-10.5,7.1-4.4,14.2"/>
	<path class="st0" d="M736,726.1c-0.4,3.6-0.7,7.3-1.1,10.9"/>
	<path class="st0" d="M722.9,722.8c0.5,1.9,0.9,3.8,1.8,7.3c1.9-2.7,2.7-3.9,3.6-5.2"/>
	<path class="st0" d="M756.8,681.3c2.5-0.5,5.1-0.9,7.4-1.4c2.4,3.2,4.6,6.1,6.8,9"/>
	<path class="st0" d="M361.7,802.4c0.9,2.8,1.9,5.5,2.8,8.3c1.2-0.7,2.4-1.4,3.6-2.1c-1.4-1.7-2.8-3.4-4.3-5.1"/>
	<path class="st0" d="M410.8,458.7c-0.5,3.5-9.7,0.8-5.5,7.6"/>
	<path class="st0" d="M389,882.1c-4.4,0.7-8.7,1.5-13.1,2.2"/>
	<path class="st0" d="M643.3,620.2c-0.7,1.5-1.5,2.9-2.1,4.2c1.5,2.3,2.9,4.5,4.3,6.8"/>
	<path class="st0" d="M892.1,812.3c-1.2,3.1-2.4,6.3-3.6,9.4c-1-0.5-2.1-0.9-3.1-1.4c1.2-1.9,2.3-3.9,3.5-5.8"/>
	<path class="st0" d="M383.5,872.3c-0.4,3.6-0.7,7.3-1.1,10.9"/>
	<path class="st0" d="M363.9,826.5c1.8,3.3,3.6,6.5,5.5,9.8"/>
	<path class="st0" d="M446.8,829.7c4,2.2,8,4.5,12,6.7c0.5-0.9,1-1.7,1.4-2.6c-0.8-1-1.7-2-2.5-3"/>
	<path class="st0" d="M377,835.2c-3.3-1.3-3-10.9-9.8-4.4"/>
	<path class="st0" d="M378.1,830.8c-6.3,2.7-6.3,2.7-5.4,9.3c4.3-3.5,8.9-6.2,8.7-12.6"/>
	<path class="st0" d="M734.9,618c-1.5,2.9-2.9,5.8-4.4,8.7"/>
	<path class="st0" d="M745.8,638.7c-3.1-1.6-1.9-9.9-8.7-5.5"/>
	<path class="st0" d="M803.7,827.5c0.4,1.5,0.7,2.9,1.1,4.4"/>
	<path class="st0" d="M727.3,626.7c-3.6,1.8-7.3,3.6-10.9,5.5"/>
	<path class="st0" d="M905.2,847.2c-1.6-1.2-3.2-2.5-5.2-4c-0.6,0.3-2.1,1.1-3.5,1.8"/>
	<path class="st0" d="M540.7,681.3c2.5,4,5.1,8,7.6,12"/>
	<path class="st0" d="M886.6,822.1c-1,3.3-2,6.6-3.7,12.3c3.1-1.1,5-1.8,7-2.4"/>
	<path class="st0" d="M559.2,694.4c-3-0.8-6-1.7-9.8-2.8c0,2,0,4.6,0,7.1"/>
	<path class="st0" d="M525.4,609.3c-3.4-0.8,3.8-10.5-5.5-6.5"/>
	<path class="st0" d="M748,666c0,1.5,0,2.9,0,4.4"/>
	<path class="st0" d="M809.1,847.2c2.2,5.2,4.4,5.2,6.5,0"/>
	<path class="st0" d="M664,684.6c0.7-1.1,1.3-2.3,3-5.1c-3.5-0.5-6.5-1-9.5-1.5"/>
	<path class="st0" d="M695.6,705.3c-0.7,2.5-1.5,5.1-2.2,7.6"/>
	<path class="st0" d="M816.8,852.6c0.7,0.7,1.5,1.5,2.2,2.2"/>
	<path class="st0" d="M562.5,676.9c-1.1,0.4-2.2,0.7-3.3,1.1"/>
	<path class="st0" d="M593.1,661.7c-1.1-0.7-2.2-1.5-3.3-2.2"/>
	<path class="st0" d="M385.7,830.8c-0.8,1-1.7,2-2.4,2.9c0.9,1.8,1.7,3.3,2.4,4.7"/>
	<path class="st0" d="M807,812.3c-2,3.1-1.9,5.5,2.2,6.5"/>
	<path class="st0" d="M798.2,807.9c3.4,3.3,5.2,7.2,4.4,12"/>
	<path class="st0" d="M357.3,836.3c0.4,1.5,0.7,2.9,1.1,4.4"/>
	<path class="st0" d="M594.1,699.9c-1.1,0.4-2.2,0.7-3.3,1.1"/>
	<path class="st0" d="M835.3,866.8c2.9,2.9,5.8,5.8,8.7,8.7"/>
	<path class="st0" d="M612.7,683.5c1.1,1.1,2.2,2.2,3.8,3.8c4.6-2.9,9.2-5.9,14.3-9.1c-3-2.2-5.5-4-8.6-6.3c-1.1,2.7-2,5-2.9,7.2"/>
	<path class="st0" d="M718.6,621.3c1.1,0.7,2.2,1.5,3.3,2.2"/>
	<path class="st0" d="M449,786.1c0.7,0.7,1.5,1.5,2.2,2.2"/>
	<path class="st0" d="M644.3,924.7c-5.6,2.8-8.3,6.8-4.8,15.5c3.9-0.6,8.2-1.2,12.4-1.8c3.2-7.7-0.4-11.3-6.5-13.7"/>
</g>
<text transform="matrix(1 0 0 1 564.6055 486.5986)" class="st2 st3 st4">Fang</text>
<path class="st2" d="M730.8,486.6c-0.3-2.4-1.9-3.5-3.7-3.6c0-0.8,0-1.6-0.1-2.4c-0.1-1.5-0.7-2.6-1.5-3.4
	c-0.5-10.4-1.1-20.7-1.6-31.1c-0.3-6.4-10.3-6.4-10,0c0,0.6,0.1,1.2,0.1,1.8c-1.3-0.7-2.8-0.8-4.1-0.4c-3.6-1.4-7.5-2-11.3-2.2
	c-8.9-0.6-18-0.3-26.9-0.2c-15.1,0.1-30.2,0.4-45.3,0.9c-0.2-2.3-1.8-4.4-4.8-4.3c-22.2,1.3-44.4,2.6-66.5,4
	c-3.5,0.2-6.5,4.2-4.3,7.5c1.3,2,2.8,3.7,4.5,5c0.3,3.5,1.9,6.6,4.3,9c-2.9,2.3-3.3,6.4-2.4,9.8c0.5,1.8,1.5,3.5,2.7,4.9
	c0.7,0.7,1.9,1.6,2.8,2.5c0.3,2.1,1.2,4.3,2.9,6.3c0.5,0.6,1,1,1.6,1.2c-0.1,0.2-0.2,0.4-0.3,0.5c-7.2,14.8,19.4,13.5,26.8,13
	c6.6-0.4,13.1-1.5,19.5-3.2c0.8,0.7,1.8,1.2,3.1,1.2c24.4,0.4,48.7,0.3,73.1-0.2c-1.5,0.7-2.6,2.1-2.5,4.3c0,1,0.1,2,0.2,3
	c-0.7,0.5-1.2,1.3-1.6,2.3c-1.8,5.1-5,9.2-9.1,12.7c-2.7,2.3-1.3,6.1,1,7.9c6.3,4.8,13.6,8.3,21.4,9.9c6.1,1.2,14.4,2.4,20.5-0.4
	c1.4,0.7,2.9,1.1,4.7,1.3c1.9,0.2,3.8-1.3,4.6-3.1c2.3-0.2,4.4-1.8,4.6-4.8C734,519.7,733.2,503.2,730.8,486.6z M603.7,457.9
	c-1.1-0.2-2.2-0.5-3.3-0.7c4.8-0.3,9.6-0.5,14.5-0.7C611.1,456.8,607.4,457.3,603.7,457.9z M660.3,456.2c-7.3-0.2-14.5-0.5-21.8-0.6
	c7.1-0.2,14.2-0.3,21.2-0.4c0.2,0,0.4,0,0.6,0C660.3,455.5,660.3,455.9,660.3,456.2z M700.4,455.4c-1.3,0.1-2.7,0.3-4,0.4
	c-0.1-0.3-0.3-0.5-0.5-0.8C697.4,455.1,698.9,455.2,700.4,455.4z M687.6,467.7c-0.6-0.5-1.2-1-1.9-1.5c0.9,0,1.9-0.1,2.8-0.1
	C688.2,466.6,687.9,467.2,687.6,467.7z"/>
<text transform="matrix(1 0 0 1 557.0327 477.0283)" class="st3 st5">FANG</text>
<path d="M908.3,805.1c0.1-2.2-1.1-4.6-3.4-5.5c-4.6-1.7-9.3-3.3-13.9-4.8c-8.8-4.9-17.9-9.5-27.3-13.1c-7.8-2.9-16.2-5.4-24.6-4.7
	c-3.9,0.3-7.5,1.4-11.2,2.9c-2.4,1-5.1,2.5-7.9,3c-0.8,0-1.7,0-2.5-0.1c-0.2-2-1.9-3.9-3.7-4.5c-5.1-1.5-9.5-0.5-12.9,2
	c-0.8-5.8-1.8-11.7-2.5-17.5c-0.4,0.1-0.8,0.1-1.2,0.1c-6.4,0-6.4-10,0-10c0.1,0,0.3,0,0.4,0c-0.5-14.1,0.4-28.2,0.2-42.2
	c-1.2-10.7-1.1-21.6-1.1-32.3c0-0.7,0.1-1.3,0.3-1.9c-0.9-1.7-1.8-3.4-2.8-5.1c-0.1-0.2-0.2-0.4-0.3-0.5c-0.1-0.1-0.2-0.3-0.2-0.4
	c-1.1-2-2.2-3.9-3.4-5.9c-1.8-5.4-3.8-10.7-6.6-15.6c-4.2-7.4-10.2-13.1-17.1-17.9c-2.4-4.2-5.4-8.1-8.8-11.3
	c-2.7-2.6-5.6-4.9-8.7-7.1c-3.1-3-6.8-5.5-11-7.3c0,0,0,0,0,0c0,0,0,0,0,0c-0.4-0.2-0.8-0.4-1.2-0.5c-3.6-1.4-6.1,1.7-6.1,4.9
	c-0.9-0.5-1.9-1.1-2.8-1.6c-3.4-2-6.6,0.4-7.3,3.4c-0.3-1.1-1-2.1-2.4-2.8c-29.6-14.7-62.5-19.3-95.2-19.7
	c-11.5-0.1-23,0.2-34.5,0.8c-0.9-0.4-2-0.6-3.1-0.3c-1,0.2-2,0.4-3,0.6c-2.9,0.2-5.8,0.3-8.7,0.5c-12.3,0.7-26.1,0.9-36.3,8.3
	c-1-0.5-2.1-0.6-3.5-0.1c-8.6,3.5-16.7,8-24,13.4c-0.7-0.5-1.6-0.7-2.6-0.7c-15.8,0-26,13.7-29.7,27.7c-1.4,5.1-1.8,10.2-1.8,15.4
	c-1.5,3.3-2.8,6.6-3.9,10.1c-0.4,1.2-0.4,2.2,0,3.1c-2.7-0.1-5.5,1.9-5.5,5c0,2.9,0.2,5.7,0.6,8.5c-0.2,0.4-0.3,0.8-0.4,1.3
	c-3.3,20.2-4.8,40.5-4.5,60.9c-0.1,1.8-0.1,3.5,0,5.3c3.1,1.6,3.3,6.3,0.8,8.4c0.2,0.4,0.4,0.8,0.7,1.1c-0.5,2.5-0.9,4.9-1.4,7.4
	c-0.2,0.4-0.5,0.9-0.6,1.5c-1.5,5.8-2.6,11.6-3.4,17.5c-0.1,0-0.2,0-0.4,0c-0.5-0.3-1-0.6-1.6-0.8c-1.4-0.3-2.7-0.6-4.1-0.9
	c-0.3-1-1.1-1.8-2.2-2.4c-22.9-10.2-48.1-6.8-71.2,1c-3.7,1.2-4.6,5.6-2.3,8.2c-0.4,0.1-0.8,0.3-1.1,0.4c-1.3,0.5-2.4,1.6-3,2.9
	c-7.8,1.4-15.5,3.1-23.1,5.3c-6.2,1.8-3.6,11.4,2.7,9.6c2.1-0.6,4.2-1.2,6.4-1.7c0.8,1.2,2.1,2.1,4.1,2.1c1.9,0,3.8,0.1,5.7,0.1
	c2.3,0.3,4.5,0.9,6.7,1.8c-2.3,4.5-5.4,8.4-9.1,11.8c-1.5,1-2.9,2.2-4.2,3.4c-3,2.1-6.2,4-9.6,5.4c-3,1.3-3,4.4-1.5,6.7
	c-3.6,0.9-4.3,5.8-1.9,8.3c10,10.3,23.1,16.9,37.1,19.2c0.1,0.4,0.2,0.8,0.3,1.3c1.5,5.3,6.5,9.1,12.1,7.8c2.5-0.6,4.5-1.9,6-3.6
	c1.4,1.7,3.8,2.6,6.3,1.6c9.3-3.9,17.5-9.8,24.3-17.1c0.8-0.6,1.6-1.2,2.4-1.8c-0.6,5.4,8.1,7.4,9.9,1.6c1-3.4,4.4-4.9,4.7-8.9
	c0.1-1.4-0.1-2.8-0.5-4.1c6.5-2.5,12.6-5.4,15.1-13.1c1.2-3.7,1.1-8-0.5-11.4c0.9-0.8,1.7-1.5,2.5-2.3c4.4-4.4,6.4-10,2.5-15.2
	c6.7-17,14.3-34,18.3-51.8c3,1.6,7.7,0.3,7.5-4.1c-0.1-1.1-0.1-2.2-0.2-3.2c1.7,0.8,3.7,0.7,5.4-1c2.2-2.1,4.4-4.3,6.6-6.4
	c4.4,0.7,8.8,1,13.3,0.8c1.7-0.1,2.9-0.8,3.7-1.8c0.4,0,0.9,0,1.3-0.2c10.2-2.9,19.7-7.2,28.7-12.5c1.4,2,4.1,3.1,6.4,1.4
	c3.7-2.8,7.4-5.7,11.1-8.5c5.1-3.3,10.6-6.1,16.3-8.3c0.9-0.3,1.6-0.9,2.2-1.6c2.9-1.2,5.7-2.4,8.6-3.7c0.8-0.4,1.4-0.8,1.9-1.4
	c2.1,2.2,6.1,2.8,8-0.6c0.6-1,1.2-2.1,1.9-3.1c2.5-2.2,4.9-4.5,7.3-6.9c1.6,0.6,3.5,0.5,5.1-1c5.8-5.2,11.5-10.3,17.3-15.5
	c0.2,0.2,0.5,0.5,0.7,0.6c1.7,1.2,3.4,2.4,5.1,3.6c4.3,10.8,13.3,19.7,24.6,23.7c1.1,0.4,2.2,0.2,3.2-0.2c0.7,0.9,1.5,1.7,2.3,2.6
	c0,1.2,0.4,2.3,1.4,3.1c31,27.2,68.6,46.3,109,54.8c0.2,0.1,0.5,0.1,0.8,0.1c0.6,7,1.6,13.9,2.7,20.9c0.1,0.9,0.3,1.8,0.4,2.6
	c-0.7,0.6-1.3,1.4-1.6,2.5c-2.9,10.8-5.9,21.6-8.8,32.4c-1.2,4.2,3,6.8,6.2,6.1c5.1,17.8,17.8,32.3,31.1,44.9
	c14.4,13.7,31.9,30.3,53.5,26.1c3.4-0.7,4.9-5.6,2.5-8.1c0.7-1,0.9-2.3,0.3-3.7c-1.2-3-2.6-5.9-4.1-8.7c3-1.4,4.8-5.4,1.6-7.9
	c-5.3-4.2-10.7-8.4-16.2-12.4c-1.3-1.3-2.5-2.6-3.9-3.9c5.3,2.9,10.6,5.6,16,8.2c4,1.9,10.1-2.4,6.8-6.8c-0.8-1-1.6-2.1-2.3-3.1
	c0,0,0,0,0.1,0c5.8,2.7,11.6,5.5,17.4,8.2c3.1,1.5,7.4-0.8,7.7-3.9c0.4,0.4,0.9,0.7,1.3,1c4.9,4.1,12-3,7.1-7.1
	c-4.7-3.9-9.4-7.8-14.1-11.6c0.9-1.9,1.5-4,1.6-6.3c1.4,1,2.9,2,4.4,3c3.6,2.4,8.7-1.6,7.3-5.6c-1.2-3.8-4-10.5-7.8-15.6
	c1.9,0.9,3.9,1.8,5.8,2.9C908.3,816.5,913.1,808.6,908.3,805.1z M367.4,847.5c-0.7-0.1-1.3,0-1.8,0.2c-0.8-0.5-1.6-1-2.4-1.6
	c1.6-0.2,3.2-0.3,4.8-0.5c0.6,0.7,1.2,1.4,1.7,2.1C368.9,847.6,368.1,847.6,367.4,847.5z M404.7,821.8c0-0.3,0-0.6,0-0.9
	c0.3,0,0.6,0,0.9-0.1C405.2,821.1,405,821.4,404.7,821.8z M404.6,785.7c1-0.2,2-0.3,3-0.4c0,0.2,0,0.3,0,0.5
	C406.6,785.7,405.6,785.7,404.6,785.7z M429.2,829.6c0,0-0.1,0-0.1,0.1c0-0.3,0-0.7,0-1c0.1-0.1,0.3-0.2,0.4-0.4
	C429.4,828.7,429.3,829.2,429.2,829.6z M500,654.9c0.5-1.9,1-3.8,1.6-5.7c0.3-0.4,0.7-0.8,1-1.1C501.7,650.3,500.8,652.5,500,654.9z
	 M519.3,722.8c-0.7,0.6-1.1,1.2-1.3,1.9c-0.3,0-0.5,0-0.8,0c1.6-1.6,3.2-3.1,4.8-4.7c4.8-4.1,9.7-8.1,14.7-12.1c0.1,0,0.1,0,0.2,0
	C531,713,525.2,717.9,519.3,722.8z M553.2,626.5c0.5-0.3,1-0.5,1.5-0.8c-0.3,0.3-0.6,0.5-0.8,0.8
	C553.7,626.5,553.5,626.5,553.2,626.5z M556.1,706.4c-0.5-0.4-1-0.7-1.6-0.8c0.8-0.7,1.6-1.4,2.4-2.1c-0.2,0.8-0.2,1.7,0,2.5
	C556.6,706.1,556.3,706.3,556.1,706.4z M598.5,599.7c0.5,0,1,0,1.4,0c-1,0.4-1.9,0.8-2.8,1.2c-0.2,0.1-0.4,0.2-0.6,0.4
	c-0.1,0-0.3,0-0.4-0.1C597.2,600.9,598,600.3,598.5,599.7z M604.3,620.3c-0.8-0.2-1.6-0.2-2.6-0.1c-2.5,0.5-5.1,1-7.6,1.6
	c4.4-1.6,8.8-3.2,13.2-4.7C606.2,618.2,605.3,619.3,604.3,620.3z M614.7,616.2c-0.2-0.2-0.4-0.3-0.5-0.5c0.3-0.1,0.7-0.1,1-0.2
	C615,615.8,614.9,616,614.7,616.2z M629.9,652.6c0,0-0.1,0-0.1,0c0.8-0.9,1.7-1.7,2.5-2.6c0.2,0,0.3,0.1,0.5,0.1
	C631.8,651,630.8,651.8,629.9,652.6z M640.9,641.6c0.4-0.4,0.8-0.7,1.2-1.1c0.1,0.5,0.3,1,0.5,1.4
	C642.1,641.8,641.5,641.7,640.9,641.6z M647.1,613.3c0.3-0.3,0.5-0.7,0.7-1c1,0.1,2,0.2,3,0.3C649.5,612.8,648.3,613.1,647.1,613.3z
	 M663.4,615c-0.7-0.1-1.4-0.1-2.1-0.1c-0.7-0.6-1.5-1.1-2.5-1.4c1.6,0.2,3.2,0.4,4.8,0.7C663.6,614.5,663.5,614.7,663.4,615z
	 M666.2,672.5c2.3,0.1,4.7,0.2,7,0.3c0.5,0.9,1.1,1.8,1.6,2.6C672,674.4,669.2,673.4,666.2,672.5z M669.4,640.7l1.1,0
	c1.4,1.5,3,2.8,4.8,3.8C673,644.6,670.8,642.9,669.4,640.7z M704.1,624.8c-1.4-0.1-2.7-0.1-3.8,0.1c-0.6,0.1-1.3,0.2-1.9,0.4
	c-1-0.6-2-1.2-3.1-1.8C698.3,623.9,701.2,624.3,704.1,624.8L704.1,624.8z M738,649.3c-1.6-2.9-3.1-5.8-4.4-8.8
	c1.6,1.6,3.1,3.2,4.6,4.9C738,646.7,738,648,738,649.3z M758.3,640.9c0.5-0.4,0.9-0.9,1.3-1.5c0.5,1.2,0.9,2.4,1.2,3.5
	C759.9,642.3,759.1,641.6,758.3,640.9z M770.9,729.7c0.1-0.1,0.1-0.3,0.2-0.4c0.4,1.3,0.7,2.7,1.1,4
	C771.8,732.1,771.3,730.9,770.9,729.7z M804.6,790.5c-0.3,1.3-0.7,2.6-0.9,3.9c-0.4,0.9-0.6,1.9-0.5,3c-0.1,0.6-0.2,1.1-0.3,1.7
	c-0.2-0.9-0.3-1.7-0.3-2.6C802.6,794.4,803.3,792.2,804.6,790.5z M803.6,837c-3.7-5.9-6.5-12.3-8.1-19.2c1.2-0.3,2.2-1,2.8-2.4
	c0-0.1,0.1-0.2,0.1-0.3c0,0,0.1,0.1,0.1,0.1c-0.8,2.4,0,5.6,3.1,6.8c0.6,0.2,1.2,0.5,1.8,0.7c1.3,2.2,2.5,4.5,3.7,6.8
	C804,831.6,803,834.1,803.6,837z M812.1,812.5c0-0.5,0-1.1-0.1-1.6c1.8,1.8,3.8,3.5,5.9,4.9c0.2,0.6,0.4,1.2,0.8,1.7
	C816.5,815.8,814.3,814.1,812.1,812.5z M815.5,852.3c1.4,1.2,2.8,2.3,4.3,3.5c0.4,0.7,0.8,1.4,1.2,2.2
	C819.1,856.1,817.3,854.2,815.5,852.3z M854.9,868.8c1.3,1.8,2.6,3.7,3.8,5.6c-1.8-0.8-3.6-1.6-5.3-2.3
	C854.3,871.2,854.9,870,854.9,868.8z M863,833.3c-0.2-0.1-0.4-0.3-0.6-0.4c-0.2-0.2-0.4-0.4-0.5-0.5c0.4-0.5,0.8-0.8,1.4-0.9
	c0.2-0.1,0.4-0.1,0.6-0.2c0.2,0.3,0.5,0.6,0.7,0.9C864.1,832.5,863.5,832.9,863,833.3z M876.2,822c-0.3,0.1-0.6,0.2-1,0.3
	c-1.1-0.8-2.2-1.7-3.3-2.5c1.4-2.4,4.1-1.9,5.9,0C877.8,820.7,877.3,821.5,876.2,822z"/>
</svg>
