<?xml version="1.0" encoding="utf-8"?>
<!-- Generator: Adobe Illustrator 21.0.0, SVG Export Plug-In . SVG Version: 6.00 Build 0)  -->
<svg version="1.1" id="Layer_1" xmlns="http://www.w3.org/2000/svg" xmlns:xlink="http://www.w3.org/1999/xlink" x="0px" y="0px"
	 viewBox="0 0 1728 1296" style="enable-background:new 0 0 1728 1296;" xml:space="preserve">
<style type="text/css">
	.st0{fill:#FEFEFE;}
	.st1{fill:#EDEDED;}
	.st2{fill:#608AA8;}
	.st3{fill:#F3BF21;}
	.st4{fill:#EA5546;}
	.st5{fill:#F3F3F4;}
	.st6{fill:#DE2B20;}
	.st7{fill:#282A2B;}
	.st8{fill:#28292A;}
	.st9{fill:#FCFCFC;}
	.st10{fill:#3B3737;}
	.st11{fill:#332F32;}
	.st12{fill:#333033;}
	.st13{fill:#E71B0C;}
	.st14{fill:#E9A67D;}
	.st15{fill:#63453D;}
	.st16{fill:#C8171D;}
	.st17{fill:#E5E7E6;}
	.st18{fill:#5EBDBB;}
	.st19{fill:#FCFCFD;}
	.st20{fill:#F4A41F;}
	.st21{fill:#F4A31F;}
	.st22{fill:#3E3C3A;}
	.st23{fill:#433F3E;}
	.st24{fill:#3D3939;}
	.st25{fill:#3E3B3A;}
	.st26{fill:#454749;}
	.st27{fill:#5EBEBC;}
	.st28{fill:#FDFDFD;}
	.st29{fill:#696C6D;}
	.st30{fill:#342010;}
	.st31{fill:#321E10;}
	.st32{fill:#5D3D37;}
	.st33{fill:#5A3E38;}
	.st34{fill:#C2CAC9;}
	.st35{fill:#C8CACD;}
	.st36{fill:#5FBEBC;}
	.st37{fill:#FDFDFC;}
	.st38{fill:#F3C024;}
	.st39{fill:#EA5647;}
	.st40{fill:#EDEDEE;}
</style>
<g>
	<path class="st0" d="M888.3,503.7c-0.6-0.1-1.2-0.6-1.7-1c-0.9-0.8-1.4-1.8-1.7-3c-0.3-8.6-0.6-17.1-2-25.6
		c0.8-3.6,3.7-3.5,6.3-3.2c3.4,0.4,4.2-1.1,4.4-4.2"/>
	<path class="st0" d="M735,654"/>
	<path class="st1" d="M735,654"/>
	<path class="st0" d="M734.9,456c0-1.7,0.3-2.1,2.1-2.1c6,0.1,12,0.1,18,0.1"/>
	<path class="st1" d="M735,776"/>
	<path class="st2" d="M849.8,758.9c-1.4,2.7-0.7,5.6-0.6,8.3c0,3.1-0.4,5.8-3,7.9c-7.4-1.3-15,0.1-22.4-1c-0.3-0.6-0.6-1.3-0.9-1.9
		c-0.4-0.5-0.7-1.1-1-1.7c-0.4-1.1-0.5-2.3-0.5-3.4c0-23.5-0.2-47,0.1-70.5c-0.1-1.9-0.1-3.9,0-5.8c-0.2-13.5-0.3-27,0.1-40.5
		c0.1-1.4,0.4-2.6,1.4-3.6c2.9-1.7,6.1-1,9.2-1.1c16.6-0.3,33.1-0.2,49.7,0c1.7,0,3.3,0,4.8,1c2.1,2.1,1.7,4.8,1.7,7.4
		c0.2,4.2,0.1,8.3,0,12.5c0.3,33.5,0.1,66.9,0.1,100.4c0,1.8-0.1,3.7-1.5,5.2c-2,0.1-2.1,2-3,3.1c-4.7-0.6-9.4-0.5-14.1-0.6
		c-2.1,0-4.3,0.1-6-1.5c-2.6,0.1-3.2-1.4-3.3-3.7c-0.1-2.4-0.5-4.8-0.7-7.3c-1.7-1.9-1.5-4.3-1.5-6.6c-0.1-25.8-2.2-51.5-2.1-77.2
		c0-3.3-0.7-6.5-1.5-9.8c-1.4,1.9-1.3,4.2-1.2,6.3c0.5,16.6-1.1,33.2-1.3,49.8c-0.1,9.6-0.7,19.2-0.8,28.9
		C851.5,755.3,851.6,757.4,849.8,758.9z"/>
	<path class="st3" d="M887.1,771.9c0-35.3,0-70.7,0-106c3-2.2,6.4-1.2,9.6-1.3c0.9,0,1.8,0,2.7,0c6.7,0.1,13.3-0.1,20,0
		c0.9,0,1.8,0,2.7,0c4.1-0.1,8.1-0.1,12.2,0.1c6.1,0.7,10.5,3.9,13.2,9.4c3.2,6.5,1.7,13.5,2,20.3c0.2,6.5,0.2,13.1,0,19.6
		c0.2,6.6,0.2,13.2,0,19.8c0.1,6.4,0.1,12.9,0,19.3c0,3.5-0.8,6.8-2,10.1c-0.6,1.7-1.4,3.3-3.5,3.8c-3.6,3.5-7.9,5.1-12.9,5.1
		c-2.1,1.5-4.1,1.5-6.2,0c-10.2,0-20.5,0-30.7,0c-2.1,1.4-4.1,1.6-6.2,0C887.7,772,887.4,772,887.1,771.9z"/>
	<path class="st4" d="M767,653.6c2.4-2.5,5.5-3.8,8.9-4.7c5.8-0.7,11.7-0.3,17.5-0.3c1.4,0,2.9-0.1,4.3,0c0.6,0,1.1,0,1.7,0
		c4.6-0.1,9.1,0,13.7,0c0.6,0,1.1,0,1.7,0c1.4,0,2.8,0,4.2,0.1c1.4,0,2.8,0.3,3.8,1.3c0,13.7,0,27.3,0,41c-1.9,1.8-4.3,1.5-6.6,1.5
		c-7.8,0.1-15.6-0.1-23.5,0.1c-7.9,0.1-11,3-12.3,10.8c-0.7,4.3-0.9,8.6-0.9,12.9c0,16.1,0,32.3,0,48.4c0,2.5,0.4,5-1.5,7.1
		c-4.6,0.5-7.7-2.4-11-4.9"/>
	<path class="st5" d="M849.8,758.9c0.4-17.5,0.9-34.9,1.3-52.4c0.3-11.6,0.7-23.3,1.1-34.9c0.1-1.7,0.4-3.3,0.5-4.9
		c0.1-1.5,0.5-2.5,2.3-2.5c2,0,2,1.3,2,2.7c0.2,3.5,0.6,7,0.7,10.5c0.5,17.5,0.6,34.9,1.4,52.4c0.6,10.8,0.8,21.6,0.8,32.4
		c-2.3,0-4.6-0.1-6.9,0.1C850.6,762.3,850,760.9,849.8,758.9z"/>
	<path class="st6" d="M778,771.9c0-20.3-0.1-40.7,0.1-61c0-3.6,0.4-7.3,1.1-10.9c1.1-5.4,5.8-9,11.6-9c10.7-0.1,21.3,0,32,0
		c0,1.7,0,3.3,0,5c-1.9,1.8-4.3,1.5-6.6,1.5c-7,0.1-14,0-21,0.1c-6.7,0.1-10,3-11.3,9.5c-0.2,1-0.3,2-0.3,3
		c-0.1,18,0.1,35.9-0.1,53.9c-0.1,4.6,2.8,5.5,6,6.4c0.6,0.4,0.8,0.9,0.5,1.5c-0.4,0.1-0.9,0.3-1.3,0.4c-2.5,1.5-5,1.5-7.5,0
		C780.1,772.1,779.1,772,778,771.9z"/>
	<path class="st7" d="M823.8,774c7.1-1.9,14.4-0.8,21.6-0.6c0.3,0,0.6,1.1,0.8,1.6c-2.3,6-8.6,8.2-16.1,5.5
		C827.1,779.4,822.9,779.1,823.8,774z"/>
	<path class="st8" d="M864,773c5.7-0.1,11.5-0.1,17.2-0.3c1.7,0,2.9,0.4,2.9,2.3c-2.6,5.4-5.5,6.7-13.2,5.7
		C866.5,780.1,864.3,777.4,864,773z"/>
	<path class="st9" d="M767,767"/>
	<path class="st10" d="M781.2,772.3c2.5,0,5,0,7.5,0c0,1,0,2-0.1,2.9c-0.2,2.4-1.3,4.2-4,4c-2.4-0.1-3.3-1.9-3.4-4
		C781.1,774.3,781.2,773.3,781.2,772.3z"/>
	<path class="st11" d="M888,772.1c2.1,0,4.1,0,6.2,0c0,0.3,0,0.7,0,1c0,2.4,0,5.1-3.3,4.9C887.2,777.6,888.1,774.5,888,772.1z"/>
	<path class="st12" d="M924.9,772.1c2.1,0,4.1,0,6.2,0c0,0.3,0,0.7,0,1c0.1,2.4-0.1,5.1-3.4,4.9C924.1,777.6,925,774.5,924.9,772.1z
		"/>
	<path class="st13" d="M790,771.9c0-0.3,0-0.6,0-0.9c10.9-2.6,21.9-2.6,32.8,0c0,0.4,0.1,0.7,0.1,1.1C811.9,772,801,772,790,771.9z"
		/>
	<path class="st14" d="M885.8,499.9c0.5,0.7,0.9,1.4,1.4,2.1c2.6,5.3,0.5,9.2-3.7,12.5c-2.3,3.4-2.5,8-5.7,10.9
		c-2.8,2.9-5.8,5.5-9.5,7.1c-3.7,1.6-3.9,3.9-2.2,7.2c1,1.9,2.6,3.5,3.4,5.5c0.1,0.5,0.1,1,0,1.5c-4.8,9.9-25.7,9.4-29.9-1
		c0.3-3,3.4-3.9,4.8-6.1c1.8-2.9,2.2-4.9-1.6-6.5c-4.1-1.8-7.7-4.5-10.6-8c-2.9-3.5-3.1-8.3-6.1-11.7c-2.9-2.3-3.7-5.4-3.6-8.9
		c0.1-3.5-0.1-7,0-10.5c0.1-2.2-0.4-4.6,1.8-6.2c2.4,0.8,1.9,3,1.9,4.6c-0.1,4,0.6,7.8,1.9,10.5c0-6.8-0.2-14.6,5-21.1
		c6.4-8,18.9-8.3,25.7-0.8c2,2.3,4.4,4.1,7.2,5.2c2.2,0.8,5.5,3.7,5.5-2.1c0-1.6,1.6-1.4,2.7-0.9c2.6,1.1,4.5,2.9,5.4,5.5
		c1.5,4.4,2.3,9,2.4,13.3c-0.5,0.9,0.2,0.8,0.2,0.6C882.2,500.4,883.7,499.8,885.8,499.9z"/>
	<path class="st15" d="M885.8,499.9c-2.4,0.9-3.2,3.1-4.3,5.6c-2.5-7.8,0.9-17.7-9.2-22.1c-0.9,2.5,1.4,4,1.8,6.6
		c-6.4-0.9-12.3-2.9-16-8c-3.9-5.5-9-5.9-14.5-4.8c-6.1,1.2-10.5,4.9-12.4,11c-1.6,5.4-1.6,11.1-2.1,16.8c-6-4.5-3.3-11-4.1-16.7
		c-2.2-5.2-0.9-9.8,2.1-14.2c1.7-4.7,4.7-8.4,8.2-11.8c8-5.1,16.2-8.4,26.2-6.5c11.1,2.1,18.4,8.3,22.7,18.5
		C886.2,482.6,886.5,491.2,885.8,499.9z"/>
	<path class="st0" d="M762.1,674c0.4,6.7,0.4,13.4-0.1,20"/>
	<path class="st1" d="M954.9,674.2"/>
	<path class="st1" d="M762,694"/>
	<path class="st0" d="M775,650c-2.3,1.3-4.6,2.7-6.9,4"/>
	<path class="st0" d="M774.9,553.7"/>
	<path class="st16" d="M822.8,771c-10.9,0-21.9,0-32.8,0c-8,0-8,0-8-8.3c0-17.3,0-34.6,0-51.8c0-3.5,0.5-6.8,2.5-9.9
		c2.3-3.8,5.5-5.2,9.9-5.1c9.5,0.3,18.9,0.1,28.4,0.1C822.8,721,822.8,746,822.8,771z"/>
	<path class="st17" d="M814.9,649.8l-0.5,0.1l-0.5-0.1c-0.3-0.4-0.8-0.8-0.8-1.2c0.7-6.9-4.5-8-9.4-9.6c-2.5-0.9-3.2-0.2-3.4,2.2
		c-0.2,2.9,0.8,6-1.3,8.6l-0.5,0.1l-0.5,0c-2.5-5.2-2.6-10.4,0.4-15.5c0.4-0.7,1.5-1.2,0.6-2c-4.1-3.8-2.2-8.7-2.6-13.2
		c-0.2-2,0.1-4-0.1-6c-0.5-5.3,0.5-9.8,5.5-12.7c5-1.8,6.7-5.7,7-10.6c0.3-4.9-1.2-6.4-6.1-6.7c-2.9-0.1-6,1-8.5-1.5
		c-1-2.4-1-4.8-0.1-7.3c0.3-0.5,0.7-0.9,1.2-1.2c4-0.5,6.3-2,6.2-6.8c-0.2-11.6,0.9-12.2,12.2-8.8c4.4,1.5,9.1,2.2,13.5,3.7
		c1.1,0.5,2.1,1.3,2.6,2.5c0.6,1.6,0.6,3.2,0.6,4.9c0,23.2,0,46.4,0,69.6c0,1.3-0.1,2.7-0.4,3.9c-0.6,2.4-2.4,2.8-4.5,2.6
		c-1.6-0.2-3.1-0.2-2.7,2.1c-0.1,1-0.1,2-0.2,3c-1.3,0-2.6-0.1-3.9-0.1c-1.7-1.5-0.5-4.1-2-5.8C815.6,645.8,816.9,648.4,814.9,649.8
		z"/>
	<path class="st18" d="M823,647c-2.1-0.2-2.3-1.7-1.7-3.2c0.6-1.5,2-0.9,3-0.5c1.6,0.5,3.1,1,4.8,0.8c2.9-2.5,6.7-2.5,10.1-3.5
		c5.5-1.5,11-3.5,16.8-3.8c6.7,1.2,13.2,3.2,19.7,5c2.1,0.6,4.2,1,6.4,0.8c2.5-0.1,5.1-1.5,7.4,0.6c0.7,2.2,1.1,4.3-2.4,3.9
		C865.7,647,844.3,647,823,647z"/>
	<path class="st19" d="M895,641.1c0,1.7,0.1,3.3,0,5c-0.1,8.8,1.3,7.9-7.8,7.9c-0.1-2.3-0.1-4.6-0.2-7c2.6-0.4,2-2.3,1.9-4
		C890.1,639.8,892.4,640,895,641.1z"/>
	<path class="st20" d="M902,719.7c0,12.1,0,24.3,0,36.4c0,2,0.8,5.2-2.3,5c-2.4-0.1-2.6-3.1-2.6-5.2c-0.1-6.8,0-13.6,0-20.5
		c0-17,0-33.9,0-50.9c0-1.2-0.1-2.3,0-3.5c0.2-1.7,0.4-3.7,2.4-3.8c2.6-0.1,2.5,2.2,2.5,4C902,694.1,902,706.9,902,719.7z"/>
	<path class="st21" d="M917,718.5c0-12.1,0-24.3,0-36.4c0-1.7-0.6-4.4,1.8-4.5c2.7-0.1,3.2,2.4,3.2,4.7c0,24.8,0,49.6,0,74.4
		c0,2.1-0.2,4.7-2.6,4.6c-2.3-0.1-2.4-2.7-2.4-4.8C917,743.8,917,731.1,917,718.5z"/>
	<path class="st20" d="M941,719.4c0,12.5,0,25,0,37.5c0,1.5,0.7,3.7-1.7,4c-2.6,0.3-2.1-2.1-2.5-3.5c-0.4-1.4-0.6-2.9-0.7-4.4
		c0-23.5,0-46.9,0-70.4c0-0.5,0-1,0-1.5c-0.2-2,0.7-3.5,2.6-3.6c2.4-0.2,2.4,1.8,2.4,3.5c0,8.5,0,17,0,25.5
		C941,710.7,941,715,941,719.4z"/>
	<path class="st0" d="M955,674C955,674,955,674,955,674c-2.9,2.1-5.9,1.8-8.8,0c-2.6-4.2-6.2-7.1-11.1-8.2"/>
	<path class="st22" d="M920,665.8c-0.1-3.9-0.1-7.9-0.2-11.8c-2.1-4.3-1.9-8.6-0.2-12.9c0.9-0.7,1.7-0.7,2.7-0.1
		c1.8,4.3,1.9,8.7-0.1,13c-0.1,3.9-0.1,7.8-0.2,11.8C921.3,665.8,920.7,665.8,920,665.8z"/>
	<path class="st23" d="M899.2,665c-0.1,0.2-0.2,0.5-0.2,0.8c-0.6,0-1.3,0-1.9,0c0-8.2,0-16.5,0-24.7c0.9-0.6,1.7-0.6,2.4,0.3
		c1.8,4.1,0.7,8.5,0.9,12.8C900.3,657.7,901.4,661.5,899.2,665z"/>
	<path class="st24" d="M792.6,594.6c0-1.8-0.1-3.7,0.7-5.4c1.5-2.1,3.2-2.4,5.1-0.4c0.8,1.3,1.1,2.9,0.9,4.3
		c-0.4,3.2,1.2,5.3,3.5,7.1c-0.3,1.3,1.1,3.7-1.1,3.6c-4.2-0.1-3.4,2.6-3.4,4.9c0,6.2,0,12.3,0,18.5c0,2.1-0.2,4.2,3,3.8
		c1.2-0.2,1.7,0.6,1.7,1.8c0,1.4-0.3,2.4-1.9,2.2c-3.2-0.4-2.9,1.8-2.9,3.8c0,3.7,0,7.3,0,11c-1.3,0-2.7,0-4,0
		c-0.1-5.3-0.1-10.6-0.2-15.9c-2.5-3.6-1.3-7.6-1.5-11.5c-0.2-2.8-0.1-5.6,0.1-8.3"/>
	<path class="st9" d="M799.1,649.8c0-3.6,0-7.3,0-10.9c0-2.9,1.3-3.5,3.8-2.1c1.1,0.7,2.3,1.3,3.5,1.8c7.7,2.8,7.7,2.8,7.7,11.2
		C809,649.8,804,649.8,799.1,649.8z"/>
	<path class="st25" d="M814.9,649.8c0-2-0.1-4,0-6c0.1-1-0.7-2.7,1.2-2.6c1.5,0,2.9,0.5,2.8,2.6c-0.1,2,0,4,0,6
		C817.6,649.9,816.3,649.8,814.9,649.8z"/>
	<path class="st26" d="M833.1,524.8c4,3.1,7.7,6.9,12.8,8.4c2.3,0.7,2,2,1.3,3.8c-1.3,3.6-4,6-7.1,8.1c-0.6,0.5-1.3,0.6-2,0.5
		c-5.1-3.6-10-4.2-14.4,1.1c-0.5,0.6-1.4,0.9-2.2,1c-0.8,0-1.5-0.3-2-1c-1.3-4.2-1.1-8.3,0.5-12.3c1.7-3.9,4.2-7.1,8.1-9
		C829.6,524.4,831.2,523.6,833.1,524.8z"/>
	<path class="st26" d="M869.1,545c-1.9-0.9-3-2.5-3.9-4.3c-2.9-5.4-2.6-6.3,2.8-9.1c3.4-1.8,6.1-4.3,9-6.7c6.8-0.6,9.6,4.3,12.3,9.1
		c1.1,4.2,2.9,8.3,1.1,12.8c-1.7,1.6-3.4,0.7-5.2,0.1C880.5,541.2,874.8,543,869.1,545z"/>
	<path class="st27" d="M838.1,545.2c0.7-0.1,1.4-0.1,2.1-0.2c7.5,9.8,20.3,10.3,29.3,1.1c4,4.3,4.4,9.5,3.8,14.9
		c-4,1.5-7.3-1.2-11-1.7c-1.8-0.2-3.5-0.9-5.3-1.3c-5.7-0.6-10.7,2.4-16.2,3.3c-2.1,0.3-4.1,1.3-6.1-0.3
		C833.8,555.4,835.1,550.1,838.1,545.2z"/>
	<path class="st28" d="M888.2,534c-2.5-4.5-6-7.8-11.2-9.1c2.6-3.2,3.5-7.2,5-10.9"/>
	<path class="st29" d="M873.1,560.7c-1.2-4.9-2.4-9.7-3.6-14.6c-0.1-0.4-0.2-0.8-0.3-1.2c7.4-5.2,10.8-5,15.9,0.9
		c-0.1,5.7-1.1,11.2-3.2,16.6c-0.3,0.5-0.7,0.8-1.1,1.1C877.8,563.7,874.9,563.6,873.1,560.7z"/>
	<path class="st30" d="M836.9,507.8c0.1-2.1,1-3.6,3.2-3.7c2.4-0.1,3.7,1.4,3.7,3.7c0,2.1-1.3,3.5-3.4,3.5
		C838.3,511.2,837.2,509.8,836.9,507.8z"/>
	<path class="st31" d="M870.6,511.2c-2.1-0.2-3.5-1.3-3.5-3.5c0-2.3,1.3-3.8,3.7-3.7c2.2,0.1,3.2,1.6,3.2,3.7
		C874,509.9,872.7,511,870.6,511.2z"/>
	<path class="st32" d="M876.1,500.8c-3.8-1.8-7.4-2.6-11.9,0.9C868,496.7,871.7,496.7,876.1,500.8z"/>
	<path class="st33" d="M834.8,501c4.4-4.3,7.6-4.3,10.9-0.4C842,498.4,838.4,498.7,834.8,501z"/>
	<path class="st0" d="M914.8,554.4c-5.8,2.2-11.7,1.1-17.6,0.8"/>
	<path class="st1" d="M794.1,594c0.4,6.7,0.4,13.3-0.1,20"/>
	<path class="st0" d="M795,574c0,2.6,0,5.2,0,7.9c-0.8,1.5-2.8,1-3.8,2.1c-1.4,3.3,2.8,2.6,3.2,4.5c-0.1,1.9-0.2,3.7-0.3,5.6"/>
	<path class="st0" d="M794,614c0,6.7,0,13.3-0.1,20"/>
	<path class="st34" d="M806.2,705.1c-2.1,0-4.3,0-6.4,0c-0.9,0-1.5-0.5-1.5-1.5c0-1,0.6-1.5,1.5-1.5c4.4,0,8.9,0,13.3,0
		c1,0,1.5,0.6,1.5,1.5c0.1,1.4-1,1.5-2,1.5C810.4,705.2,808.3,705.1,806.2,705.1C806.2,705.1,806.2,705.1,806.2,705.1z"/>
	<path class="st35" d="M834.9,561.1c6.4-0.7,12.4-3,18.6-4.4c1.3-0.3,2.5-1,3.6,0.3c-1.1,25-0.2,50.1-0.5,75.1c0,2,0.4,4-0.6,5.9
		c-7.5,1.8-15.1,3.7-22.6,5.5c-1.4,0.3-2.9,0.5-4.4,0.7c0-27,0-53.9-0.1-80.9C830.4,561.1,832.4,560.3,834.9,561.1z"/>
	<path class="st29" d="M834.9,561.1c-2,0.7-4,1.4-5.9,2.1c-0.7-0.3-1.4-0.6-2.1-1c-3.3-4.7-3.4-10.3-4.8-15.5
		c3.2-3.1,6.1-6.9,11.7-4.8c2,0.7,3.5,1.5,4.4,3.4C837,550.5,835.9,555.8,834.9,561.1z"/>
	<path class="st14" d="M790,583c1.3-1.8,3.3-0.6,4.9-1.1c3,0.1,5.9,0.2,8.9,0.3c5.3,0.1,7.7,2.5,7,7.5c-0.4,3-1.3,6-2.3,8.8
		c-1,2.7-3.7,1.3-5.7,1.8c-3.8,0.4-5.3-1.3-5-5c0.2-2.1,0-4.2,0-6.4c-0.4-0.9-1-1.8-0.8-2.8c0.4-1.8-0.2-2.1-1.9-1.8
		C793.3,584.5,791.5,584.5,790,583z"/>
	<path class="st0" d="M795,574c0-6.7,0-13.3,0-20c0,0,0,0,0,0c6.4-2.8,13-1.7,19.5-0.7c2.2,2.1,1.4,3.9-0.5,5.7
		c-13-3.2-10.9-3.6-11,8.1C802.9,575.1,803.7,573.9,795,574z"/>
	<path class="st36" d="M814,559c0.3-1.7,0.6-3.3,0.8-5c-0.4-0.9,0-1.8,0.3-2.7c1.1-2.1,2-4.4,4.9-4.3c0.6-0.1,1.3-0.3,1.9-0.4
		c3.1,0.7,1.9,3.5,2.5,5.4c1,3.3,1.6,6.8,2.3,10.2C822.4,561.6,818.2,560.3,814,559z"/>
	<path class="st0" d="M803.1,609.4c-0.5,1.6,1,4.6-2.3,4.4c-2.7-0.2-1.6-2.8-1.6-4.4c0-1.6-1-4.2,1.9-4.2
		C803.9,605.2,802.6,607.8,803.1,609.4z"/>
	<path class="st17" d="M856,637.9c-1.3-1.8-1-3.8-1-5.8c0-23.3,0-46.6,0-69.8c0-1.9-1.3-4.6,2-5.3c5.3,1.3,10.7,2.6,16,3.8
		c2.6,0.8,5.3,1.5,7.9,2.3c1.8,1.7,1.6,3.9,1.6,6c0.1,23.9-0.1,47.7,0.1,71.6c0,1.2-0.1,2.3-0.7,3.4
		C873,643.3,864.7,639.8,856,637.9z"/>
	<path class="st35" d="M882,644c-1.2-2-1-4.1-1-6.3c0-24.9,0-49.8-0.1-74.7c0,0-0.1-0.3-0.1-0.3c4.3-2.7,9.3-3.1,13.9-4.9
		c2.6-0.6,5.1-1.3,7.8-1.7c4.1-0.6,5.6,0.5,5.8,4.6c0.3,4.3,0.2,8.6,0.1,12.9c0,2.5,0.2,5-0.5,7.5c-0.3,0.6-0.6,1.3-1.3,1.4
		c-3.7,0.7-6,2.4-5.7,6.7c0.5,6.3,1.8,8.3,6.7,9.9c0.8,0.3,1.6,0.6,1.7,1.6c-1.6,6.6-0.6,13.4-0.9,20.1c-0.1,2.8,2.1,3.8,3.7,5.4
		c-0.5,2.6-4.3,3.3-3.7,6.5c-0.6,6.3-1.8,7.3-9.4,8.4c-0.6,0-1.3,0-1.9,0c-0.7,0-1.4,0-2.1,0c-2.1,0.6-4.3,0.5-6.1,2
		C886.6,643.4,884.3,643.7,882,644z"/>
	<path class="st0" d="M922.2,654c0-4.2-0.1-8.5-0.1-12.7c-0.2-2.7-2.1-5.5,0.6-8"/>
	<path class="st37" d="M920,641.2c0,4.3-0.1,8.5-0.1,12.8c-1.6,0-3.2,0-4.8,0c0,0,0,0,0,0c-2.8-5.9-1.5-12-0.9-18
		c1.5-2.3,2.8-0.9,3.9,0.3C919.2,637.7,919.7,639.4,920,641.2z"/>
	<path class="st38" d="M920,641.2c-3.3-1-1.8-5.5-4.9-6.6c-2.8-0.6-5.7-0.8-7.9-2.9c0.4-2.7,0.4-5.8,4.6-5c5.1-0.8,8.3,1.5,10.3,7.3
		c-0.1,2.4,2.8,4.9,0,7.3C921.4,641.3,920.7,641.2,920,641.2z"/>
	<path class="st39" d="M790,583c2.6,0,5.2,0,8.2,0c-0.2,2.1-0.3,3.9-0.4,5.8c-1.1-0.8-2.2-0.7-3.4-0.4
		C791.7,587.7,786.6,588.8,790,583z"/>
	<path class="st40" d="M898.7,554"/>
	<path class="st27" d="M889.6,547c2.9,3.5,4.3,7.5,4.6,12c-4.1,2.3-8.6,3.3-13.3,3.8c1.8-5.5,1.7-11.5,4.2-16.9
		C886.5,546.2,888.1,546.6,889.6,547z"/>
	<path class="st1" d="M915,574"/>
	<path class="st1" d="M915.7,594.8c-0.6-0.3-1.1-0.7-1.4-1.3"/>
	<path class="st0" d="M915,574"/>
	<path class="st0" d="M918.7,614c-2.8,0.1-3.8-1-3.7-3.7c0.1-5.4,0-10.9,0-16.3"/>
	<path class="st14" d="M912.2,593c-0.5,2.6,0.8,6-3.2,7.1c-2.5-0.6-6.3,1.3-7.3-1.5c-1.7-4.7-3.8-9.9-1.4-15
		c1.3-2.8,4.5-1.1,6.7-1.7c4.3-1.2,5.6,1.5,6.2,4.9C913.6,589,913.7,591.2,912.2,593z"/>
</g>
</svg>
