<?xml version="1.0" encoding="utf-8"?>
<!-- Generator: Adobe Illustrator 21.0.0, SVG Export Plug-In . SVG Version: 6.00 Build 0)  -->
<svg version="1.1" id="Layer_1" xmlns="http://www.w3.org/2000/svg" xmlns:xlink="http://www.w3.org/1999/xlink" x="0px" y="0px"
	 viewBox="0 0 1728 1296" style="enable-background:new 0 0 1728 1296;" xml:space="preserve">
<style type="text/css">
	.st0{fill:#D5EBEB;}
	.st1{fill:#F0F8F7;}
	.st2{fill:#FBFAF8;}
	.st3{fill:#ABDED4;}
	.st4{fill:#48392F;}
	.st5{fill:#F4FAF9;}
	.st6{fill:#453830;}
	.st7{fill:#22445D;}
	.st8{fill:#453931;}
	.st9{fill:#4673A3;}
	.st10{fill:#AFDED4;}
	.st11{fill:#453A33;}
	.st12{fill:#F29566;}
	.st13{fill:#F3A875;}
	.st14{fill:#443931;}
	.st15{fill:#453A32;}
	.st16{fill:#F2A070;}
	.st17{fill:#D9EDE7;}
	.st18{fill:#2F4B5F;}
	.st19{fill:#453932;}
	.st20{fill:#2C4A5D;}
	.st21{fill:#EC9B6D;}
	.st22{fill:#5B4836;}
	.st23{fill:#939E66;}
	.st24{fill:#465B48;}
	.st25{fill:#BCDBC9;}
	.st26{fill:#AEBC93;}
	.st27{fill:#50443C;}
	.st28{fill:#979492;}
	.st29{fill:#5E7684;}
	.st30{fill:#BBB9B8;}
	.st31{fill:#837D7A;}
	.st32{fill:#678BB3;}
	.st33{fill:#98958F;}
	.st34{fill:#BDBBB9;}
	.st35{fill:#757D79;}
	.st36{fill:#A9A6A3;}
	.st37{fill:#FEFEFE;}
	.st38{fill:#FDFDFD;}
	.st39{fill:#F3DEBA;}
	.st40{fill:#F4DDB7;}
	.st41{fill:#F7C88E;}
	.st42{fill:#FDFEFE;}
	.st43{fill:#EB8E69;}
	.st44{fill:#FCFDFD;}
	.st45{fill:#643F29;}
	.st46{fill:#F66A30;}
	.st47{fill:#F5926A;}
	.st48{fill:#FBFDFD;}
	.st49{fill:#453F36;}
	.st50{fill:#5F4634;}
	.st51{fill:#685341;}
	.st52{fill:#F9FCFD;}
	.st53{fill:#82715E;}
	.st54{fill:#6B553F;}
	.st55{fill:#E9AF97;}
	.st56{fill:#A6927C;}
	.st57{fill:#FCFAEE;}
	.st58{fill:#473930;}
	.st59{fill:#F7AA55;}
	.st60{fill:#F5D2A0;}
	.st61{fill:#4C3E2E;}
	.st62{fill:#433A30;}
	.st63{fill:#4F3E30;}
	.st64{fill:#473C33;}
	.st65{fill:#B2AC80;}
	.st66{fill:#9E9769;}
	.st67{fill:#88824C;}
	.st68{fill:#684C34;}
	.st69{fill:#E0B989;}
	.st70{fill:#EDA455;}
	.st71{fill:#4B4039;}
	.st72{fill:#50443B;}
	.st73{fill:#493D34;}
	.st74{fill:#4C3E35;}
	.st75{fill:#4B3F36;}
	.st76{fill:#635E57;}
	.st77{fill:#B17363;}
	.st78{fill:#675545;}
	.st79{fill:#BBE3DC;}
	.st80{fill:#F3F8F7;}
	.st81{fill:#E1F3EF;}
	.st82{fill:#6C5F41;}
	.st83{fill:#BF9F7C;}
	.st84{fill:#524D46;}
	.st85{fill:#999894;}
	.st86{fill:#CDEAE4;}
	.st87{fill:#D8EFEA;}
	.st88{fill:#96AFCB;}
	.st89{fill:#5880AC;}
	.st90{fill:#809FC0;}
	.st91{fill:#6F91B7;}
	.st92{fill:#82A0C0;}
	.st93{fill:#ABBFD5;}
	.st94{fill:#97AFCA;}
	.st95{fill:#FAFCFC;}
	.st96{fill:#7E9DBF;}
	.st97{fill:#3E5A72;}
	.st98{fill:#EAF2EF;}
	.st99{fill:#F7C78C;}
	.st100{fill:#F7B66D;}
	.st101{fill:#F7955A;}
	.st102{fill:#D4CFAB;}
	.st103{fill:#F1AB7D;}
	.st104{fill:#E9F2EF;}
	.st105{fill:#E1DAD0;}
	.st106{fill:#F88547;}
	.st107{fill:#967258;}
	.st108{fill:#70716B;}
	.st109{fill:#F6EDE2;}
	.st110{fill:#FDF2EA;}
	.st111{fill:#F7B86F;}
	.st112{fill:#F9FBFB;}
	.st113{fill:#B8C8DA;}
	.st114{fill:#F6CA91;}
	.st115{fill:#F6E778;}
	.st116{fill:#F7DF5B;}
	.st117{fill:#91AAC7;}
	.st118{fill:#CBB594;}
	.st119{fill:#F66A35;}
	.st120{fill:#473B32;}
	.st121{fill:#473E33;}
	.st122{fill:#4A4037;}
	.st123{fill:#4D4336;}
	.st124{fill:#4C4236;}
	.st125{fill:#F7F3F0;}
	.st126{fill:#523E2A;}
	.st127{fill:#F19170;}
	.st128{fill:#574034;}
	.st129{fill:#F9F8F4;}
	.st130{fill:#E8E4DE;}
	.st131{fill:#B3A79F;}
	.st132{fill:#E5E1C0;}
	.st133{fill:#FBF7F2;}
	.st134{fill:#F3F0ED;}
	.st135{fill:#F4A89C;}
	.st136{fill:#D3CEAA;}
	.st137{fill:#B1AC80;}
	.st138{fill:#999362;}
	.st139{fill:#F57A5D;}
	.st140{fill:#F8BF95;}
	.st141{fill:#F69F68;}
	.st142{fill:#FAF8F6;}
	.st143{fill:#F1C590;}
	.st144{fill:#55524E;}
	.st145{fill:#6B675E;}
	.st146{fill:#8A5A2D;}
	.st147{fill:#FAF9F1;}
	.st148{fill:#DCC975;}
	.st149{fill:#B08346;}
	.st150{fill:#4B4441;}
	.st151{fill:#878986;}
	.st152{fill:#2A4B62;}
	.st153{fill:#E4D66E;}
	.st154{fill:#7797BB;}
	.st155{fill:#553F2D;}
	.st156{fill:#684421;}
	.st157{fill:#704E27;}
	.st158{fill:#523C2F;}
	.st159{fill:#FCF7F2;}
	.st160{fill:#CEEAE5;}
	.st161{fill:#514438;}
	.st162{fill:#74716F;}
	.st163{fill:#A39B9F;}
	.st164{fill:#74472C;}
	.st165{fill:#F5C383;}
	.st166{fill:#C4E7E1;}
	.st167{fill:#BAB58A;}
	.st168{fill:#7C7455;}
	.st169{fill:#F5F1E1;}
	.st170{fill:#786F54;}
	.st171{fill:#868B88;}
	.st172{fill:#F78B4D;}
	.st173{fill:#F6A570;}
	.st174{fill:#F8ECDE;}
	.st175{fill:#D9CBB9;}
	.st176{fill:#F9E3D1;}
	.st177{fill:#E9A67D;}
	.st178{fill:#333131;}
	.st179{fill:#454749;}
	.st180{fill:#342010;}
	.st181{fill:#321E10;}
	.st182{fill:#5D3D37;}
	.st183{fill:#5A3E38;}
	.st184{fill:#C69E6A;}
</style>
<g>
	<path class="st0" d="M480.8,793.8c2.9-0.8,1.5-3.6,2.4-5.3c3.8-7.7,9.8-13.1,16.5-17.9c8-5.7,16.6-10.5,26.1-13.6
		c8.2-2.6,16.6-4.2,25.1-5.3c8.2-1.1,16.4-0.5,24.6-0.7c11.6-0.2,23,1.6,34.5,3.1c14.7,1.8,29.1,5,43.5,8.3
		c17.7,4.1,35.2,8.7,52.7,13.5c24.8,6.7,49.5,13.9,74.6,19.6c16.3,3.7,32.8,6.6,49.4,8.9c9.8,1.4,19.6,2.8,29.5,4
		c8.2,1,16.5,1.9,24.8,2.6c1.1,0.1,2.3,0,3.3,0.3c6,1.2,6.2,1.1,7.9-4c1.4,1.3,1.2,3,1.1,4.6c-1.5,17.4-2.8,34.8-8.7,51.5
		c-2.8,7.8-6.3,15.2-12.2,21.3c-0.4,0.4-0.9,0.9-0.9,2.2c2.3-0.9,3.6-2.6,4.9-4.3c5.4-6.8,8.4-14.6,10.2-23.1
		c2.9-13.9,5.4-27.9,6.2-42.1c0.1-1.6,0-3.3,1.4-4.5c1.9-1.6,4.2-1.4,6.4-1c2.9,0.5,5.7,1,7.5-2.2c0.2-0.4,0.7,0,0.9,0.2
		c1.3,6.1-0.7,12.2-0.5,18.3c-1,2.3-0.5,4.7-0.8,7c-1,8.3-5.1,15.3-9.5,22.2c-0.5,0.8-1.3,1.5-1.6,2.5c4.9-2,11.1-18.2,11.3-29.4
		c0.9-6,1.2-12.1,1.5-18.2c0.1-1.3-0.8-3.2,1.6-3.4c1,3.1,3.1,4.1,6.4,4.3c15.9,0.8,31.7,2.4,47.6,3c3.5,0.1,7.2,0,10.6,1.6
		c1.6,3.7,0.5,7.5,0.8,11.3c0.1,1.6,0,3.2,0,4.8c0,1.3,0,2.6,0,4c0.7,7.7,1.5,15.5,3.3,23c0.3,1.1,0.6,2.2,0.4,3.3
		c-0.1,0.4-0.2,0.7-0.4,1.1c-1.3,2.5-3.7,4.2-5.2,6.5c-1.4,2.2-3.6,3.9-4.3,6.6c-0.1,0.7-0.2,1.4-0.4,2c-1.5,4.2,0,6.1,4.5,5.5
		c3.6-0.5,6.1-2.9,8-5.7c3.8-5.3,5.5-11.4,5.7-17.8c-0.6-4.1-1-8.2-1.6-12.3c-0.3-5.7-0.1-11.4-0.2-17.1c0.1-3.5-0.1-7,0.1-10.4
		c0.1-1.5,0.5-2.9,1.5-4.1c5.7-1.4,11.3-1.9,16.8,0.7c1.5,2.4,0.8,5,0.7,7.6c-0.5,8.9-1.4,17.7,0.6,26.6c0.9,4.2,0.9,8.5,1.7,12.8
		c0.5,2.6,2.1,5.1,1.6,7.9c-0.1,0.8-0.4,1.6-0.8,2.3c-1.7,2.1-3.9,3.7-5.4,5.9c-1.9,2.2-3.6,4.5-4.7,7.2c-1.5,2-1.3,3.8,1,5.1
		c3.6,1.9,8,1.7,10.9-1.4c4.1-4.3,7.2-9.4,8.1-15.5c-0.8-3.7-1.2-7.6-1.9-11.3c-0.2-2.9-0.1-5.8-0.1-8.7c0-3.4,0-6.9,0-10.3
		c-0.2-9.4,0.7-18.7,2.2-28c0.2-1.2,0.1-2.6,1.7-2.9c-0.5,2.7,0.9,3.7,3.4,3.8c1.5,0,3,0.1,4.5,0.1c12.8-0.5,25.6,0.8,38.4,0.8
		c1.6,0,3.3,0.2,4.7-0.7c1.4,1.3,1.1,3,1.1,4.6c0,10.5-0.2,21,0.8,31.4c1.3,13.5,5,26.5,9.6,39.2c1.1,3.2,2.4,6.3,3.9,9.3
		c0.6,1.1,1.2,2.2,0.5,3.5c-2.9,2.5-6.6,1.9-10,2.3c-16,1.7-32.1,2.3-48.1,3.7c-9.4,0.8-18.9,1.1-28.4,1.6
		c-35.6,1.9-71.2,1.9-106.7,1.5c-14.1-0.2-28.2-1.2-42.2-1.9c-13.7-0.8-27.4-2-41.1-3.1c-14.7-1.2-29.3-3.4-43.9-5.6
		c-21.3-3.1-42.3-7.5-63.4-11.7c-20.9-4.3-41.7-9.1-62.6-13.7c-23.2-6.4-46.5-12.3-69.4-19.7c-20.3-6.6-40.3-14-59.2-23.9
		c-10.2-5.3-19.8-11.6-27.6-20.2c-3.8-4.1-6.6-8.7-7.3-14.3C480.8,799.8,480.8,796.8,480.8,793.8z"/>
	<path class="st0" d="M1076.9,811.1c1.9,1.9,0.8,4.3,0.8,6.4c0,2.7,0.9,3.6,3.5,3.3c2.1-0.2,4.3,0.5,6.2-0.8
		c1.4,1.3,0.9,3.1,0.7,4.6c-1.6,17.1,0.3,33.8,6.1,50.1c1,2.7,2,5.4,4.5,7.6c0.2-1.7-0.6-2.6-1.1-3.6c-9.6-17.7-10.9-36.8-9.3-56.4
		c0.1-0.6,0.3-1.2,0.8-1.6c21.7,0,43.5,0.4,65.2-0.1c14.1-0.3,28.1-1.4,42.2-1.2c12.8,0.2,25.4,2.6,37.2,8.1
		c6,2.8,11.6,6.4,13.9,13.3c0.1,0.4,0.7,0.6,1.1,0.9c0,3,0,6,0,9c-3.2,11.1-11.7,18-20,24.9c-9,7.5-18.8,14-29.3,19.4
		c-1.5,0.8-2.9,1.4-4.5,1.6c-21.4,3.3-42.9,6.2-64.5,8.8c-11.2,1.4-22.6,2-33.8,3.9c-1.6-0.7-2.4-2.2-3.1-3.6
		c-8.9-15.7-15.5-32.1-16.3-50.4c-0.5-13.1-1.4-26.2-1.3-39.3C1075.9,814.4,1075.7,812.6,1076.9,811.1z"/>
	<path class="st1" d="M1092.7,910.8c-4.2,2.7-9,2.2-13.6,2.9c-11.6,1.7-23.3,3.2-35,4.3c-6,0.6-12,1.6-18.1,1.9
		c-10.4,0.5-20.7,2.3-31.1,2.7c-11.4,0.5-22.8,2.4-34.2,1.6c-1.9-0.1-3.8-0.2-5.2,1.5c-34.5,0-69,0-103.5,0
		c-1.2-1.4-2.8-1.5-4.4-1.5c-5-0.1-9.9-0.1-14.9-0.6c-10.9-1.1-21.8-1.7-32.6-3c-12.7-1.5-25.3-3.2-37.9-5.3
		c-15.3-2.6-30.6-5.3-45.5-9.3c-13.9-3.8-27.8-7.6-41.4-12.5c-8.7-3.1-17.1-6.8-25.8-9.9c-2.2-0.8-4.6-1.4-6-3.6
		c9.7,1.4,19.1,4.1,28.7,6.2c19.8,4.2,39.5,8.4,59.3,12.5c10.6,2.2,21.1,4.4,31.8,5.8c9.7,1.2,19.3,3,29.1,4.1
		c11.3,1.2,22.6,2.7,34,3.6c6.4,0.5,12.9,1.3,19.3,1.5c7,0.2,13.9,0.6,20.9,1c32.8,2.1,65.6,1.4,98.4,1.3c13.7,0,27.4-1,41-1.5
		c8.6-0.3,17.2-0.6,25.7-1.5c14.8-1.5,29.7-1.5,44.5-3.5c4.8-0.6,9.6-0.4,14.4-1.7C1092.3,908,1093,909,1092.7,910.8z"/>
	<path class="st2" d="M1125.1,685c-1.2-0.1-1.6,1-2.4,1.5c-4.1-0.7-7.8,1.4-11.7,1.9c-7.1,0.8-14.1,2.6-21.3,2.3
		c-0.5,0.1,0,0.6-0.1,0.1c0-0.1,0.1-0.1,0.3-0.1c1.9,0,3.9-0.5,5.8,0.3c-5.5,2.4-11.1-0.3-16.7,0.6c-4.8-0.6-9.6-0.3-14.4-0.7
		c-1.5-0.1-3-0.1-4.4-0.5c-1.6-0.2-2.5-1.3-3.4-2.5c-1.6-2.1-2.5-4.8-4.9-6.3c-1.5-1.8-2.9-3.5-3.1-6c0.3-0.8,1-1.1,1.8-1.3
		c1.3-0.2,2.4,0.3,3.7,0.4c4.8,0.7,9.1-0.2,12.1-4.5c3.1-2.3,6.2-4.6,7-8.8c0.5-3,0.9-6-1.6-8.4c-1.9-1.8-1-2.9,0.7-4.1
		c2-1.4,4.3-2.8,3-6c-0.4-1.1-1.6-1.8-1.9-3c0-0.7,0.3-1.4,0.6-2c1.3-2.1,2.8-4,3.9-6.2c3.9-7.1,5.3-14.6,4.7-22.7
		c-0.5-6-3.8-10.4-7.8-14.4c-0.7-0.7-1.6-1.2-2.2-2c-0.6-0.6-1.3-1.3-0.8-2.3c0.4-0.7,1.2-0.7,2-0.7c1.6-0.1,3.7,1.2,4.6-1
		c0.9-2.1-0.7-3.8-1.7-5.4c-1.3-2.1-3-1-4.6-0.5c-0.4,0.1-0.7,0.2-1.1,0.2c-2.8,0.4-5.6,0.6-6.7-3c-0.2-0.6-0.3-1.2-0.3-1.8
		c-0.2-1.7,0.2-3.9-1.9-4.5c-2.1-0.6-3.3,1.3-4.8,2.4c-1.7,1.2-1.5,2.7-0.5,4.3c1.5,2.6,0.3,3-2.1,2.7c-3.7-0.5-7.3-1.6-11.1-1.2
		c-16.9,2.1-29.5,11.3-39.5,24.6c-3,4.7-4.6,10-6,15.4c-0.7,2-0.4,3.9-0.2,5.9c0.1,1.6-1.1,2.2-2.3,2.8c-2.8,2.2-3.4,5.1-1.4,7.9
		c1,1.4,2.3,2.5,3.6,3.7c1.2,1,2.7,1.7,3.9,2.8c3.7,6.6,8.9,11.3,16.3,13.6c1.4,0.4,2,1.5,2,2.8c-0.1,2.7-0.5,5.2-2.5,7.3
		c-0.9,0.9-1.8,1.9-3.2,1.5c-1.5-0.4-1.9-1.7-1.8-3.2c-0.1,0.2-0.1,0.4-0.2,0.7c-0.8,8.9-2.7,7.1-8.3,3.6
		c-26.7-16.8-44.5-41.1-57.3-69.5c-7.9-17.6-13.3-36-17.2-54.9c-0.5-2.7-1-5.4-1.2-8.1c-1.1-12.8-0.1-25.3,3.7-37.6
		c3.5-13.9,10.1-26.5,17.9-38.4c8.8-13.5,19-25.9,30.1-37.6c10.6-11.1,21.8-21.5,34-30.8c2-1.4,3.9-2.8,5.9-4.2l-0.1,0.1
		c4.7-1.7,9.4-3.7,14.3-4.9c1.5-0.5,2.9-1.3,4.6-0.9c0.6,0.2,1.1,0.6,1.5,1.1c4.3,4.7,4.5,5.9-2.7,8.6c3.9,2.3,8.4,3,11.7,6.2
		c1.4,1.3,2.5,2.4,2.4,4.3c-0.1,2.6,1.4,3.7,3.2,5.5c2.8,2.8,6.8,5.2,7.3,9.8c0.2,2.1,0.9,3.7,2.9,4.9c2.4,1.5,2,4.2,2.2,6.5
		c0.3,2.9,1.4,4.9,4.2,6c3.2,1.3,4.9,3.7,5,7.2c0.1,1.6,0.6,3,2.1,3.8c1.4,0.8,2.2,2,2.7,3.5c0.4,1.4,1.4,2.3,2.6,3
		c1.2,0.6,2,1.6,2.2,2.9c0.4,2.4,1.5,4.5,3.4,6.1c0.4,0.3,0.2-0.1,0.2,0.3c0.3,4.9,3.1,8.4,6.4,11.6c0.4,0.4,0.4,1.3,0.9,1.6
		c2.9,1.8,4.1,4.2,3.3,7.6c-0.2,0.7,0.2,1.6,0.8,2c3,1.7,4.3,5.2,7.2,7c1.3,0.8,2.2,2.1,2.1,3.7c-0.1,2.7,0.8,4.6,3.7,5.2
		c1.4,0.3,2.2,1.5,2.1,2.8c-0.7,5.1,3,7.9,5.6,11.3c3.2,4.1,5.3,9,9.5,12.3c1.2,0.9,0.4,1.7-0.7,2.1c-1.2,0.4-2.5,0.3-3.7,0.4
		c-4.3,0-8.6,0.3-12.8-1c-2.8-1-5.8-0.4-8.6-0.6c-4.2,0.2-8.2,0-11-4c-1-1.4-2.9-2-4.7-1.9c-3.1,0-4.6-1.7-5.7-4.4
		c-4.3-10.6-8.6-21.3-13-31.9c-0.8-2-1.9-3.8-2.7-5.7c-1-2.2-0.1-3.4,2.3-3.1c1.9,0.2,3.7,1.5,6.6,1.2c-5.1-4-10.2-6.5-15.6-8.1
		c-1.5-0.5-2.5,0.8-3.3,2c-2,3-3.1,6.4-4.6,10.1c2.1-1.1,2.9-3,4.2-4.2c2-1.8,3.4-1.7,4.2,0.8c5,14.9,13,28.3,19.9,42.3
		c0.8,1.7,1.1,3.3,0.4,5c-0.5,1.2-0.9,2.3-1.1,3.6c-0.4,2.8-0.6,5.6,2.1,7.5c2.6,1.9,6.4,1.8,9.2,0c1.3-0.8,2.3-1.9,3.1-3.2
		c1.2-1.9,2.9-2.7,5.1-2.4c12.4,1.3,24.8,2.2,37.3,3c1.4,0.1,2.7,0.4,3.7,1.5c1.2,2,0,3.9-0.6,5.7c-0.9,2.8-1.3,5.4,1.5,7.4
		c0.9,0.6,1.1,1.6,1.4,2.6c0.3,1,0.6,2.2,1.6,2.4c3.5,0.7,3.6,3.4,4.8,6.1c1.6,3.5,3.5,7.1,6.1,10.3c3.2,4.1,7.6,8,7.6,14
		c0,2.5,0.8,2.8,3.1,3.9c4.2,2.1,8.3,5.2,11.3,9.2c0.2,0.3,0.2,0.7,0.4,1c0.5,1,1.2,1.9,1.5,3c0.1,2.6,2.2,2.6,4,3.1
		c4.1,1.1,4.5,2.6,1.6,5.5c-3.5,3.6-3.1,6,1.4,7.9c1.3,0.5,2.2,1.6,3.4,2.3c3.4,1.9,3.5,2,0.7,4.5c-1,0.9-1,1.6-0.3,2.5
		c1,1.6,1.8,3.3,1.2,5.3c-3.7,6.3-9.5,10.5-14.8,15.2c-13.6,12.2-28.4,22.6-44.2,31.7C1130.7,682.8,1128,684.2,1125.1,685z"/>
	<path class="st3" d="M1168.4,762.2c-0.2,3.4-0.4,6.8-2,9.8c-1.7,2.3-1.9,5.3-3.3,7.8c-1.8,4-3.4,8.2-6.8,11.3
		c-2.3,0.9-3,3.3-4.7,4.7c-6.6,5.3-13.1,10.8-21.4,13.3c-0.8,0.2,0.8,1.4-0.5,1.7c-4.6,1.4-9.3,1.5-14,1.4c-4.5,0-8.9,0-13.4,0
		c-1.6,0-3.3,0.2-4.4-1.4c0.6-1.4,2-0.5,2.6-0.8c-2.8-0.7-5.9-0.6-9.1-0.4c-3,0.2-4.4-2-3.6-4.8c0.3-0.9,0.4-1.7,0-2.5
		c-0.7-1.8-0.7-3.7-0.7-5.5c0-16.2,0.1-32.4-0.1-48.7c0-3.1,1.2-5.8,1.5-8.8c0.2-2.1,2.4-1.8,3.9-2.3c4.5-0.1,8.5,1.7,12.8,2.5
		c17.5,3.2,34.6,7.8,51.4,13.6C1161.7,754.8,1165.9,757.2,1168.4,762.2z"/>
	<path class="st4" d="M1125.1,685c9.7-5.7,19.6-11.3,28.8-17.8c11.5-8.2,22.5-17,32.5-27c1.8-1.8,3.6-3.8,5.3-5.7
		c3.3-5.7,8.2-10.1,12.2-15.1c17-21.6,28.8-45.6,32.9-73c2.6-17.6,1.7-35.1-2-52.5c-4.2-19.6-10.7-38.2-21.4-55.3
		c-15.4-24.6-36.8-41.8-64.1-51.6c-14.1-5.1-28.6-7.5-43.6-8.6c-19.5-1.5-38.6,1.1-57.6,5c-0.4,0.1-0.8,0.2-1.1,0.3
		c-2.8,0.2-5.5,1.7-8.4,1.3c-1.4,0.3-2.8,0.6-4.2,0.9c-0.8,0.3-1.6,0.7-1.5-0.8c25.2-8.6,50.9-13.5,77.6-12.3
		c51.1,2.3,88.8,26.4,113.9,70.6c15.9,28.1,23.7,58.2,21.1,90.5c-2.8,35.5-16.6,66.6-38.3,94.4c-16.5,21.1-36.1,38.7-60.5,50.3
		c-6.3,3-13,5.2-19.8,6.5C1126,685.4,1125.6,685.1,1125.1,685z"/>
	<path class="st5" d="M854,778.1c3.5,0.2,5.2-0.4,5-4.9c-0.2-5,1.3-10.1,1.2-15.2c0-2.7-0.3-5-3.2-6.6c-2.6-1.4-0.9-3.1,0.3-4.9
		c3.4-5.2,7.8-9.4,12.6-13.1c4.7-3.6,8.9-7.8,14.8-10.1c-1-1.2-2.1-0.7-3-1c0.2-1.3,1.2-1.5,2.2-1.6c3.5-0.3,6.9-1.2,10.4-0.8
		c3.4,0.3,3.3,2.3,2.5,4.8c-0.6,1.3-1.8,1.6-3.1,1.8c-3.9,0.9-7.7,2-11.5,3.4c-0.6,1.5,0.5,2.6,0.9,3.8c1.9,4.9,3.9,9.8,5.6,14.8
		c1.1,2.1,0.1,5.6,3.9,6c5.6,0.3,11.2-0.4,16.8-0.9c2.7,1.6,1.3,3.3-0.2,4.3c-3.3,2.1-4.2,4.4-3.3,8.4c1,4.6-0.5,9.7,1.7,14.3
		c0.5,1.1-0.5,1.8-1.5,2.1c-1.2,0.3-2.5,0.2-3.7,0.4c-5.4,0-10.7-0.8-16-1.5c-9.4-1.2-18.9-0.1-28.3-1.5
		C856.6,779.6,854.8,780.1,854,778.1z"/>
	<path class="st6" d="M854,778.1c6.3,1.4,12.7,0.9,19,1.1c10,0.3,19.9,2,29.8,2.6c3.5,0.7,7.1-0.3,10.6,0.5c0.4,0,0.8,0.1,1.3,0.2
		c12.9,1.6,25.7,3.4,38.6,5.2c10.7,1.5,21.4,2.8,32.1,3.7c6.8,0.9,13.6,0.9,20.3,1.9c8.2,1.3,16.4,2.5,24.6,4
		c18.6,3.1,37,8,55.7,10.8c3.3,0.5,6.5,1.7,9.9,1.1c0.7-0.1,1.4,0.3,1.9,1c10.9,1,21.8,1.3,32.6-0.7c0.9-1.2,2.3-1.4,3.6-1.7
		c8.3-2.4,14.4-7.6,19.3-14.4c0.7-1,1.3-2.2,2.4-2.7c2.7-3.4,4.8-7.3,6.8-11.2c0.7-0.2,1.1,0.1,0.9,0.9c-3.5,9.9-8.2,19-15.9,26.4
		c-6.1,5.9-13.3,9.1-21.9,8.9c-16.7-0.3-33-3.3-49.4-5.9c-12.9-2.1-25.8-4.8-38.8-6.4c-30.1-3.7-60.1-8.2-90.3-11.3
		c-3.5-0.4-6.9-1.1-10.4-1c-5.3-0.5-10.7-1.2-16-1.7c-4.3-0.4-4.2-0.5-4.9,3.9c-0.6,3.6-0.5,7.2-0.6,10.8c0,1.6,0.2,3.3-1.2,4.5
		c-0.7,7.5-1.5,15.1-2.2,22.6c-1.8-0.3-0.9-1.5-0.8-2.5c0.2-6.4,0.5-12.8,0.7-19.2c-1.6-2.3-1-4.8-0.7-7.2c0.5-3.6,0.3-7.2,0.4-10.8
		c0-2.1-0.9-3-3-3.4c-9.4-1.8-9.7-1.5-9.7,7.9c0,4.1,0,8.2,0,12.4c0,1.8,0,3.5-1.2,5c-1.2,9.9-2.3,19.8-3.7,29.7
		c-1.1,7.4-2.8,14.7-4.5,22c-1.8,7.8-6,14.2-10.8,20.3c-0.8,1-2,1.9-3.1,2.7c-0.9,0.6-1.9,0.5-2.7-0.3c-1-1-0.1-1.5,0.5-2.1
		c10.2-9.7,14.2-22.4,17.2-35.5c3.2-14,4.7-28.3,4.9-42.7c0.1-6.1-0.1-12.2,0.2-18.3c0.2-3.1-1.2-3.7-3.7-3.9
		c-12.9-1.3-25.8-2.7-38.7-4.2c-5.9-0.7-11.9-1.6-17.8-2.5c-1.6-0.2-3.2-0.7-4.7-1.3c-7.3-2.8-8.4-6.8-3.2-12.4
		c13.3-14.3,28.8-26.1,43.9-38.4c1.5-1.2,3-2.4,4.5-3.6c0.2,0.2,0.4,0.5,0.6,0.7c-2.6,2.4-5.3,4.9-7.9,7.3
		c-11,10.3-22,20.6-33.1,30.8c-1.5,1.4-3.1,2.8-4.7,4.1c-3.2,2.8-2.9,6.1,1,7.9C839,776.6,846.4,777.9,854,778.1z"/>
	<path class="st7" d="M731.3,472c4,0.1,8,0.1,12,0.2c0.8,4.2,0,8.5,0.4,12.7c0.2,8.2-1.6,16.2-1.6,24.3c-0.6,5.9-1.1,11.8-1.7,17.7
		c-0.3,2.9,0.8,3.8,3.4,3.9c4.3,0.1,8.6,0.8,12.9,1.2c0.7,0.3,1.4,0.4,2,0.8c0.4,0.2,0.9,0.5,0.9,1c0,0.8-0.6,1-1.2,1.2
		c-1.5,0.4-3.1,0.2-4.7,0.4c-3.6,0-7.2,0.1-10.8,0c-2.6-0.1-3.7,1-4.1,3.6c-0.4,2.7,0.1,5.5-1.5,8c-2.5-0.1-1.6-2.2-1.9-3.5
		c0-8.7,0-8.7-8.7-9.7c-8.8-1.1-17.4-3.5-26.1-5.3c-4.1-0.9-5-0.5-5,3.8c-0.1,10.4-1.7,20.7-1.7,31c-0.8,5.3-0.9,10.6-1.5,16
		c-0.3,2.3,0.6,3.5,3.1,3.5c1.9-0.1,3.7,0.6,5.5,0.8c5.5,1.3,11.1,2.4,16.5,3.9c3,0.8,6.1,1,9.1,1.5c1.7,0.8,3.3,0.5,4.6-0.9
		c0.6,0,1.1,0.3,1.5,0.7c2.7,1.6,5.7,1.4,8.6,1.5c1.9,0.1,4-0.3,5.5,1.4c0.2,0.4,0.2,0.8,0,1.1c-10,0.3-19.9-1.5-29.8-2.5
		c-7.7-0.8-15.4-1.8-23-3c-2.7-0.4-3.6,0.2-3.3,2.9c0.1,0.9,0.3,2.3-1.2,2.2c-1-0.1-0.9-1.3-1-2.2c-0.7-5.6-0.8-5.7-6.8-6.5
		c0.5-2.1,2.6-1.2,3.8-2c2.4-1.2,2.2-3.5,2.3-5.5c0.7-17,3.1-33.8,4.4-50.7c1-13.1,0.2-26.2,0.2-39.3c0-3.6,0-7.2,0-10.9
		c0-2.8-1.3-4.1-4-4.2c-4.6-0.1-9.2-0.5-13.8-0.6c-15.2-0.5-30.4-2.1-45.6-1.7c-5.2,0.1-5.4,0.2-5.4,5.5c0.2,21.1-1.4,42.1-2.9,63.2
		c-0.8,12.2-1.7,24.4-3,36.6c-0.3,2.9,0.6,4.3,3.6,4.1c9.4-0.4,18.7,0.4,28.1,0.8c4.1,0.2,8.2,0,12.1,1.9c0,1.1-0.7,1.2-1.5,1.1
		c-3.8-0.1-7.7,0.3-11.5-0.2c-9.7,0.1-19.5,0.1-29.2,0.2c-0.9,0-1.8,0-2.6,0.1c-1.7,0.3-0.5,2.6-1.8,2.9c-1.7,0.4-1.4-1-1.5-2.1
		c-0.2-1.5-2.5-0.1-2.8-2.1c4.3-0.1,4-3.5,4.4-6.5c3.1-27.6,3.8-55.3,4.5-82.9c0.2-6.6,0.3-13.2,0.5-19.8c0-1,0.1-2,0-3
		c-0.4-4.9-0.5-4.9,4.8-4.9c20.4-0.2,40.6,2.3,60.9,3.9c2.8,0.2,5.9,2.5,8.6-0.5c0.1-0.1,0.5,0,0.7,0.1c7,3.4,14.6,2.9,22,3.7
		c2.7,0.8,5.6-0.2,8.3,0.6c0.5,0,1,0.1,1.5,0.1c-0.7,2.4-2.8,1.8-4.3,1.8c-6.2,0.2-12.5-0.1-18.7-0.6c-5.6-0.4-5.7,0-5.8,5.4
		c0,5.5,0.1,11-0.1,16.5c-0.7,8.6-1.2,17.2-1.5,25.8c0,2,0.3,3.7,2.7,4.2c6.5,1.4,13,3.3,19.7,3.7c4.8,0.7,9.6,1,14.3,1.8
		c2.2,0.4,3.1-0.6,3.5-2.7c0.6-2.9,0.1-5.9,0.7-8.9c1-8.6,1.2-17.2,2.2-25.8c0.8-4.9,0.6-9.8,1.2-14.7c0.3-2.8-1.5-3.5-3.9-3.8
		c-2.5-0.3-5.2,0.6-7.6-1C729,470.7,730.3,471.9,731.3,472z"/>
	<path class="st8" d="M929.2,539.6c1,7.2,2.8,14.1,4.6,21.1c6.8,26.6,16.8,51.8,33.1,74.1c10.6,14.5,23.3,26.7,38.6,36.2
		c1.6,1,3,2.2,5.1,2.6c0.9-3.2-0.1-7.1,3.9-9.4c-0.3,2.1-2.5,4.7,0,5.5c2.1,0.6,3.4-2.1,4.1-4.1c1.5-4.3,1.1-5.2-3.3-7
		c-6.5-2.5-11-7.2-14.1-13.4c-3.4-3.8-4.5-9-2.5-12.2c2.4,1.7,2.2,4.7,3.3,7.1c0.6,1.2,1,2.5,1.5,3.7c1.1,4.2,3.9,7,7.5,9.1
		c3.7,2.1,7.6,3.5,11.7,4.2c2.7,0.5,5.8,0.8,6.5,4.3c-0.2,0.3-0.5,0.5-0.8,0.7c-2.1,0.7-4.3-1.9-6-0.3c-1.5,1.4-1.1,4-1.8,6
		c-1.6,4.8-3.2,6-7.6,5.5c0.6,2.1,2,3,3.9,3.5c1.3,0.4,2.7,0.4,3.9,1.2c0.6,0.4,1.2,0.8,1.8,1.2c1.5,1.6,0.3,3.1-0.2,4.6
		c-6.3,10.3-13.4,20-21.6,28.9c-4.3,4.8-10,7.4-15.9,9.4c-4.2,1.5-8.6,2.5-13,3.2c-1.3,0.2-3.6,0.9-3.1-2c1.4-0.8,3-1.2,5-1.4
		c-22.8-1.5-45.1-2.2-67.5-0.8c-2.2,0-4.4,0.2-6.6-0.1c-0.8-0.3-1.8-0.4-1.7-1.5c0-0.8,0.7-1.2,1.5-1.1c28.6-0.7,57.1-1.6,85.7-0.5
		c5.9,0.2,10.4-3.5,14.2-7.3c8.1-8,14.2-17.7,20.8-27c1.6-2.2-0.6-2.1-1.6-2.6c-18.8-7.9-34.5-19.9-47.5-35.5
		c-16.5-19.8-26.9-42.7-34.5-67.2c-3.2-10.4-5.3-21-7.9-31.5c-0.4-1.7-0.1-3.5-0.1-5.2C928.3,541,927.3,539.8,929.2,539.6z"/>
	<path class="st9" d="M696.7,494.5c0-6.6,0.1-13.3,0-19.9c-0.1-2.6,0.7-3.5,3.4-3.4c7.6,0.2,15.2,1.3,22.8,0.8
		c1.3-0.1,2.8,0.5,3.9-0.7c1.5-0.1,3.2-0.6,4.5,0.7c-0.8,0.2-1.7-0.1-2.2,0.8c-0.1,3.2-2.7,4.7-4.9,6c-7.3,4.3-14.2,9-21,14
		C701.3,494.1,699.3,495.7,696.7,494.5z"/>
	<path class="st10" d="M1067.9,724.7c2.5,3,6.1,1.6,9.1,2.1c29.8,4.7,59,11.5,86.2,25.1c2.1,1,5.8,1.2,5.2,5.2
		c-0.6,0.1-1.3-0.1-1.8-0.5c-9.4-6.6-20.4-9-31.4-11.5c-9.7-2.2-19.6-3.4-29.3-5.9c-12.5-3.3-24.9-7.2-37.7-9.2
		c-1-0.2-1.9-0.6-2.2-1.7c-0.1-1.2,0.2-2.4,0.8-3.5C1067.2,724.6,1067.5,724.5,1067.9,724.7z"/>
	<path class="st11" d="M1066.5,727.8c0.2,0.6,0.4,1.2,1.2,1.3c15.4,1.7,29.8,7.8,45,10.7c13.8,2.6,27.8,4.6,41.1,9.5
		c5.3,1.9,10.6,3.7,14.6,7.9c0.5,1.7,0.5,3.3,0,5c-0.6,0.1-1.2,0.1-1.6-0.6c-2-4.2-5.9-5.8-9.9-7.3c-18.6-6.9-37.9-11.1-57.3-15.1
		c-2.3-0.5-4.6-1-6.9-1.5c-2.9,0.4-5.8,0.3-8.4-0.7c-4.8-1.9-9.9-2.4-14.9-3.5c-2.3-0.5-4,0.1-5.7,1.8c-5.6,5.5-12.4,8.7-20.1,10
		c-3.6,0.1-7.1-0.1-10.7,0.2c-0.9-0.1-1.6-0.5-1.9-1.5c1.1-1.9,3-1.3,4.6-1.4c1.8-0.1,3.7,0.2,5.5-0.3c7-1.2,13.2-4.1,18.8-8.3
		c2.4-1.8,2.9-4.9,5.5-6.4C1065.8,727.4,1066.2,727.5,1066.5,727.8z"/>
	<path class="st12" d="M897.7,622.6c-3.7,2.8-4.8,2.5-9.8-2.7c-0.8,3.4,1.8,7.3-2.1,9.6c-0.9,0.9-1.9,0.4-2.9,0.2
		c-7.1-0.8-5.4-5.9-4.2-10.7c-6.7,3-10,2.1-12.3-3c-1.4-3.1-0.4-5.2,2.9-6.7c2.6,0,5.4-2.1,7.9,0.6c0.3,0.4,1.8-1.2,2.9-1.5
		c1.6-0.5,3.3-1.5,3.4,1.4c-0.9,2.5-1.3,4.8,2.5,4.8c1.2,0,2.3,0.9,3.5,0.7c0.3-4.4,0.7-4.7,3.7-2.8l0,0c1.2,1,2,2.5,3.3,3.5
		C898.9,617.7,899.3,620,897.7,622.6z"/>
	<path class="st13" d="M893.2,612.3c-3.5-0.6-3.5-0.5-1.8,4.2c-2.1,0.4-3.8-1.1-5.7-1.2c1-2.8-0.4-4.2-2.9-5
		c-0.4-0.6,0.6-2.6-1.4-1.5c-1.4,0.8-3.5,0.6-4.2,2.8c-0.2,0.8-1.7,0.9-1.5,0.2c1.2-4.2-2.1-1.9-3.3-2.3c-1-0.4-2.2-0.1-3.3-0.1
		c1.8-1.3,4.7-0.4,5.8-1.7c1.3-1.7-1-3.7-1.4-5.8c-0.5-3-1.6-6,2.2-7.7c2.9-1.3,6.9,0,8.6,3.4c1.6,3.4,2.4,5.7,6.7,2.4
		c2.5-1.9,6.5,0,7.7,2.5c1.4,2.9,0.3,5.7-2.9,7.9C895,610.7,893.2,610.5,893.2,612.3z"/>
	<path class="st14" d="M1014.6,394.7c-26.7,21.8-50.6,46.3-68.4,76.1c-5.6,9.3-10.1,19.2-13.4,29.6c-1.3,0-1-0.7-0.7-1.4
		c6.2-23,18.2-42.8,33.3-60.8c14.2-16.9,30.5-31.5,48.6-44.1c0.2-0.1,0.4-0.2,0.5-0.1C1014.9,394.1,1014.8,394.4,1014.6,394.7z"/>
	<path class="st15" d="M1092.7,910.8c-0.7-1-1.4-2-2.1-3c-11.2-23.1-16.4-47.5-15.8-73.1c0.1-4.9-0.1-9.7-0.1-14.6
		c0-2.2,0.2-4.5,0.1-6.7c0-1.5,0.5-2.4,2.1-2.3c0.3,11.8,0.7,23.7,0.8,35.5c0.1,21,5.9,40.3,16.6,58.3c0.9,1.5,1.6,3.1,3,4.2
		c0.3,1.6,3.6,2.4,1.9,4.1c-1.9,1.9-3.8-0.2-5.3-1.5C1093.5,911.4,1093.1,911.1,1092.7,910.8z"/>
	<path class="st16" d="M913.6,666.6c-2.1,0.9-3.3,4.3-5.9,1.6c-2.4-2.6-0.2-4.1,1.9-5.6c-5.2-0.3-6.4-1.3-5.8-4.7
		c0.3-1.9,1.2-3.4,3.4-3.2c1.6,0.1,2.8,1.5,4.8,1.3c0-0.6,0-1.2,0-1.8c-0.1-2.1,0.9-3.4,2.9-3.7c2-0.3,3.5,0.8,3.9,2.7
		c0.6,2.7,1.7,4.2,4.7,4c1.5-0.1,2.5,1.1,2.7,2.7c0.2,1.5-0.6,2.6-1.8,3.4c-1.2,0.8-2.6,0.7-4.1,0.9c0.2,2.2,2.6,5.2-0.8,6.4
		C916.7,671.5,914.8,669.2,913.6,666.6z"/>
	<path class="st17" d="M936.7,790.1c12.3,1.3,24.5,2.5,36.8,3.9c20.8,2.4,41.5,5.3,62.2,8.8c0.6,0.1,1.2,0.4,1.7,0.6
		c-2.8,0.1-5.6,0.5-8.3-0.5c-1.1-0.4-2.1,0-3.1,0.6c-1,0.2-1.9,0.2-2.9,0.2c-3.8-0.4-7.4-1.8-11.2-1.4c-0.6,0-1.2,0-1.8,0
		c-5.3-0.8-10.7-1.4-16-1.9c-0.8-0.1-1.5-0.4-2.3-0.6c-3.3-0.8-6.6,0-9.9-0.8c-0.8,0-1.6,0-2.5-0.2c-5.6-1.3-11.4-1.6-17-2.2
		c-7.8-0.9-15.6-1.9-23.3-3.2C936.2,792.8,935.9,792.4,936.7,790.1z"/>
	<path class="st18" d="M771,472.1c5.7-0.1,11.5-0.3,17.2-0.3c2.3,0,4.7-1.5,7,0c0.5,0.4,1.6,0,1.6,1.1c0,0.8-0.6,1.5-1.3,1.6
		c-3.6,0.4-3.4,2.9-3.6,5.6c-1.3,16.3-1.9,32.6-3.9,48.9c-1.8-0.6-1.3-2.1-1.6-3.4c0-13.9,1.4-27.6,2.7-41.4c0.7-8.1,1-8.1-7.2-8.1
		c-1.9,0-3.7-0.1-5.6-0.1c-6.9-1-13.8-0.7-20.7-0.8c-2.7,0-5.5,0.2-7.8-1.5c-0.3-0.5-0.2-0.9,0.2-1.2
		C755.6,472.1,763.3,472.8,771,472.1z"/>
	<path class="st19" d="M1089.1,820.7c-0.9,18.2-0.9,36.3,7.3,53.2c1.3,2.7,2.7,5.4,4,8.1c0.3,0.7,1.2,1.6,0.3,2.3
		c-0.9,0.7-1.9,0.1-2.7-0.6c-2.4-2.2-3.6-5.1-4.6-8c-5.7-16.1-8.4-32.6-6.5-49.7c0.2-2,0.3-4,0.4-6c0.3-1.8,0.6-3.5,0.8-5.3
		c0.2,0,0.3,0,0.5,0C1088.9,816.7,1089,818.7,1089.1,820.7z"/>
	<path class="st20" d="M747,592.8c0-0.3,0-0.6,0-0.8c1.5-1.3,3.3-1,5-1c6.8,0,13.7,0,20.5,0c5,0,5.1-0.1,5.9-5.1
		c0.2-1.3,0.5-2.7,0.8-4c1.4-10.1,3-20.2,4.3-30.4c0.5-4.1,0.7-8.2,2.1-12.2c0.2-0.4,0.6-0.6,1.1-0.4c0.2,9.4-1.6,18.6-2.4,27.9
		c-0.6,7.6-1.5,15.1-2.3,22.7c-0.1,0.7-0.4,1.5,0.2,2.1c0.7,0.6,2.1,1.1,0.9,2.2c-0.8,0.8-2.3,1.5-3.3,1.3
		c-10-1.4-20.1-1.2-30.1-1.9C748.7,593.1,747.9,592.9,747,592.8z"/>
	<path class="st21" d="M1067.9,724.7c-0.2,0-0.4,0.1-0.6,0.1c-1.9-3.6-1.3-7.7-2.3-11.5c-1.8-7-4.5-13.7-7.8-20.1
		c-1.5-2.9-2.7-5.9-4.4-8.6c-0.6-1-1.4-2.1-0.5-3.4c3.3,1.1,3.7,4.6,5.6,6.8c0.5,0.6,0.8,1.5,1.7,1.7c0.7,0.8,2.6,0.3,2.4,2.1
		c0.6,0.9-2-0.4-0.7,1c0.9,1,0.6,2.4,1.4,3.4l0,0c3,3.2,3.2,7.5,4.5,11.3c0.5,3.4,1.1,6.8,1.4,10.2
		C1068.9,720.1,1068.6,722.5,1067.9,724.7z"/>
	<path class="st22" d="M1023.9,802.9c0.9-0.3,1.7-0.5,2.2,0.6c-1.1,4.1-2,8.3-2.4,12.6c-2,10.1-3,20.3-3,30.6c-0.5,3.7-0.4,7.3,0,11
		c0,2.9,0.1,5.9,0.1,8.8c-1.8-0.2-1.7-1.7-1.8-2.8c-0.4-3.8-1.2-7.6-0.8-11.5c-0.2-10.9,0.1-21.7,1.7-32.4c0.9-4.1,1.3-8.3,2.2-12.5
		C1022.5,805.7,1022.5,804,1023.9,802.9z"/>
	<path class="st23" d="M899.3,718.6c-1,0.6-2,1.1,0,1.7c0.2,0.5,0,1-0.2,1.4c-0.6,1-0.3,2.3-1.2,3.2c-0.5,0.2-1,0.2-1.4-0.1
		c-0.9-1.2,1.9-3.8-1.6-4c-0.1-1.6,1.9-1.1,2.2-2.3c2-9.4-0.1-18.5-1.7-27.7c-0.7-3.9-1.4-7.8-2.1-11.7c0-0.9-1-2.2,0.9-2.4
		c0.5,3.7,2.7,0.7,4,1c0.1,0.3,0.2,0.5,0.3,0.7c-4.5,1.4-2.7,4.5-2.1,7.5c1.9,9.8,3.7,19.6,2.5,29.6
		C898.5,716.6,898.4,717.8,899.3,718.6z"/>
	<path class="st24" d="M786.6,538.8l-0.3,0c-2.9-2.9-6.6-1.7-10-2c-1.1,0-2.1-0.1-3.2-0.3c-3.8-0.9-7.8-0.3-11.6-0.4
		c-1.5,0.1-3,0-4.6,0c-1.2-0.2-2.8,0.1-3.2-1.6c1.7-0.1,3.5-0.2,6-0.3c-1.5-0.5-2.2-0.7-3-1c0.1-0.4,0.3-0.8,0.7-0.9
		c6.2,0.1,12.4,0.2,18.5,0.7c3.2,0.1,6.4,1.3,9.4-0.5c0.9-2.1-0.8-5,1.8-6.5c0.3,1.1-0.1,2.3,0.7,3.2
		C787.7,532.3,787.7,535.6,786.6,538.8z"/>
	<path class="st25" d="M882.8,629.7c1-0.1,2-0.1,2.9-0.2c0,1.8-0.4,3.7,0.2,5.4c0.2,0,0.3,0.1,0.5,0c1.7-0.3,4-2.3,4.8,0.3
		c0.7,2.4-1.9,2.6-3.8,2.6c-1.9,0-1.7,1.5-1.6,2.7c0.2,2.1,0.5,4.2,0.7,6.2c-0.3,0.4-0.5,0.4-0.8,0c-0.9-0.8-0.7-1.8-0.7-2.8
		c0.1-1.8-0.6-2.2-2.2-1.7c-0.2,0.1-0.5,0-0.7,0c-1.5,0.1-2.7-0.4-3.5-1.7c-0.1-0.2-0.1-0.9,0-1c1.2-0.7,2.4-0.3,3.6,0.1
		c0.7,0.3,1.4,0.6,3.2,1.3C883.1,636.9,885.9,632.9,882.8,629.7z"/>
	<path class="st26" d="M885.7,646.7c0.3,0,0.5,0,0.8,0c2.5,10,5.5,19.9,7.5,30c-1,0.5-0.6,1.6-0.9,2.4
		C890.6,668.4,887.4,657.7,885.7,646.7z"/>
	<path class="st27" d="M897,718.6c0.5,1.9-1.5,1.5-2.2,2.3c-4.3,0.5-8.7,0.4-12.9,1.6c-1-1.3-2.9,2.4-3.3-0.5
		c-0.3-2.2,1.8-2.6,3.3-2.7C886.8,718.9,891.9,718.8,897,718.6z"/>
	<path class="st28" d="M932.2,499c0.2,0.5,0.4,0.9,0.7,1.4c-2,8.7-4.5,17.2-4.4,26.2c0.1,4.3,0.4,8.7,0.6,13
		c-0.2,0.7-0.5,1.5-0.7,2.2c-1.7-6.7-0.8-13.6-0.4-20.3c0.3-7,1.5-14.1,3.4-20.9C931.6,500,931.9,499.5,932.2,499z"/>
	<path class="st29" d="M685.6,582.9c-1.2,0.5-2.7-0.3-3.8,0.7c-11.1-0.7-22.2-1.3-33.2-2c4.3-0.8,8.6,0.7,12.9-0.8
		c0.8-1,1.9-1.2,3-1.1c6.3,0.6,12.6,0.9,18.9,1.6C684.4,581.4,685.4,581.6,685.6,582.9z"/>
	<path class="st13" d="M897.7,622.6c0.1-2.7,0.5-5.4-2.9-6.7c-1.2-0.5-1.3-2.3-1.6-3.6c0.7,0.2,1.4,0.3,2.1,0.6
		c1.9,0.6,4.6-0.1,5.3,2.4C901.5,618.2,900.3,620.8,897.7,622.6z"/>
	<path class="st2" d="M1067.2,707.6c-1.9-3.6-3.1-7.5-4.5-11.3c0.7-0.3,1.4-0.6,2.1-0.8c0.7-0.2,1.4-0.9,2.1-0.2
		c0.7,0.7,0.7,1.9,0.1,2.4c-2,2-1.1,3.9,0.2,5.6C1068.4,704.8,1066.9,706.2,1067.2,707.6z"/>
	<path class="st30" d="M1095.8,691.1c-2,0-4,0-5.9,0c0-0.2,0-0.4,0-0.5c7.1-0.9,14.3-1.8,21.4-2.7c0.8-0.3,1.1,0.1,1,0.9
		C1106.8,689.7,1101.3,690.7,1095.8,691.1z"/>
	<path class="st31" d="M1062,691.4c-0.8-0.5-2.4,0.1-2.2-1.7c6.4,0.9,13,0.6,19.4,2c-5.2,0-10.4,0.1-15.6,0.1
		C1062.9,692.2,1062.3,692.2,1062,691.4z"/>
	<path class="st32" d="M771,472.1c-6.1,1.3-12.2,0.4-18.3,0.8c-1.6,0.1-3.2,0-4.8,0c-1.5,0.7-3,1.5-3.8-0.8
		C753,472.1,762,472.1,771,472.1z"/>
	<path class="st33" d="M1032.8,385.1c0.2,0.8,1,0.5,1.5,0.8c-4.7,1.8-9.4,3.4-14.3,4.5C1024,387.9,1028.3,386.2,1032.8,385.1z"/>
	<path class="st9" d="M744,472.1c1.1,1.1,2.6,0.4,3.8,0.8c0,0.2,0,0.4,0,0.6c-3,1.2-3.8,3.5-3.6,6.5c0.1,1.7,0.7,3.8-1.7,4.8
		c0.2-4.2-0.9-8.5,0.6-12.6C743.5,472.1,743.8,472.1,744,472.1z"/>
	<path class="st34" d="M1112.2,688.7c-0.3-0.3-0.7-0.6-1-0.9c3.8-0.5,7.4-3.2,11.5-1.3C1119.2,687.2,1115.7,688,1112.2,688.7z"/>
	<path class="st35" d="M1163.5,780.4c-0.3-0.3-0.6-0.6-0.9-0.9c1-2.6,1.9-5.3,3-7.8c0.6-1.4,0.6,0.1,0.8,0.3
		C1165.6,774.9,1165.1,777.9,1163.5,780.4z"/>
	<path class="st2" d="M1062,691.4c0.5,0.1,1,0.3,1.5,0.4c-0.3,1.5-0.5,3-0.8,4.5c-0.7-1.1-1.3-2.2-2-3.3
		C1059.6,691.2,1061.4,691.8,1062,691.4z"/>
	<path class="st36" d="M1014.6,394.7c-0.2-0.2-0.4-0.4-0.6-0.6c1.7-1.7,3.7-3,6-3.8C1018.6,392.2,1016.7,393.5,1014.6,394.7z"/>
	<path class="st32" d="M725.3,471.2c-2.8,0.1-5.6,0.5-8.3-0.6C719.8,470.5,722.6,470.2,725.3,471.2z"/>
	<path class="st37" d="M936.7,790.1c-0.9,1.9,0.5,2,1.8,2.2c10.8,1.5,21.7,3,32.5,4.4c3.1,0.4,6.5-0.9,9.3,1.6c0.9,0.9,1,2,0.9,3.1
		c-0.8,4.9-0.7,9.9-1.6,14.8c-0.1,0.6-0.4,1.2-1,1.5c-11.4-0.6-22.7-1-34.1-2.1c-4.9-0.5-9.9-0.6-14.8-0.8
		c-4.4-0.2-8.9-0.4-13.3-0.8c-3.8-0.4-1.1-3.7-2.2-5.3c0.2-6.2,0.4-12.4,0.5-18.7c0-2.2,1-2.4,2.8-2.2
		C923.9,788.6,930.3,789.3,936.7,790.1z"/>
	<path class="st38" d="M897.7,813.3c0.1-8.5,0.2-16.9,0.3-25.4c0-1.7,0.6-2.1,2.3-1.9c3.3,0.5,6.7,0.8,10,1c2.2,0.1,2.7,1.1,2.6,3.1
		c-0.4,6.5-0.6,12.9-0.9,19.4c-1.4,3.9-2.4,4.5-7,3.5C902.4,812.4,900,812.1,897.7,813.3z"/>
	<path class="st39" d="M991,850.8c0.5,4,1.3,8,1.2,12c-1.5,6.1-3.6,6.5-9.7,2.1c0.5-2.9-0.7-5.6-1.3-8.3c-1.3-6.2-1.9-12.4-2.3-18.6
		c1.3-2.2,0.2-4.6,0.6-6.9c0.2-1.4,0-2.7,2.4-1.7c2.1,0.9,4.8,2.1,6.9-0.5c0.1-0.2,0.7,0.2,0.9,0.5c0.4,1,0.3,2,0.3,3
		c-0.3,5.6,0.4,11.1,0.4,16.7C990.4,849.8,990.3,850.5,991,850.8z"/>
	<path class="st40" d="M1019.1,852.2c0.4,4.8,0.5,9.6,1.6,14.3c0.7,3.8,1.4,7.5,2.1,11.3c-1.8,1.8-4.3,1.9-6.5,2
		c-3.3,0.1-4.1-2.6-4.5-5.2c-0.6-4.1-1.2-8.3-2.6-12.3c-0.1-0.2-0.2-0.5-0.3-0.7c-1-11.5-2.6-23-1.2-34.5c0-0.1,0.2-0.2,0.2-0.3
		c1.5,1.2,1.1,2.9,1.2,4.5c0.2,4.3-0.3,8.7,0.3,13c0.3,4.6,0.3,9.2,1.8,13.7c0.4,4.5,1.8,8.8,2.9,13.1c-0.9-4.3-2.7-8.3-2.7-12.7
		c-1.4-3.9-1.7-7.9-1.8-12c-0.1-2.3,1.1-3.1,3.2-3.1c1.3,0,2.5,0.5,3.7,0.4c2.4-0.2,2.6,1,2.5,2.9
		C1018.9,848.5,1018.5,850.4,1019.1,852.2z"/>
	<path class="st41" d="M989.2,829c-0.7,0.6-1.1,1.3-1.1,2.2c0,0.6-0.6,1.2-0.6,1.2c-1.6-2.8-5.7,1-7.2-2.6c0,2.3,0,4.6,0,6.9
		c0,0.9,0.1,1.9-1.3,1.3c0-1.3,0-2.6,0-3.9c0.3-5.6,0.4-11.2,0.5-16.8c0.1-6.2,1.2-12.3,1.7-18.5c0-0.5,0.4-0.9,0.7-1.3
		c3.3,1.4,7.1-0.5,10.4,1.3c1.1,3.3,0,6.5-0.4,9.7c-0.5,3.7-0.9,7.3-1.2,11c-1.4,2.8-0.1,6-1,8.8C989.5,828.7,989.4,828.8,989.2,829
		z"/>
	<path class="st42" d="M993.9,799.8c5.6-0.7,10.9,0.9,16.4,1.5c0.8,0.9,0.8,2,0.6,3.1c-0.4,3.8-1.2,7.5-1.2,11.4
		c0,1.4-0.2,2.8-1.7,3.4c-5.5-1.2-11-0.6-16.5-0.8c-2.1-3-0.3-6,0.1-8.9C992.2,806.3,991.2,802.6,993.9,799.8z"/>
	<path class="st43" d="M1005.9,881.4c1.3-2,3-3.7,5-5c2.3,2.1,4.6,4.1,8.3,3.6c1.6-0.2,1.9,1.2,1.3,2.6c-0.6,1.2-1,2.6-2.4,3.2
		c-4.6,0.4-8.7,2.5-13.1,3.7c-1.3,0.3-1.9,0.3-2.1-1C1002.5,885.5,1005.4,884,1005.9,881.4z"/>
	<path class="st44" d="M645.6,842.5c3.6-0.1,7.4,3.8,7.6,6.8c0.1,2.4-2.7,5-5.5,5c-3.1,0-4.9-1.8-4.9-5.2
		C642.8,846.4,641.7,842.9,645.6,842.5z"/>
	<path class="st45" d="M1005.9,881.4c0.6,2.8-2.6,4.2-2.5,6.8c-0.3,2.3,0.4,4.2,2.5,5.2c2.1,1,3.8-0.3,5.5-1.4
		c2.6-1.8,3.4-5.2,6.4-6.7c1.2-1.1,2-2.4,2.6-4.3c-3.9-0.1-7.8-0.3-9.5-4.6c0.3-0.6,0.5-1.2,0.8-1.8c0.3,0.3,0.9,0.6,1,1
		c1,3.1,2.9,4.1,6,3c1.3-0.4,2.7-0.5,4-0.8c-2.8,7.5-4.8,15.6-13.8,18.4c-2.6,0.8-4.9,0.8-6.9-1.3c-1.6-1.8-2.2-3.8-1-6
		C1001.8,885.8,1004,883.7,1005.9,881.4z"/>
	<path class="st46" d="M972.7,879.9c0.1-0.7,0.1-1.4,0.2-2.1c3.7-0.1,7.1-1.6,10.6-2.9c2.6-0.9,3.7-0.2,3.9,2.4
		c-1.4,3.8-4.1,6.5-7.8,8.1c-2,0.9-3.9,0.6-5.7-0.6C972.1,883.6,971.9,881.9,972.7,879.9z"/>
	<path class="st47" d="M986.8,876.9c-0.7-0.8-0.5-2.4-2.7-1.1c-2.5,1.4-5.8,1.7-8.5,3.1c-1.5,0.7-2-0.4-2.7-1.1
		c0.8-2.7,2.8-4.6,4.4-6.8c2.8-0.4,5.7-0.5,8.4-1.4c1.5-0.5,3.3-0.5,4.1,1.4C989.7,873.5,989.2,875.7,986.8,876.9z"/>
	<path class="st48" d="M782.4,883c2.2-0.1,5,2.7,5.1,5.1c0,1.5-4.7,5.1-7.1,5.1c-2.1,0-3.4-1-3.4-3.4
		C777,886.1,779.3,883.1,782.4,883z"/>
	<path class="st49" d="M911.2,828.8c0.2,0.9-0.1,1.8,0.8,2.5c-0.1,10.2-3.6,19.3-8.8,27.9c-0.4,0.7-1.1,1.4-1.7,2
		c-0.9,0.8-2,1.3-3,0.4c-1-1,0-1.8,0.6-2.6c4.1-5.4,7.1-11.4,9.6-17.7C910.4,837.2,910.2,832.9,911.2,828.8z"/>
	<path class="st50" d="M986.8,876.9c1.1-1.8,2.2-3.5,2.5-5.7c0.4-2.1-1.2-1.5-2.3-1.8c-2.3-0.6-5-0.9-4.6-4.3c0,0,0-0.2,0-0.2
		c0.8-0.1,1.4,0,2.1,0.3c4.9,2.3,4.9,2.3,7.6-2.5c-0.5,8.8-2.9,16.7-10.2,22.3c-1.6,1.2-3.5,1.9-5.6,1.8c-1.9-0.1-3.8-0.3-4.8-2.3
		c-0.8-1.7-0.4-3.4,1-4.8c0.4,4.5,3.4,6.2,7.4,4.5C983.5,882.9,985.5,880.2,986.8,876.9z"/>
	<path class="st51" d="M1008.1,819.2c0.7-6,1.5-12,2.2-18c0.6,0,1.1,0,1.7,0c1.1,1.5,0.7,3.1,0.5,4.7c-0.5,3.6-1.1,7.1-1.2,10.7
		c-1.1,7.7-0.3,15.4-0.6,23.1c-0.1,1.9,0.4,4-1.9,5.1c-1.2-6-0.4-12-0.9-18C1007.9,824.3,1008,821.8,1008.1,819.2z"/>
	<path class="st52" d="M666.9,863.6c-2.2,0.3-3.7-1.2-3.8-3.8c-0.1-2.3,1.8-2.8,3.6-2.9c2.2-0.2,5.5,2.6,5.2,4.4
		C671.5,863.8,669.3,863.4,666.9,863.6z"/>
	<path class="st53" d="M981.9,797.7c-1,12.2-2,24.3-3,36.5c-0.1-5.5-0.2-11-0.3-16.5c0.6-6.5,1.2-13,1.7-19.5
		C980.9,798.1,981.4,797.9,981.9,797.7z"/>
	<path class="st54" d="M993.9,799.8c-1.2,6.2-2.1,12.4-2.3,18.7c-1.1,4.7-0.7,9.4-1,14.2c-0.7,0.2-1-0.1-1.2-0.7c0-1-0.1-2-0.1-3
		c0,0,0.2,0.1,0.2,0.1c0.7-3-0.2-6.1,0.5-9.1c0.2-7,1.2-14,2.4-21C992.9,799,993.6,799,993.9,799.8z"/>
	<path class="st52" d="M754.2,880c2.4-0.1,4.6,0.2,4.4,2.3c-0.3,2.5-2.9,3.3-5.1,3.5c-2.2,0.2-3.5-1.5-3.4-3.6
		C750.3,879.1,753,880.4,754.2,880z"/>
	<path class="st55" d="M982.5,865.1c0.6,3.1,3.2,3.3,5.5,3.5c2.3,0.2,2.6,0.9,1.4,2.7c-1.6-1.7-3.2-1.1-5-0.3c-2.3,1-4.7,1.4-7,0.1
		C978.6,868.7,980.9,867.2,982.5,865.1z"/>
	<path class="st56" d="M989.4,831.9c0.4,0.2,0.8,0.5,1.2,0.7c0.1,6.1,0.3,12.1,0.4,18.2c-2.2-2.8-0.9-6.1-1.6-9.2
		C988.8,838.5,989.3,835.2,989.4,831.9z"/>
	<path class="st43" d="M1001.2,888.9c0.1,2,0.2,4.1,1,6C999,893.4,999,891.3,1001.2,888.9z"/>
	<path class="st40" d="M1020.6,857.8c-0.9-3.7-0.7-7.3,0-11C1020.6,850.5,1020.6,854.1,1020.6,857.8z"/>
	<path class="st57" d="M1038.5,384.9c2.7-1.1,5.5-1.9,8.5-2.1c0.4,0.5-0.4,1.5-0.1,1.5c1,0,0.8-0.9,0.7-1.6
		c9.4-2.7,19.1-3.9,28.7-4.8c26.1-2.5,51.7-0.2,76.2,9.3c35.6,13.8,59.5,39.4,73.6,74.5c8.3,20.7,13.2,42.2,13.2,64.6
		c0,28.3-8.4,54.3-23.7,78.1c-6.9,10.8-14.6,21.1-23.9,30.1c0-1.9-0.2-3.7-1.7-5.1c-1.9-1.7-1.6-3,0.9-3.6c0.9-0.2,1.9-0.3,2-1.3
		c0-1.3-1.3-0.8-2-1.1c-2.2-1.2-4-3-6.7-3.5c-2.1-0.4-2-6,0-7.8c0.6-0.6,1.5-0.9,2.1-1.5c1.1-1.2,1.7-2.4-0.7-2.8
		c-1.1-0.2-2.2-0.6-3.3-0.7c-2.6-0.2-3.6-1.3-2.6-3.8c0.8-0.8,2.2-0.4,3-1.3c0.8-1.1,1.3-2.3,0.4-3.4c-1-1.3-2.2-0.5-3.3,0.2
		c-0.8,0.6-0.8,1.8-1.8,2.3c-0.4-2.5-1.7-4-4.3-4.5c-1.3-0.3-2.6-1-3.2-2.4c-1.4-3.3-3.4-5-6.8-2.2c-1-1.9-0.8-3.5-0.7-5.3
		c0.2-2.4,0.8-5-2.7-5.9c-1.2-0.3-1.6-1.8-1.7-3.1c-0.1-1,0.3-2.4-0.6-2.8c-4.1-2-5.5-6.1-7.5-9.6c-2.1-3.5-2.2-8.2-7-10.1
		c-1-0.4-2-3.6-3.6-5.4c-2-2.3-0.2-5,0.5-7.4c0.4-1.4,1.1-2.8,0.9-4.3c2.4-1.7,4.9-1.4,7.3-0.2c0.9,1.9-1.4,1.2-1.7,2.1
		c2.3,0.7,4-0.7,5.8-1.8c3.6-1,7.2,0.2,10.8,0.3c4.4,0.1,8.7,0,13.1,0c1,0,2.6-0.5,3,0.8c0.4,1.5-1.1,2.1-2.1,2.6
		c-2.5,1.4-5.1,2.6-8.1,4.1c6-0.6,10.6-3.1,14.5-6.9c2.9-2.7,2.8-5.1-0.2-7.6c-3.1-2.6-6.2-5-9.8-6.9c-0.6-0.3-1.4-0.8-2.1-0.2
		c-0.8,0.8-0.4,1.7,0.2,2.4c1.3,1.7,3.2,2.7,4.8,4.2c0.6,0.6,1.4,1.2,1.1,2.2c-0.3,1-1.3,1-2.2,1.1c-0.9,0.1-1.7,0.1-2.6,0.1
		c-12.1-0.1-24.1-1.2-36.2-2.1c-2.1-0.2-4.2-0.1-6.4-0.2c-1.4-0.1-3.1,0.3-3.7-1.6c1.2-0.1,2.5-0.1,4.3-0.2
		c-2.6-1.6-3.3-4.4-5.9-5.4c-0.5-0.2-0.9-0.9-1-1.4c-0.8-4.8-4.5-7.5-7.5-10.6c-1.7-1.7-1.6-3.5-1.6-5.5c0.1-2.3,0.1-4-3.1-4.2
		c-2.3-0.1-3.1-2.3-2.9-4.5c0.1-1,0.7-2.3-0.2-2.8c-3.3-1.8-4.7-5.7-7.9-7.6c-2.1-1.2-3-2.3-2.1-4.8c0.8-2,0.5-3.9-2.1-4.6
		c-0.6-0.2-1.4-0.9-1.5-1.5c-0.5-2.4-1.3-4.1-4.2-4.5c-1.8-0.3-1.7-2.5-1.6-4.2c0.1-2.3,0.2-4.6-2.4-5.7c-0.1,0-0.3-0.2-0.3-0.2
		c-0.6-4.9-5.2-7.4-7-11.6c-0.1-0.2,0-0.7-0.2-0.7c-4.7-1.6-3.9-6.2-5.3-9.7c-0.8-2-3.1-2.7-5.1-3.4c-2-0.8-2.8-2.1-3.1-4.2
		c-0.4-3.4,0.4-7.4-4.1-8.9c-0.2-0.1-0.4-0.4-0.4-0.6c-0.4-4.1-1.8-7.5-5.3-10.2c-1.3-1-1.6-3.1-4-3.3c-2.1-0.2-1.9-2.2-2-3.8
		c0-1.5,0.5-4.1-0.5-4.2c-3.1-0.4-3.6-4-6.6-4.4c-2.9-0.4-5.7-2-8.1-4c0.2-0.1,0.4-0.4,0.6-0.4c2.3,0.1,4.4-0.8,5.8-2.3
		c2.5-2.6-2.3-2.4-2.1-4.4C1039.9,386.1,1039,385.5,1038.5,384.9z"/>
	<path class="st58" d="M1127.1,530.6c7.8,0.6,15.6,1.3,23.5,1.8c9.1,0.6,18.2,1,27.9,1.5c-1.9-2.7-4.3-3.8-6.3-5.2
		c-2.7-1.9-2.3-4.1-0.9-6.8c5.4,2.9,10.6,6.1,14.8,10.5c1.3,1.3,1.9,2.8,1,4.7c-2.7,5.5-13.7,11-20.4,9.7c4.1-3.2,9.2-4.1,13.6-7.7
		c-9.8,1.1-18.6-0.4-27.5-0.4c-1.2,0.6-2.4,1.1-3.5-0.1c-2.5-0.8-5.1-0.7-7.7-0.6c-11.8-1-23.6-2.1-35.4-3.1c-1-0.1-2,0-3-0.2
		c-3.4-0.8-5.8-0.4-7.8,3.2c-2.2,3.9-7.8,4.7-12.1,2.4c-3.3-1.7-4.7-5.3-2.7-9.8c1.8-4.1,0.8-7.1-1.2-10.7c-5.6-10.4-11-21-15.6-32
		c-1.2-3-2.2-6.1-3.4-9.3c-3,2.1-3.6,6.7-8.4,7.3c1.8-5.2,3.7-9.9,6.5-14.3c0.8-1.2,1.9-1.5,3.2-0.9c5.2,2.1,10.4,4.4,15,7.6
		c0.9,0.6,2.2,1.4,1.5,2.7c-0.7,1.2-1.9,0.2-2.8,0.2c-2.6,0-4.5-2.9-7.3-1.4c6.5,13.2,11.4,27.1,17,40.6c0.8,2,1.6,3,3.9,2.9
		c3.2-0.2,5.9,1,7.7,4c1.8,3,5.1,1.6,7.9,1.8c3,0.9,6.1-0.2,9.1,0.7C1118.1,530.8,1122.6,530.6,1127.1,530.6z"/>
	<path class="st59" d="M1074.7,638.7c-0.3,0.4-0.5,0.9-0.8,1.3c-0.2,0.5-0.4,1-0.8,1.4c-8,8.3-17.7,14.1-27.7,19.5
		c-1.9,1.6-4.1,3.1-2,6.1c0.1,0.4,0.1,0.7-0.1,1.1c-1.5,2.6-3.5,4.2-6.7,3.2c-5-1.5-6.2-2.9-6.4-7.7c0.3-2.1-1.3-3.2-2.7-4.2
		c-1.8-1.3-1.5-2.1,0.3-2.8c4.4-1.7,8.7-3.7,12.8-6c2.8-1.6,4.4-5.3,8.3-5c0.7,0,0.7-0.9,0.8-1.5c1.1-4.2,4.7-6.6,9.1-6.2
		c1.2,0.1,2.5,0.6,3.7,0.3c1.7-0.4,3.8-0.3,3.5-3.2c-0.1-1.3,1-2.2,2.3-2.6c2.3,0,3.7,1.7,5.4,2.9
		C1075.1,636.1,1075.5,637.3,1074.7,638.7z"/>
	<path class="st60" d="M1002.8,644.5c-1.9-3.5-3-7.2-3.9-11.1c-1.7-1.5-1-3.5-1.3-5.3c-1.3-2-1.1-4-0.3-6c1.3,1.4,1.9,3.7,4.5,3.5
		c10.5,1.3,20.2-0.6,28.8-6.9c1.1-0.8,2.2-2.2,3.5-1.1c1.3,1.1,0.2,2.5-0.4,3.7c-0.4,0.9-1,1.7-1.7,2.4c-2.2,2.3-4.7,4-7.8,4.7
		c-2.5,0.5-3.4,2.6-5.1,4.1c-1.5,1.3-3.2,3.9-5.2,0.4c-0.5-1.2-0.4-3.2-2.4-2.4c-1.6,0.6-1.1,2.2-0.4,3.5c0.3,0.5,0.7,1,0.8,1.6
		c-0.3,1.6-1.8,1.4-2.8,2c-0.6,0.3-1.2,0.7-1.7,1c-1.5,1.3-2.1,3-2.4,4.9C1004.8,644.7,1004.5,646.3,1002.8,644.5z"/>
	<path class="st61" d="M1044.8,660.3c1.7-1.1,3.3-2.3,5.1-3.1c7.8-3.8,14.8-8.7,20.9-14.9c0.7-0.7,1.3-1.6,2.5-1.5
		c-0.5,4.6-4.6,6.5-7.3,9.4c-0.9,1-2.1,1.7-2.7,3c-1.6,2.2-2.2,3.9,1.4,4.6c2.3,0.5,3.6,2.5,4.7,4.5c2.8-2.6,2.7-5.2-0.2-7.3
		c-1.5-1.1-3.6-1.1-5-2.4c-0.1-1.4,1-2,2-2.3c4.3-1.2,7.4-3.8,9.1-7.9c0.1-0.3,0.6-0.4,1-0.4c2.7,5.4-2.3,6.7-5.1,9.1
		c6.5,5,4.4,15.1-3.9,19.3c-2.5-1.3,0.7-3.7-1.4-5.3c-1.4,2-3.4,3.3-6,3.3c-2.2,0-3.7-1.3-5.2-2.7c-1.5-2.1-0.8-4.5-1-6.9
		c-2.7,0.6-5,2.6-7.9,2.5C1045.1,661.3,1044.7,661.1,1044.8,660.3z"/>
	<path class="st62" d="M1003.5,606.3c11.2-18,34.1-28.1,53.5-23.4c-1.1-2.1-3.6-3.9-1.7-6.1c1.4-1.7,3.4-2.9,5.3-4.1
		c1.8-1,3.1-0.1,3.9,1.6c0.8,1.8,0.6,3.7,0.6,5.5c0.2,0.9,0.6,1.9-0.6,2.5c-1.2-0.6-1.2-1.8-1.6-2.8c-0.2-0.6-0.3-1.2-0.5-1.7
		c-0.5-1.1-1-2.1-2.4-1.5c-1.4,0.6-1.4,1.9-0.9,3.1c0.5,1.1,1.3,2.1,1.9,3.1c0.6,1.2,2,2.1,2,3.7c-0.1,0.4-0.4,0.6-0.7,0.8
		c-3.5-0.3-6.7-1.5-10.1-2.3c-9.7-2.1-18.1,0.8-26.1,5.9c-2.3,1.4-4.6,3-6.8,4.6c-4.2,2.9-8,6.2-11.5,9.8c-1.1,1.1-2,2.5-3.7,2.9
		C1003.2,607.6,1002.9,607.1,1003.5,606.3z"/>
	<path class="st63" d="M1071.1,582.3c5.4-2,6.4-1.6,8.4,3.8c1.4,3.7-0.1,5.6-4,5c-1.1-0.2-2.2-0.4-4.6-0.9
		c16.4,12.5,15.9,26.8,7.6,42.3c-2.3-0.8-1-2.4-0.7-3.6c0.6-2.6,2-5.1,1.9-7.8c0.5-3.3,1.1-6.5,0.4-9.8c-1.2-4.6-3.1-8.9-6.1-12.6
		c-2.5-3.3-4.4-7.1-8.1-9.3c-0.4-0.3-0.5-0.8-0.3-1.3c2.1-1.4,4.2-0.3,6.4-0.3c2.3,0,3.8-0.6,2-3.2
		C1073.3,583.6,1071.2,584.3,1071.1,582.3z"/>
	<path class="st64" d="M957.2,524.1c-3.7,1.3-6.8,1.8-9.5-0.4c-2.6-2.2-2.3-5.4-1.7-8.4c0.9-5.3,4.1-9,7.6-9.1
		c3.7-0.1,6.9,3.6,7.9,9.1c2,10.5-3.7,17.3-15.2,17.4c1.8-0.7,3.7-1.3,5.5-2.1c5.6-2.4,8.4-7,8-13c-0.3-3.8-2.7-6.8-5.6-6.9
		c-2.6-0.1-5.5,2.6-6,5.7c-0.6,3.1,1.3,5.5,5.1,6.7C954.3,523.5,955.4,523.7,957.2,524.1z"/>
	<path class="st65" d="M1045.7,661.1c2.8-1.2,5.6-2.3,8.6-3.5c0.6,2.8-0.7,5.6,0.9,8c0.8,0.9,0.7,1.9,0,2.6c-1.9,2.1-2.9,4.7-4.5,7
		c-0.5,0.2-0.9,0.5-1.4,0.7c-1.7,0.5-1.9-1.1-2.6-1.9c-0.8-0.9-1.1-2.2-2.3-2.8c-0.6-0.3-1.2-0.6-1.4-1.3c-0.1-1,1-1.9,0.2-2.9
		l0.1,0.1C1041.3,664.4,1042.1,662.5,1045.7,661.1z"/>
	<path class="st66" d="M1050.7,675.3c-0.2-2.9,1.4-4.9,3.2-6.8c0.9-0.9,1.4-1.7,1.3-2.9c4.4,4.1,8.7,2.2,10.3-2.4
		c2.9,2,1.6,4.9,1.5,7.5c-1.7,4.3-5.2,5.4-9.3,5.2C1055.4,675.7,1053.1,675.5,1050.7,675.3z"/>
	<path class="st67" d="M1080.7,621.3c0.2,2.8-1.3,5.3-1.9,7.9c-0.3,1.1-1.6,2.2-0.3,3.4c-0.8,2.4-2.4,4.2-3.8,6.2
		c0.4-1.5-0.5-2.3-1.4-3.2c-0.9-2.4-3.4-3-5.1-4.5c-1.5-1.4-3.6-2.3-3.5-4.8c1.4-2.6,3.3-3.9,6.5-3.6
		C1074.4,622.8,1077.5,621.4,1080.7,621.3z"/>
	<path class="st68" d="M1044.8,670.8c2.8,0.6,2.4,4,4.6,5.2c1,1.7,2.1,3.5,3.1,5.2c3.5,7.8,8,15.2,10.9,23.3
		c2.4,6.6,4.2,13.3,4,20.4c-0.2,1,0,2.1-0.8,2.9c-0.3,0-0.5,0-0.8-0.1c-1.7-2-0.2-4.3-0.4-6.5c-0.6-4.9-1.7-9.5-3.8-14
		c-2.1-5.8-5.1-11.1-7.6-16.8c-2.6-5.4-5.1-10.8-8.2-15.9C1045.1,673.4,1044.2,672.3,1044.8,670.8z"/>
	<path class="st69" d="M997.6,628.1c0.9,1.7,1.4,3.4,1.3,5.3c-1.4,4.4,1,8,2.2,11.9c-1.5-0.3-2.7-1.1-3.6-2.2
		c-0.2-0.6-0.6-1-1.1-1.5c-4.2-4.6-4.4-6.6-1.1-11.5C996.1,629.4,997.6,629.6,997.6,628.1z"/>
	<path class="st70" d="M1063,652.6c3.4-3.9,7.6-7.1,10.2-11.7c0.3-0.3,0.5-0.6,0.8-0.9c0.6,0.8,2,0.9,2.2,2.2
		c-1.4,5.1-4.8,8.1-10,9.1c-0.9,0.2-1.6,0.5-2.1,1.3C1063.7,653.1,1063.3,653.1,1063,652.6z"/>
	<path class="st71" d="M967.5,586.5c-0.3,1.8-0.2,4.1-2.8,4.1c-2.1,0-3.6-1.3-3.7-3.5c-0.1-2.6,1.9-3.2,4-3.5
		C967.3,583.4,967.4,585,967.5,586.5z"/>
	<path class="st72" d="M982.5,464.3c-0.2,1.8-0.4,4-3,3.8c-2-0.1-3.5-1.5-3.5-3.7c0-2.7,2.2-3.1,4.2-3.3
		C982.3,460.9,982.4,462.6,982.5,464.3z"/>
	<path class="st73" d="M1178.1,601c0.1-1.2-0.2-2.6,1.1-3.3c1.4-0.8,3-1.9,4.4-0.8c1.7,1.3,1.1,3.4,0.5,5.1
		c-0.9,2.3-2.7,1.6-4.4,1.2C1179.2,602.5,1178.7,601.7,1178.1,601z"/>
	<path class="st74" d="M1133.5,644.3c-0.2,1.8-0.2,4.1-2.8,4c-2,0-3.5-1.3-3.6-3.5c-0.1-2.7,2-3.1,4-3.4
		C1133.4,641.1,1133.4,642.8,1133.5,644.3z"/>
	<path class="st75" d="M1040.3,408c-0.1,1.7-0.2,3.8-2.7,3.9c-2,0-3.5-1.2-3.6-3.5c-0.1-2.7,1.9-3.2,3.9-3.5
		C1040.1,404.6,1040.3,406.2,1040.3,408z"/>
	<path class="st76" d="M1003.5,606.3c0.1,0.5,0,1.1,0.6,1.4c0.8,1.6-0.3,2.9-1,4.1c-1.5,3-2.6,6.2-3.4,9.4c-0.3,1.2-0.7,2.4,0.7,3.2
		c0.5,0.5,1,1.1,0.7,1.9c-2.8-0.1-4.4-1.3-4-4.4C998.5,616.4,1000.1,611,1003.5,606.3z"/>
	<path class="st77" d="M1071.1,582.3c1,1.3,2.9-0.1,3.8,1.3c-2.9,1.7-6.5,1.8-9.4,3.5c-0.7,0.3-1.5,0.4-2.2,0.1
		c-0.4-0.2-0.6-0.4-0.6-0.8l-0.1-0.2c0.8-1.3,0.2-3.1,1.7-4.1c0.3-0.7,0.5-1.5,0.8-2.2C1066,583.6,1068.7,582.5,1071.1,582.3z"/>
	<path class="st78" d="M995.3,630c0.4,0.2,1.2,0.3,0.9,0.8c-3.2,5-3.1,6,0.6,10.5c0.4,0.5,1.4,0.8,0.7,1.7c-2.9-2.2-5.8-4.4-5.1-8.7
		C992.7,632.4,993.1,630.6,995.3,630z"/>
	<path class="st57" d="M1113.7,529.7c-3.1,0.1-6.1,0.1-9.1-0.7C1107.6,529.3,1110.8,528.2,1113.7,529.7z"/>
	<path class="st79" d="M1044,744.3c8-1.7,15.1-5,20.4-11.4c1.2-1.4,2.4-0.9,3.7-0.7c8.4,1,16.4,3.7,24.7,5.4
		c-4.9,0.6-4.2,5.2-4.3,7.7c-0.4,18.1-0.2,36.1-0.2,54.2c0,1.2,0.1,2.2,1,3.1c0.5,0.5,1.1,1,0.2,1.8c-0.8,0.6-2.4,1.2-1.3,2.5
		c1,1.3,2.7,2.5,4.2,1.7c2.6-1.3,4.7-1.1,6.9,0.7c0.7,0.6,2.1,0.2,3.2,0.7c-1.6,0.1-3.1,0.2-4.7,0.3c-11.2-0.2-22.1-2.7-33.1-5
		c-11.4-2.3-22.9-4.8-34.3-7.1c0.2-0.7,0.7-1.5,0.3-2.1c-1.6-2.4-1.1-4.1,1.4-5.5c1.2-0.7,1.2-2.1,1.2-3.4c0-4.5,0-9,0-13.5
		c0-2-0.7-3.5-2.1-5c-1.7-1.8-1.8-3.7,0.6-4.9c2-1.1,2.2-2.7,2.4-4.7c0.6-6.5,4.2-11.1,9.6-14.3
		C1043.7,744.7,1043.8,744.5,1044,744.3z"/>
	<path class="st80" d="M1155.8,790.7c-5.7,10-13.5,17.1-25.4,18.9c-0.5-0.1-1-0.2-2.1-0.4c2.7-1.2,5-2,7.1-3.2
		c2.3-1.2,4.5-2.7,6.6-4.2c4.3-2.9,8.7-5.8,11.7-10.2C1154.2,791.1,1154.6,789.9,1155.8,790.7z"/>
	<path class="st2" d="M1047.6,382.7c1.6,0.3,1.9,1,0.7,2.1c-0.8,0.8-1.8,1.5-2.7,0.2c-1.2-1.7,1.3-1.2,1.4-2.2
		C1047.2,382.6,1047.4,382.5,1047.6,382.7z"/>
	<path class="st81" d="M906,720.4c7.8-1.4,15.6-0.9,23.5-1c15.9-0.2,31.8,0.7,48.3,1.8c-3.3,2.1-6.7,2.2-9.8,3.2
		c-1.1,1.4-2.6,1.1-4.1,1.3c-0.5,0-1.1,0-1.6,0.1c-2.2,0.4-4.4,0.7-6.4,1.9c-1.6,1.1-2.2,2.5-1.1,4.1c2,2.9,0.4,4.6-2,5.9
		c-4.4,2.4-8.5,5.2-12.8,7.7c-0.5,0.3-1,0.7-1.3,1.3c-0.1,0.6-1.2,1-0.2,1.7c6.4,0.8,12.8,0.7,19.1,2.3c1.3,0.3,2.7,0.6,3.8,1.5
		c0.2,3.3-2.3,2.5-4.1,2.5c-2.1,0-3.9-1.6-6.4-1.7c1.8,6.5,0.9,12.9,1.1,19.4c0.1,1.6,0.1,3.3,1,4.7c0.2,0.3,0.6,0.7,0.5,1
		c-1,3.4,0.5,6.4,1.3,9.5c0.3,1.3-0.7,1.3-1.7,0.9c-13-1.3-26-3.1-39-5.3c0.1-0.4,0.9-0.6,0.4-1.1c-0.3-0.3-1.1-0.5-1.4-0.2
		c-0.4,0.3,0.8,0.7,0.3,1.3c-3.6-0.1-7.2-0.5-10.7-1.4c1.1,0,2.2,0,3.4-0.1c1-0.1,1.4-0.9,0.7-1.5c-2.5-2.2-1.5-5.1-1.6-7.7
		c-0.2-3.2,0.2-6.4-0.8-9.6c-1-3.1,1.9-3.8,3.7-5.3c1.2-1,3.8-1.4,1.3-3.7c-0.8-0.4-1.4-1-1.6-1.9c0-0.4,0-0.7,0.1-1.1
		c1.4-6.5,2.4-13.2,4.1-19.6c0.8-3.1-0.4-4.5-3-5.2c-1.8-0.5-3.7-0.8-4.1-3.1C904.7,721.8,905.2,721,906,720.4z"/>
	<path class="st82" d="M905.3,722.7c0.4,2.1,2.3,1.8,3.7,2.3c4.4,1.3,5,2.3,3.9,6.6c-1.7,6.6-2.4,13.5-4.6,20
		c-2.2-2.5-0.1-5.3-0.4-7.9c0-2,0.6-4,0.8-6c0.4-2.8,1.5-5.4,2.1-8.2c-1.5-2.3-4-2-6.2-2.2c-2.8-0.3-5.6,0-8.4-0.1
		c-1.1-0.2-2.6,0.1-2.9-1.6c1-0.5,2.3,0.4,3.1-0.8c0.5-0.1,1-0.1,1.5-0.2c1.1-1.1,2.7-0.7,4-1.2C903,723.3,904.1,722.6,905.3,722.7z
		"/>
	<path class="st82" d="M888,748.7c-2.1-5.5-4.3-11-6.4-16.5c-0.4-1-1.4-1.9-0.3-3c4.8-1,9.5,1,14.3,0.5c2.7,0.2,5.7-0.8,8.2,1.1
		c-0.4,2.6-2.6,2.4-4.3,2.4c-4.9,0.1-9.8,0.6-14.6-1.1c-0.5,1.7,0.5,2.8,0.9,4c1.2,2.5,2.2,5.2,3,7.9c0.2,1.3,0.8,2.5,0.5,3.9
		C889,748.4,888.8,748.9,888,748.7z"/>
	<path class="st83" d="M895.5,730.8c-4.8,0.4-9.5-0.9-14.2-1.6c4-1.2,7.8-2.8,12-3.5c0.8,1,1.9,0.6,2.9,0.7
		C897.6,728.1,896.8,729.5,895.5,730.8z"/>
	<path class="st84" d="M908.3,752.4c0.4,0.5,0.8,1,1.2,1.5c-5.7,2.2-11.7,1.6-17.6,1.5c0.1-1.7,1.6-1.6,2.6-2.2
		C899.1,752.5,903.5,750.6,908.3,752.4z"/>
	<path class="st85" d="M894.1,754.1c-0.7,0.4-1.5,0.9-2.2,1.3c-2.3,0.5-2.1-1.4-2.5-2.6c-0.5-1.3-0.9-2.7-1.3-4.1
		c0.3-0.3,0.5-0.5,0.8-0.8c0.9,0,1.4,0.7,1.5,1.4C890.7,751.7,892.3,752.9,894.1,754.1z"/>
	<path class="st86" d="M1043.9,744.9c0.5,0.1,1,0.2,1.5,0.3c-5.7,1.9-10.4,8.9-10.4,15.3c0,2.1,0,3.8-2.8,4.3
		c-2.4,0.4-2.1,2.5-0.4,3.5c2.6,1.5,2.5,3.7,2.5,6c-0.1,4.2,0,8.5,0,12.7c0,0.4-0.1,0.8,0,1.1c0.7,2.9-1.8,3.1-3.3,4.5
		c-2.3,2.2,2.9,2.8,1.5,5.1c-0.4,0.7-1.3,0.5-2,0.6c-9.1-1.4-18.2-2.8-27.3-4c-5.9-0.8-11.8-1.3-17.8-1.9c3-1.5,3-1.5,6.1-0.1
		c-0.5-1-1.6-0.9-2.5-1.2c-2.4-0.7-3.8-2.3-3.7-4.9c0.3-7.3-0.7-14.6,0.2-21.9c0-0.2,0.1-0.5,0.1-0.7c-0.1-1.6-2.5-3-0.4-4.7
		c1.4-1.2,3.4-0.5,5.1-1c0.5-0.1-0.1,0,0.4-0.1c5.9-0.6,11.5,1.4,17.2,2.4c4.6,0.8,9,2.8,13.6,3.7c0.3-0.1,0.7-0.2,1-0.3
		c5.4-4,9.2-9.6,13.9-14.3C1038.3,747.1,1039.8,743.8,1043.9,744.9z"/>
	<path class="st87" d="M990.8,758.5c-1.1,1.3-2.6,0.6-3.9,0.8c-0.7,0.1-1.6-0.1-1.9,0.8c-0.3,0.9,0.4,1.3,1.1,1.7
		c1.9,0.9,2.2,1.9,0.3,3.2c-0.7,0.4-0.8,1.2-0.7,2c1.2,5.7,0.6,11.4,0.5,17.1c-0.1,3.7,0.8,6,4.6,6.6c0.6,0.1,1.1,0.4,1.6,0.7
		c0,0.3,0,0.6,0,1c-2.4,0-4.7,0-7.1,0c-10.8-0.5-21.6-1.8-32.3-3.8c1.9-2-0.1-3.4-0.9-5c-0.3-0.6-1.4-0.6-1.6-1.7
		c2.4-1.3,3.5-2.8,0.7-5.1c-0.7-0.6-0.3-2.4-0.4-3.6c-0.5-7,1.3-14.2-1.8-21c1.9-0.7,3.3-0.1,5,0.6c2.3,1.1,5,2.7,7.3-0.3
		c2.8-1.6,5.3,0.2,7.9,0.8c1.3,0.3,2.5,1.1,3.7,1.7c4.2,1.9,8.8,0.8,13,2.1C987.6,757.7,989.5,757.2,990.8,758.5z"/>
	<path class="st5" d="M913.5,783.3c-0.4-1-1.6-0.5-2.4-1.2c1.7-0.8,3.3-1.6,5.1-0.7c0.4,0.2,0.9,0.7,0.6,1.2c-0.6,1-1.8,0.4-2.7,0.7
		c0,0-0.3,0.1-0.3,0.1L913.5,783.3z"/>
	<path class="st2" d="M685.6,582.9c-8-1.3-16.1-1.7-24.1-2c-13.4-0.9-26.9-1.8-40.4-1.5c-4.8,0.1-4.8,0.1-4.4-4.6
		c2.6-27.5,4.3-55,5.6-82.6c0.3-7.2,0.3-14.5,0.3-21.7c0-1.9,0.1-2.9,2.6-2.9c21.7-0.4,43.4,1.6,65.1,2.5c2.8,0.1,3.7,0.9,3.7,3.9
		c-0.1,15.1,0.7,30.2-0.2,45.3c-1,15.7-2.7,31.3-4,47c-0.4,4.6-0.8,9.2-0.8,13.8C688.8,582.5,688,583.4,685.6,582.9z"/>
	<path class="st88" d="M701.3,584.5c-1.3-0.2-2.7-0.3-4-0.5c-6.1-1-6.2-1-5.6-7.1c0.4-4.4,0.9-8.9,1.3-13.3
		c11-6.4,21.2-14.3,32.4-20.6c2.1-1.2,3.9-2.6,5.8-4c1.1-0.8,2.3-1.7,3.7-1.1c1.6,0.7,1.2,2.3,1.3,3.6c0,0.9,0,1.7,0,2.6
		c0.5,5.9,0.4,11.7-1.2,17.5c-2.9,3.3-7.3,3.2-10.8,5.1c0.8-0.1,1.7-0.2,2.4,0.3c0.9,1,0.5,2-0.6,2.3c-4,1.1-6.6,4.3-9.8,6.5
		C711.4,578.9,706.2,581.5,701.3,584.5z"/>
	<path class="st89" d="M696.7,494.5c5.2-0.5,8.3-4.7,12.3-7.3c6.1-4.2,12.9-7.4,18.4-12.4c0.6-0.6,1.1-1.3,1.6-2
		c3.6,0.2,7.2-0.5,10.7,0.6c1.2,0.4,2.2,0.5,2,2c-0.4,5.6-0.4,11.3-1.5,16.9c-0.7-0.7-0.9-1.8-2.5-0.7
		c-12.3,8.2-24.5,16.5-37.1,24.3c-2.2,1.4-3.4,3.4-5.4,4.9C695.2,512,695.9,503.2,696.7,494.5z"/>
	<path class="st90" d="M735.8,543.4c0-0.4,0-0.7-0.1-1.1c-0.2-1.4,0.6-3.3-1.2-3.9c-1.4-0.4-2.5,0.8-3.5,1.7
		c-4.2,3.6-9.2,5.8-13.8,8.7c-6.2,4-12.4,8.2-18.5,12.3c-1.8,1.2-3.5,2.4-5.8,2.3c0.7-11.7,1.5-23.3,2.1-35c0.1-1.7,0.3-2.4,2.4-2
		c12.5,2.8,24.9,6.2,37.7,7c1.6,0.1,2.2,1.1,1.8,2.6c-0.7,2.3-0.2,4.7-0.5,7C736.3,543.5,736.1,543.5,735.8,543.4z"/>
	<path class="st91" d="M695.3,520.7c-0.2-4.8,4.3-5.5,7-7c10.6-6.2,20.2-13.9,30.9-19.9c2.3-1.3,4.3-3.2,6.5-4.8
		c0.8,1.1,0.2,2.3,0.5,3.3c-0.5,8.8-0.8,17.6-2.2,26.4c-1.2-0.7-0.6-2.4-1.7-3.3c-6.1,2.5-11.4,6.4-17.1,9.7c-2,1.2-2.3,2.3-0.8,4
		c-7.3-0.4-14.3-2.3-21.4-4C694.7,524.3,695.2,522.4,695.3,520.7z"/>
	<path class="st32" d="M742.6,484.8c1.3-2.1,0.8-4.4,0.6-6.5c-0.3-3.7,0.7-5.4,4.6-4.8c7.8,0.9,15.7,0.6,23.6,0.9
		c1.8,0,3.5,0.2,5.1,0.8c0.5,0.3,0.8,0.7,0.8,1.3c-0.4,2.4-1.9,3.9-3.9,5.2c-5.5,3.8-11.2,7.3-16.8,11.1c-1.4,0.6-2.7,0.2-4-0.3
		c-0.9-0.3-2-1-2.8-0.2c-1,1,0.2,2,0.6,3c1,2.5,2.9,4.7,2.5,7.6c-0.2,0.7-0.5,1.5-1.3,1.5c-4.2,0.3-8.1,1.3-10.7,5.1
		C741.5,501.3,742.1,493,742.6,484.8z"/>
	<path class="st92" d="M741,509.5c1.5-1.1-0.2-3.8,1.6-4.2c2.9-0.6,5.6-2.1,8.7-1.7c1,0.1,0.9-0.5,1.1-1c1.9-0.5,1.9,1,2.4,2.1
		c2.8,6.6,3.1,13.7,4.3,20.7c0.4,2.6-0.2,5.2-2.1,7.3c-0.1,0.2-0.1,0.3-0.2,0.5c-4.8-0.4-9.6-0.8-14.5-1.2c-2.4-0.2-3.7-0.8-3.2-3.9
		C740.1,521.9,740.4,515.7,741,509.5z"/>
	<path class="st93" d="M701.3,584.5c0.9-2.7,3.6-3.1,5.6-4.1c5.2-2.8,10.3-5.8,14.5-9.9c1.7-1.6,4.5-0.6,5.4-3.1
		c2.2-1.9,4.6-3.5,7.6-1.6c0.1,7.7-0.7,15.3-3,22.6c-0.4,2.9-2.2,2.4-4,1.6c0.4-0.6,0.1-0.9-0.5-0.9c-3.1,0.3-6.1-1.1-9.2-0.6
		C712.2,587.1,706.7,585.8,701.3,584.5z"/>
	<path class="st94" d="M753.7,534.4c1,0.8,2.1,0.4,3.2,0.6c0.8,1.1,0.7,2.3,0.3,3.5c-3.2,8.4-8.9,14.8-15.9,20.2
		c-1.5,1.2-3.7,3-5.9,0.7c0.6-4.2,0.1-8.5,1.8-12.5c-0.3-3.5,0.9-6.9,0.9-10.3c0-2,0.6-2.7,2.5-2.6
		C745,534.2,749.3,534.3,753.7,534.4z"/>
	<path class="st95" d="M780.1,581.6c-2.1,12.4,1.6,10.2-11.7,10.5c-7.1,0.2-14.2-0.1-21.3-0.2c-4-0.4-8.1-0.7-12.1-1.2
		c-1.1-0.1-2.7,0.4-2.8-1.6c0.1-0.7,0.4-1.2,1.1-1.5c2.9-0.9,6-0.4,8.9-0.5c6.8-0.1,13.5-0.9,20.1-1.9c5.3-0.8,10.5-2.4,15.1-5.3
		C778.9,579,781,578,780.1,581.6z"/>
	<path class="st96" d="M718.5,529c-0.8-1.2-2.4-0.2-3.4-1.2c-0.2-1.2,0.7-1.4,1.4-1.9c6.4-4,12.8-8,19.2-12c1.3-0.8,1.9,0,2.1,1.1
		c0.2,1.2,0.2,2.5,0.2,3.7c0,3.5-0.2,7-0.6,10.4c-0.2,1.9-1.2,2.3-2.7,2.1C729.3,530.4,723.9,529.7,718.5,529z"/>
	<path class="st97" d="M732.8,588.3c-0.2,0.3-0.4,0.6-0.7,0.9c-0.3-0.3-0.5-0.6-0.8-0.9c0.8-7.5,1.6-14.9,2.4-22.4
		c-0.6-1.4-0.6-2.8,0.4-4.1c0.8-6.1,1.4-12.3,1.7-18.5c0.2-0.1,0.4-0.1,0.6-0.2c0.4,1.3-0.4,2.7,0.8,3.8c-0.3,4.3-0.7,8.6-1,12.8
		c0.7,1.5,0.5,3,0.3,4.6c-0.6,5.7-1.2,11.4-2,17.1C734.2,583.8,734.3,586.2,732.8,588.3z"/>
	<path class="st98" d="M717.6,588.4c4.2-1,8.3,0.2,13.1-0.1c-1.2,1.9-2.5,1.2-3.4,1.6C724.1,589.7,720.8,589.3,717.6,588.4z"/>
	<path class="st99" d="M1008.8,637c0.6-1.2,2.4-0.3,3-1.5c0.7-1.3,1.3-2.7,3-3.1c0.4,2.3,2.1,1.4,2.6,0.6c2.7-4.6,7.6-5.6,11.8-7.8
		c0.7-0.4,1.3-1.1,1.9-1.7c8.6-4.3,17-8.7,22-17.5c0.5-0.8,0.8-2,2-1.9c0.6,0,1,0.8,1,1.4c0,6.6,2.8,12.5,4.9,18.6
		c-0.2,1.2-1,1.2-1.9,1.1c-1.2-0.2-2.4-0.4-3.6,0.6c0.5,1.4,2.9,0.3,2.8,2c0,1.1-1.5,1.1-2.3,1.6c-0.7,0.4-1.3,1-1.7,1.7
		c-0.5,0.8-0.5,2.2-1.7,2.2c-1-0.1-1-1.3-1.2-2.1c-0.3-1.2-1-1.5-1.8-0.6c-1.4,1.5-3.2,2.3-5.2,2.8c-0.5,0.1-1.2,0.4-1.3,0.7
		c-0.7,4.8-3.5,2.5-5.8,1.8c-0.7-0.4-1-1-1.1-1.8c-0.2,2.6,0,5.2-2.5,7c-6.9,1-11.9,5.4-17.2,9.3c-1.9,1.4-3.1,4.1-6.2,3.2
		c-3.9-1.8-6.3-4.9-7.4-9c1.7,0.7,1.4-0.5,1.5-1.5c0.1-2.3,1-4.1,3-5.3c0.6,5,2.2,6.8,5.8,6.5c1.1-0.1,2.4-0.1,2.9-1.3
		c0.6-1.3-0.6-2-1.4-2.8C1013,638.4,1010.5,638.3,1008.8,637z"/>
	<path class="st100" d="M1055.2,628.6c0.7-0.3,1.5-0.6,2.3-1c-0.2-0.1-0.3-0.3-0.4-0.4c-1.2-0.5-3.6,0.9-3.5-1.1
		c0.1-2,2.6-2.2,4.4-2.4c0.9-0.1,1.6,1.4,2.6,0.4c3.5,2.1,6.3,5,8.2,8.6c-2,1.2-3,2.6-0.2,4.4c-3.4,1.2-6.2,2.7-10,1.5
		c-3.7-1.1-7.8,2.6-7.7,6.5c0,2.1-1.2,1.6-2.1,1.5c-2.4-0.2-4.1,0.5-5.1,2.9c-1,2.3-3.8,3.1-5.3,3.4c-4.2,0.8-6.6,5.2-11.2,4.4
		c0.4,2.9,5,2.5,4.1,5.9c-1.3,0.2-1.8-0.5-1.9-1.6c-1.9-2.4-4.6-3.2-7.5-3.7c-4.2-0.6-8.2-1.8-11.6-4.5c4.1-1.2,6.2-5,9.6-7.1
		c3.4-2,6.7-4.1,10.2-5.9c1.3-0.7,2.4-0.3,3.5,0.1c2.3-0.9,1.5-4,3.5-5.1c1.8-1.6,3-0.2,4.3,1.4c-1.2-3.7,1.1-4.3,3.5-5
		c1-0.3,2.2-0.1,2.9-1.3c0.8-1.3,2.1-2.7,3.5-2.3c1.9,0.5,0.2,2.7,1.2,3.9c0.3-0.6,0.6-1.4,1-2.1c1.3,0.5,0.7,2.8,2.5,2.7
		c0.8,0,1.3-0.7,1.4-1.5C1057.9,629.7,1055.8,629.8,1055.2,628.6z"/>
	<path class="st101" d="M963.9,725.1c1.4-0.2,2.8-0.4,4.1-0.6c11.2-0.7,21.6-3.6,30.6-10.7c0.7-0.5,1.3-1.1,2-1.7
		c3.5,0.2,3.8,0.5,2.6,3.4c-0.4,1-0.4,1.8-0.3,2.8c-6.4,7.4-14.5,12-23.8,14.7c-1.7,0.5-3.4,0.9-5.1,1.3c-1.3,0.2-2.6,0.4-3.7-0.7
		c-0.8-0.5,1.8-0.7-0.1-1.9C967.8,730.2,965.3,728,963.9,725.1z"/>
	<path class="st102" d="M1020.8,678.9c-1.1-0.7-2.4-0.6-3.6-0.8c-4.1-0.7-5.2-2.1-5.5-6.9c1.4,0.9,2.5,2.4,4.2,1.7
		c1.8-0.7,2.6-2.2,3.2-3.9c0.6-1.5,1-3.1,1.3-4.6c1-4.7,1.3-4.9,5.9-3.3c0.6,0.2,1.1,0.5,1.7,0.7c3.5,1.9,3.1,4.9,2.3,8
		c-1.8,2.5-3.1,5.3-5.4,7.3C1023.6,677.8,1022.5,679,1020.8,678.9z"/>
	<path class="st103" d="M1002.5,718c-1.4-0.3-1.6-1.2-0.6-2.1c2.9-2.5,0.3-2.9-1.3-3.7c7.4-9.2,14.7-18.5,21-28.5
		c1.9,0.5,1,1.8,0.6,2.8c-1.1,2.5-2.4,4.8-3.5,7.3c-3.4,6.8-5.8,14.1-10.8,19.9C1006.3,715.3,1005.1,717.5,1002.5,718z"/>
	<path class="st68" d="M1029.8,670c1.2-3.1,0.9-5.9-1.7-8.2c0.4,0,0.8-0.1,1.2-0.1c0.6,0.5,1.3,1.1,1.9,1.6c-1.2,5,2.8,5.9,5.9,7.2
		c3.2,1.3,4.6-1.4,6.1-3.5c2.1,1.1,1.1,2-0.1,3c-1.4,3.6-4.5,3.3-7.4,3.1c-2.1-0.2-4-1.2-5.6-2.5
		C1030,670.4,1029.9,670.2,1029.8,670z"/>
	<path class="st68" d="M1017.9,693.3c1.2-2.4,2.4-4.8,3.4-7.2c0.3-0.7,1.6-1.5,0.3-2.5c0.1-1.3,1.7-2.2,0.7-3.7
		c0.2-1.5,1.4-2.2,2.4-3.1c1.9-2.1,2.7-5,5.1-6.8c0,0-0.1,0-0.1,0c1,1.3,0.2,2.4-0.3,3.5c-2.8,5.3-5,10.9-7.7,16.2
		c-0.9,1.5-0.9,3.5-2.7,4.5C1018.3,694.2,1018,693.9,1017.9,693.3z"/>
	<path class="st104" d="M905.3,722.7c-0.5,1.2-1.3,1.9-2.7,1.4c-4.5,0.6-4.5,0.6-4.1-3c0.3-0.2,0.5-0.5,0.8-0.7
		c2.2,0.1,4.5-0.6,6.7,0C905.8,721.1,905.5,721.9,905.3,722.7z"/>
	<path class="st105" d="M1024.7,676.8c-0.5,1.3-1.2,2.4-2.4,3.1c-0.5-0.3-1-0.7-1.5-1C1022,678.1,1023,676.8,1024.7,676.8z"/>
	<path class="st38" d="M1031.3,744.2c0.5,0.1,1,0.2,1.5,0.3c2.2,0.4,4.5-0.2,7.3,0.6c-5.9,6.8-11.7,13.3-17.9,19.4l0.1,0
		c-0.6,0.5-1.1,0.4-1.7,0.1c-9.4-4.8-19.7-6-30-6.9c-4.8-0.8-9.8-0.8-14.6-1.2c-0.5-0.5-0.4-1.1,0-1.6c5.8-4.7,12.1-9,17.8-14
		c1.4-1.2,2.5-2.7,4-3.8c0.7-0.3,1.5-0.5,2.3-0.5c2.8-0.2,5.4,0.8,8.2,0.9c3.6,2.3,3.6,2.9,0.4,9.6c2.8-4.2,7.2-4.9,11.7-5.4
		C1024.4,740.4,1027.9,741.9,1031.3,744.2z"/>
	<path class="st106" d="M1062.1,706.7c3.6,6.6,5,13.6,3.6,21c-5.2,9.4-14,13.3-24,15.1c-4.8,0-9.6,1.1-14.4-0.3
		c-1.7-0.5-3.7-0.9-3-3.3c0.7-2.5,0.6-5.7,4.2-6.3c1.6-0.3,3.2,0,4.8,0.3c4,0.8,7.9,0,11.8-0.7c6.7-2.4,9.3-7.8,10.2-14.3
		c0.6-2,0.2-4.1,0.4-6.2C1056.3,708.1,1058.3,706.4,1062.1,706.7z"/>
	<path class="st107" d="M1046.2,733c-4.5,1.7-9.1,1.9-13.8,1c-5.1-1-7.5,1-7.4,6.2c0,1.6,1.3,1.6,2.3,1.9c4.7,1.4,9.6,0.4,14.4,0.8
		c-2.1,1.2-4.4,0.4-6.5,0.7c-1.3,0.1-2.7-0.5-3.9,0.6c-1.3,0.3-2.5-0.3-3.6-0.8c-2.6-1.2-5.1-1.7-7.8-0.6c-1.9-1.1-4.4,1.4-6.1-1.1
		c0.6-1.3,1.8-1.2,2.9-1.3c7.1-0.7,8.8-3.6,5.4-9.5c0.5-0.7,1.2-1.1,2-1.1c6.4,3.4,13.3,2.3,20.1,2
		C1045.1,731.8,1045.8,732.2,1046.2,733z"/>
	<path class="st108" d="M1022.2,764.5c4.5-6.2,10-11.5,15.4-17c0.6-0.6,1.4-1,1.6-2.1c-2-0.8-4.4,0.1-6.4-0.9
		c3.7-0.1,7.5-0.1,11.2-0.2c0,0.2-0.1,0.4-0.1,0.6c-4-0.3-5.3,3.2-7.4,5.4c-4.1,4.3-8.1,8.7-12.2,13
		C1023.8,763.9,1023.2,764.7,1022.2,764.5z"/>
	<path class="st109" d="M882.8,610.2c1.6-0.3,3.3-0.2,4.2,1.3c0.9,1.5,0,2.8-1.3,3.7c-1.6-0.1-3.2,0.1-4.1-1.6
		C880.8,612.1,882,611.2,882.8,610.2z"/>
	<path class="st110" d="M917,660.9c-0.1,0.8-0.8,0.9-1.4,0.8c-0.8,0-1.5-0.2-1.4-1.2c0.1-0.7,0.6-1.1,1.3-1
		C916.4,659.6,916.9,660,917,660.9z"/>
	<path class="st111" d="M1010.3,816.3c-0.2-5.1,1.2-10,1.6-15c4.1-0.6,7.9,1.2,11.9,1.6c-1,5.5-2,11-3,16.5
		C1016.9,819.9,1012.9,820.4,1010.3,816.3z"/>
	<path class="st112" d="M777,475.7c-0.2-0.2-0.4-0.3-0.6-0.5c3.7,0,7.5,0,11.2-0.1c2.4-0.1,3.3,0.5,3.1,3.4
		c-1.3,14.9-2.3,29.8-3.4,44.7c-0.1,0.9,0,1.7,0,2.6c-0.9,2.5-0.2,5.1-0.7,7.6c-2.2,0.9-2.1-1-2.3-2.1c-0.4-2.7-0.5-5.5,0-8.2
		c1.4-8.6-0.3-17-0.4-25.5C782.8,489.9,781.5,482.3,777,475.7z"/>
	<path class="st113" d="M732.8,588.3c0.9-8,1.8-15.9,2.8-23.9c9.4-1.1,17.7-5,25.8-9.8c7.5-4.4,10.8-11.7,14.6-18.8
		c2.6,0,5.1,0.3,7.7,0c2.6-0.3,2.8,1,2.6,3c-2,14.3-3.6,28.6-6.2,42.8c-0.6-0.3,0.8-2.8-1.4-1.3c-8,5.5-17.3,6.3-26.5,7.3
		C745.7,588.3,739.2,588.2,732.8,588.3z"/>
	<path class="st114" d="M1010.3,816.3c3,2.9,7,2.1,10.6,3.1c-1.2,10.9-1.8,21.9-1.7,32.9c-1-0.9-0.5-2.1-0.7-3.2
		c-0.2-1.4,0.7-3.8-0.4-4.2c-2.2-0.7-4.7-0.6-7-0.5c-0.9,0-0.8,1.1-0.8,1.8c0.2,4.1,0,8.1,1.4,12.1c-0.3,0.4-0.6,0.4-0.8,0
		c-1.6-4.3-2.2-8.8-2.1-13.4c1.1-2.4,0.4-4.9,0.5-7.3C1009.5,830.4,1009,823.3,1010.3,816.3z"/>
	<path class="st81" d="M898.5,721.1c-0.5,3.6,2.1,2.8,4.1,3c-1.5,0.8-3.1,0.4-4.7,0.6C898,723.5,897.4,722.1,898.5,721.1z"/>
	<path class="st115" d="M756.9,532.7c2.1-8.9,0-17.5-2.8-25.9c-0.5-1.4,0.3-3.4-1.7-4.2c-0.3-3.4-2.5-6-3.8-9.1
		c-0.3-0.8-1.2-1.6-0.7-2.3c0.6-0.9,1.8-0.4,2.7-0.3c2.1,0.2,3.9,1.6,6,1.5c5.1,0.7,8.5,4.3,12,7.5c1.9,1.7,3.4,3.9,4.8,6.1
		c3.6,6.7,4.6,14,5.2,21.3c0.2,2.4-0.5,4.7-2.4,6.4C769.9,533.6,763.4,533.7,756.9,532.7z"/>
	<path class="st116" d="M776,535.8c0.5,2.7-1.5,4.4-2.5,6.6c-3.2,7.5-9.4,11.8-16.1,15.8c-6.1,3.7-13,4.9-19.6,7.2
		c-1.1,0.4-2,0.2-2.3-1.1c0.2-1.5,0.4-3,0.7-4.6c7.2-2,11.6-7.6,15.6-13.2c2.4-3.4,4.6-7.2,5.1-11.6c1.5,0,3,0.1,4.5,0.1
		c3.9,0.8,7.9-0.2,11.8,0.5C774.1,535.7,775,535.7,776,535.8z"/>
	<path class="st117" d="M776.4,533.7c3-9.9-0.2-18.9-3.9-27.9c-0.1-1.7,0.7-2.8,2.2-3.5c1.5-0.7,2.8-1.6,3.8-2.9
		c1-1.2,2.1-2.2,3.8-1.4c1.4,0.7,1.5-0.8,2.3-1.3c1.3,8.2,1.6,16.4,1.1,24.7c-0.2,3.3-0.3,6.7-0.4,10c0,1-0.2,2.1,1.4,2
		C783.3,535.3,779.8,533.9,776.4,533.7z"/>
	<path class="st94" d="M773.2,535.6c-3.9-0.1-7.9,0.6-11.8-0.5C765.3,535.2,769.3,534.9,773.2,535.6z"/>
	<path class="st118" d="M1010.9,858.2c0.3,0,0.6,0,0.8,0c1,4.5,1.9,9.1,2.9,13.6C1012.2,867.6,1010.8,863.1,1010.9,858.2z"/>
	<path class="st56" d="M989.9,819.9c-0.1,3,0.7,6.1-0.5,9.1C989.4,826,988.8,822.9,989.9,819.9z"/>
	<path class="st119" d="M1017.8,885.4c-2,3.3-4.1,6.5-7.5,8.6c-1.9,1.2-4,1.7-5.9,0c-1.8-1.6-2.3-3.5-1-5.6c0.2,0.3,0.1,1.1,0.8,0.7
		c3.6-1.8,7.6-2.5,11.4-3.7C1016.2,885.1,1017,885.3,1017.8,885.4z"/>
	<path class="st120" d="M1111.2,423.6c-0.5,0.5-0.7,0.8-0.9,0.8c-2.7,0.4-6,2.8-7.8-0.4c-1.8-3,2-4.5,3.7-6.5
		c1.4-1.6,3.1-2.8,4.5-4.4c2.7-3.1,2.5-6.7,0.9-10.2c-1.5-3.4-4.2-1.8-6.8-1c2-3.5,5.6-4.6,9.3-3.2c3.4,1.3,3.3,4.2,2.5,6.9
		c-1.5,5.1-3.7,9.8-7.9,13.3c-1,0.8-2.9,1.3-2.4,2.9c0.4,1.4,2.2,1.3,3.6,1.5C1110.3,423.4,1110.7,423.5,1111.2,423.6z"/>
	<path class="st121" d="M1197.5,523.6c1.8-1.5,3.2-1.4,4.6-1.4c2.8,0.1,6.1-0.7,7.3,2.9c0.9,2.7-1.2,6.7-4.2,8.6
		c-0.7,0.4-1.8,0.3-2.1,1.7c2.9,1.5,6.4,2.7,5.2,7.2c-0.8,2.9-4.3,5.6-7.7,5.6c-3.3,0-5.2-1.7-6.4-5.5c2.7,1.6,4.3,3.8,7.3,3.1
		c3.7-0.9,4.8-2.8,3-6.2c-0.3-0.7-0.7-1.4-1.3-1.8c-3.3-2.6-3.1-4.6,0.7-6.6c1.6-0.8,2.6-2.5,2.1-4.4c-0.5-2.2-2.4-2.6-4.3-2.9
		C1200.5,523.7,1199.3,523.7,1197.5,523.6z"/>
	<path class="st122" d="M1100.4,405.1c-0.7,5.8-1.4,12-2.1,18.1c-0.1,1-0.1,2-0.8,2.8c-0.4,0.5-0.8,1.1-1.5,0.9
		c-1-0.2-0.8-1.1-0.7-1.8c1.3-7.5,1.6-15.1,2.4-22.6c0.1-0.8,0.3-1.7,0.6-2.5c0.2-0.6,0.7-1.1,1.4-0.9c0.8,0.2,0.6,0.9,0.6,1.5
		C1100.4,402,1100.4,403.3,1100.4,405.1z"/>
	<path class="st123" d="M1166.8,425.4c-0.2,1.7-0.3,3.9-2.9,3.8c-2.1,0-3.5-1.5-3.6-3.6c-0.1-2.7,2.1-3.2,4.1-3.4
		C1166.6,422,1166.8,423.6,1166.8,425.4z"/>
	<path class="st124" d="M1201.8,475.8c-0.1,1.9-0.1,4.2-2.6,4.2c-2,0-3.6-1.3-3.7-3.5c-0.2-2.7,2-3.2,4-3.5
		C1201.7,472.6,1201.8,474.2,1201.8,475.8z"/>
	<path class="st2" d="M1149.2,538.6c1.2,0,2.3,0.1,3.5,0.1c-1.3,2.8-3.8,2.2-6.1,2.2c-0.8,0-1.9,0.1-2-1.1c0-1.2,1.1-1.1,1.9-1.1
		C1147.5,538.7,1148.4,538.7,1149.2,538.6z"/>
	<path class="st125" d="M1090.2,531.5c-0.5,1.4-1.4,2.4-3,2.2c-1-0.1-2.1-0.5-1.9-1.8c0.3-1.6,1.5-2.1,3-2.2
		C1089.5,529.7,1090.2,530.3,1090.2,531.5z"/>
	<path class="st126" d="M1068.8,632.8c-2.7-2.9-5.5-5.7-8.2-8.6c-3.3-5.9-5.4-12.2-5.3-19.3c-1.1,0.2-1.2,1.1-1.6,1.8
		c-4.6,8.9-13.4,12.7-21.4,17.5c-0.7,0.4-1.2,0.1-1.4-0.6c1.6-1.5,2.8-3.3,3.8-6.6c-10.4,8.3-21.4,11.2-33.5,9.5
		c-0.3-0.5-0.5-0.9-0.8-1.4c0.1-0.1,0.3-0.3,0.4-0.4c1.4-0.7,2.9-0.6,4.4-0.5c11.6,0.2,21.8-3.3,30.1-11.7c0.6-0.6,1.3-1.5,2.2-1.1
		c1.3,0.6,0.5,1.7,0.4,2.6c-0.3,1.3-0.6,2.7-0.9,4.3c6.1-4,10.6-9.2,14.8-14.7c0.7-0.8,1.3-1.8,2-2.6c0.8-0.9,1.7-2,3.1-1.4
		c1.4,0.5,1.4,1.8,1.3,3.1c-0.8,4.4,0.7,8.6,1.7,12.7c0.7,4.2,3.9,7.2,5.1,11.2c2,2.9,5.1,4.6,7.7,6.7c0.3,0.3,3.1,0.8,0.7,2.2
		C1071.8,634.6,1070.3,633.7,1068.8,632.8z"/>
	<path class="st68" d="M1045.7,661.1c-2,1.5-4.3,2.9-2.4,5.9c-2.5-0.3-2.2-1.9-1.4-3.5c0.7-1.3,1.4-2.6,2.9-3.2
		C1045.1,660.6,1045.4,660.9,1045.7,661.1z"/>
	<path class="st127" d="M1008.8,637c3.2-0.4,5.4,1.3,7.5,3.4c2.2,2.2,1.7,4-1.4,4.7c-2.4,0.5-4.8,0.7-6.9-1.6
		c-1.7-1.9-1.9-3.6-0.7-5.7C1007.8,637.5,1008.3,637.3,1008.8,637z"/>
	<path class="st128" d="M1014.7,632.4c-0.6,1.4-1.3,2.7-3,3.1c-0.6-0.5-1.2-0.8-1.7-1.4c-0.9-1.2-1-2.5-0.1-3.8
		c0.6-0.8,1.4-1.4,2.5-1.2C1014.3,629.4,1014.5,630.9,1014.7,632.4z"/>
	<path class="st129" d="M1063,652.6c0.4,0,0.7,0,1.1,0c1,0.2,2,0.3,2.9,0.5c2.6,0.7,4.7,2,5.3,4.7c0.7,2.9-0.8,5-3.2,7.1
		c-1-4-2.8-6.8-7.2-6.3c-0.8,0.1-1.3-0.4-1.1-1C1061.2,655.8,1060.4,653.4,1063,652.6z"/>
	<path class="st130" d="M1060.5,666c-3.3-2.2-4.9-6.9-3.9-9.3c0.3-0.6,0.8-1,1.4-1.1c1-0.1,0.8,0.7,0.7,1.3
		C1058.6,659.7,1059.2,662.5,1060.5,666z"/>
	<path class="st131" d="M1063.2,664c-1.9-1-2.2-2.4-2.6-4.3C1062.5,660.8,1063.2,661.9,1063.2,664z"/>
	<path class="st132" d="M1018.3,594.9c11.8-10,24.9-14.7,40.4-9.8c1.3,0.4,2.4,1.9,4,1.3c-0.1,0.2-0.1,0.3-0.1,0.5
		c1.4,2.4-0.6,2.7-2.1,3.1c-9.9,2.7-20,4.8-30.1,6.6c-4.5,0.8-8.6,3.2-13.4,2.9c-1.7-0.6-1.1-1.6-0.3-2.6
		C1017.3,596.2,1018.3,595.9,1018.3,594.9z"/>
	<path class="st133" d="M1018.3,594.9c0.8,2.1-1.9,2.3-2.1,3.9c0.5,1.5-0.7,2.3-1.5,3.1c-3,2.8-5.2,6.3-7.5,9.6
		c-3,4.1-5,8.7-6.8,13.4c0,0,0.1,0.1,0.1,0.1c-2.2,0.2-2.4-0.8-1.9-2.7c1.2-5.1,3.1-9.9,5.6-14.6
		C1008.2,602.7,1013.1,598.6,1018.3,594.9z"/>
	<path class="st134" d="M1060.5,583.1c-0.5-0.7-1.1-1.4-1.5-2.1c-0.9-1.5-2.1-2.9-0.6-4.7c0.8-1,1.8-2.1,3.1-1.6
		c1.8,0.8,2,2.6,2.2,4.4C1062.3,580.3,1062.6,582.6,1060.5,583.1z"/>
	<path class="st135" d="M1060.5,583.1c1.4-1-0.2-4.4,3.1-3.9c0.9,0.8,0.5,2,0.8,2.9c-0.2,1.5,0.1,3.2-1.7,4.1
		C1061.9,585.2,1061.2,584.2,1060.5,583.1z"/>
	<path class="st136" d="M1006.6,610.8c2.6-4.5,6.2-8.2,9.6-12.1c5.9-0.3,11.2-3.2,17-3.8c5.4-0.6,10.6-2.1,15.9-3
		c4.3-0.7,8.6-2.6,13.1-3.4c0.2,0,0.3-1.1,0.5-1.7c0.8-0.1,1.6-0.2,2.3-0.3c1.3,0,1.2,0.8,0.9,1.7c4.1,2.1,6.4,6,8.7,9.8
		c-1.2,1.8-3.4,0.9-5,1.7c-3.2,1.6-6.8,2-10.1,3.3c-0.6,0.3-2,1.1-2-0.8c-0.1-1,0.1-2.2-0.9-2.5c-1.1-0.3-1.4,1.1-2,1.7
		c-0.8,0.8-1.4,1.6-2.1,2.5c-2.2,0.8-2.7-2.1-4.5-2.1c-0.8-1.5,0.6-2.4,1.2-3.6c-1.4,1.6-1.8,3.6-3.4,4.8c-2,1.2-4.3,1.5-6.4,2.5
		c-0.8,0.4-1.6,0.4-2.2-0.5c0.3-3,3.1-3.5,4.4-4.7c1-0.5,0.3-0.9,0.6-0.6c0.1,0.1,0,0.2-0.2,0.3c-1.6,1-3.4,1.6-5.2,2.1
		c-1,0.3-2.7,1.9-2.9-0.9c0-0.2-0.6,0.3-0.9,0.5c-3.4,2.5-7,4.8-10.4,7.3c-1,0.7-2.1,1.3-3.4,1.4c-1.6-0.2-3.2-0.2-4.7-0.9
		c-1.2-1.6,0.3-2.5,1.1-3.4c1.3-1.4,2.7-2.8,4.2-4c-3,2.6-6,5.2-7.9,8.7C1010,611.4,1008.3,611.7,1006.6,610.8z"/>
	<path class="st137" d="M1057.4,602.4c4.2-0.4,8-2.3,12-3.4c1.8-0.5,3.3-1.2,5.2-0.8c3.2,3.6,5.3,7.8,6.1,12.6c0.7,1.3,0,1.9-1.1,2
		c-6.3,0.7-12.3,2.6-18.4,4.1c-0.9,0.2-1.7,0.3-2.1-0.8C1057.7,611.6,1056.2,607.2,1057.4,602.4z"/>
	<path class="st138" d="M1059.2,616c5.8-1.3,11.7-2.4,17.3-4.1c1.4-0.4,3.6,1.7,4.3-1.2c1.5,3.5,0.4,7-0.1,10.5
		c-3.1,2-6.6,2.6-10.1,2.2c-2.8-0.4-4,1.6-5.6,3.1C1062,623.6,1060.3,620,1059.2,616z"/>
	<path class="st139" d="M1066,588.4c-0.3-0.6-0.6-1.2-0.9-1.7c3-2,6.2-3.3,9.9-3c1.3,1.1,1.7,2.6,0.9,4c-0.8,1.5-2.5,1.3-4,1.2
		C1069.9,588.7,1067.9,588.5,1066,588.4z"/>
	<path class="st140" d="M1020.9,689.5c2.9-6.5,5.9-13,8.8-19.6c0.9-0.2,1.6,0.2,2.3,0.7c3.9,2.5,7.6,2.3,11-0.7
		c0.5,0.3,1.1,0.6,1.6,0.8c3.4,6.5,7,12.8,9.7,19.6c0.8,1.1,0,1.5-0.8,1.7c-1.3,0.3-2,1.2-2.8,2c-2.4-0.3-2.4-2.4-3.2-4
		c-0.3-0.6-0.8-1.2-1-1.8c0.1,0.7,0.8,1.3,0.4,2c-0.2,0.3-0.5,0.5-0.9,0.7C1037.6,693.6,1029.2,692.9,1020.9,689.5z"/>
	<path class="st141" d="M1050.7,694.3c-0.8-3.3,2.9-2.3,3.8-4c3,5.2,5.5,10.7,7.6,16.4c-4.5,0.9-5.8,3.9-5.4,8.1
		c0.1,1.3,0.4,2.7-0.5,4c-1.3-0.8-1.2-2.1-1.2-3.3c0.2-6.1-1.7-11.8-4.1-17.3C1050.4,696.9,1049.7,695.7,1050.7,694.3z"/>
	<path class="st38" d="M976.5,754.9c-0.1,0.2-0.2,0.4-0.5,0.6c-1.3,1.2-2.4,0.2-3.6-0.4c-7.6-4.3-16.1-4.9-24.5-5.6
		c-4-0.3-7.9-0.3-11.9-0.7c0.3-1.2,1.6-1.3,2.2-2.2c2.3-2.5,5.5-3.6,8.3-5.3c4.5-2.8,9.1-5.4,13.4-8.5c2-0.9,4.2-0.8,6.3-0.6
		c1.4,0.5,3,0.2,4.3,1c1.1,1,2.4,0.6,3.6,0.5c1-0.4,2-0.2,3.1-0.3c6.4,0.3,12.6,1.5,18.9,2.7c0.4,0.2,0.6,0.4,0.8,0.8
		c-0.7,3.6-4.2,4.6-6.4,6.7C986.2,747.6,981.1,751,976.5,754.9z"/>
	<path class="st142" d="M894.1,754.1c-2.7,0.5-4.1-0.6-4.4-3.4c-0.1-1-0.6-1.9-0.9-2.8c-0.3-1.2-0.5-2.5-0.8-3.7
		c1.1-1,2.3-0.6,3.5-0.3c4.7,1.2,9.2,1,13.8-0.4c1.1-0.3,2.4-0.9,3.5,0.1c-0.2,2.7-0.3,5.3-0.5,8c0,0.3-0.1,0.6-0.1,0.8
		C903.5,753,898.8,753.5,894.1,754.1z"/>
	<path class="st143" d="M966.8,732.9c-2.2,0.6-4.6-0.5-6.7,0.8c-2,0.3-3.8,0.6-5.3-1.6c-1.4-2.1-0.3-3.6,0.7-5.3
		c2-1.3,4.4-1.5,6.7-2c2.1,1.3,4.1,2.8,5.8,4.6c0.7,0.8,2.1,1.4,1.7,2.6C969.3,733.5,967.8,732.6,966.8,732.9z"/>
	<path class="st144" d="M936,748.8c8.7-0.1,17.3-0.5,25.9,1.4c3.9,0.9,7.7,1.8,10.8,4.6c0.3,0.4,0.3,0.8,0.1,1.2
		c-3.6-1.8-7.2-3.3-11.3-3.5C953.2,750.2,944.4,750.7,936,748.8z"/>
	<path class="st145" d="M955.5,726.9c-1.5,4.7-0.8,5.9,4.6,6.9c-7.3,4.3-14.6,8.5-21.8,12.8c-0.7-1.5,0.8-1.4,1.4-1.8
		c4.6-2.9,9.3-5.8,14-8.6c1.6-0.9,2.2-1.6,0.8-3.3C952.4,730.6,952.5,728.4,955.5,726.9z"/>
	<path class="st146" d="M966.8,732.9c0.9-0.3,1.8-0.7,2.6-1c-1.7-3-5.5-3.9-7.2-7c0.6,0.1,1.1,0.1,1.7,0.2c3.1,1.9,5.3,4.8,7.9,7.3
		c0.9,0.8-0.8,0.4-1.2,0.7C969.4,732.7,968,733.8,966.8,732.9z"/>
	<path class="st147" d="M885.2,736.7c-1.1-1.8-2-3.7-2.6-6.2c7.1,2.2,14,2.8,21,0.8c2.6-1.3,5.1-2.8,8.2-2.1
		c-0.8,2.8-1.5,5.5-2.3,8.3c-0.5,1.1-1.6,1.6-2.7,1.8C899.5,740.4,892,741,885.2,736.7z"/>
	<path class="st148" d="M885.2,736.7c5.4,1.4,10.8,2.6,16.4,2.4c2.7-0.1,5.4-0.7,8-1.5c-0.2,2-0.5,4-0.7,6
		c-6.9,2.6-13.8,2.8-20.8,0.7C887.1,741.7,886.2,739.2,885.2,736.7z"/>
	<path class="st149" d="M911.9,729.3c-2.7,0.9-5.3,2.1-8.2,2.1c-2.6-1.3-5.5-0.2-8.2-0.6c0.1-1.5,1-2.8,0.7-4.4
		c4.5-0.3,9-0.6,13.3,0.7C910.4,727.4,912.5,727,911.9,729.3z"/>
	<path class="st150" d="M990.9,756.9c7.7,0.4,15.3,1.4,22.8,3.6c3.1,0.9,5.5,3.3,8.6,4c-1.5,1.5-2.8,0.1-4-0.3
		c-9-2.8-18.1-4.9-27.5-5.7c-1.5-0.3-3.2,0.6-4.6-0.7C987.3,755.4,989.3,757,990.9,756.9z"/>
	<path class="st151" d="M990.9,756.9c-1.5,0.6-3.4-0.5-4.7,0.9c-4.5-0.7-9.1-0.2-13.4-1.9c0-0.4,0-0.8,0-1.2c1,0.8,2.1,0.9,3.3,0.7
		c1.5,1.6,3.4,0.5,5.1,0.6C984.3,756.5,987.7,755.8,990.9,756.9z"/>
	<path class="st152" d="M633.7,522.5c0.1,3.1-0.3,6.2-1,9.3c-0.3,1.4-0.8,2.9-2.6,2.6c-2-0.2-1.1-1.9-1.1-3
		c0.3-4.6,0.7-9.2,1.2-13.8c0.1-0.9,0-2.1,1.4-2.2c1.6-0.1,1.9,1,1.9,2.2C633.8,519.3,633.7,520.9,633.7,522.5z"/>
	<path class="st153" d="M734.2,561.9c0,1.4,0.2,2.7-0.4,4.1c-2.6-0.8-4.6,1.5-7,1.4c-1.8-0.1-3.6-0.2-5.5-0.3c0-0.2-0.1-0.4-0.1-0.6
		C725.5,564.9,729.9,563.4,734.2,561.9z"/>
	<path class="st154" d="M784.5,496.7c-0.1,1.1-0.2,2.2-0.3,4c-2.9-3.4-4.5-2-6.3,0.6c-1.3,2-4.6,1.8-5.5,4.5
		c-3.9-6-9.6-10-15.7-13.4c2.6-3.4,6.6-4.9,9.8-7.3c3.8-2.8,8.8-4.3,10.5-9.4c3.2,1.9,4,5.2,5.1,8.3
		C783.5,488.1,784.4,492.4,784.5,496.7z"/>
	<path class="st155" d="M1055.2,628.6c2.3,0,4.6,0.1,3.4,3.4c-0.5,1.3-1.4,2.6-3,2.4c-2.5-0.4-1.9-2.5-2-4.2
		C1054.1,629.7,1054.7,629.1,1055.2,628.6z"/>
	<path class="st156" d="M1037.1,635.6c-0.9,1.9,0,5-3.5,5.1c1.3-2.4,1.4-5.1,2.3-8C1036.4,633.9,1036.8,634.7,1037.1,635.6z"/>
	<path class="st157" d="M1028.8,649.3c3.8,2,7.4,2.2,11.1-0.5c-0.9,2.5-2.6,3.7-5.1,3.9C1032.1,652.9,1029.8,652.3,1028.8,649.3z"/>
	<path class="st158" d="M977.2,733.8c-1-0.1-2-0.1-3-0.2c10.8-2.8,20.5-7.5,28.2-15.7c6.2-5.6,10.1-12.7,13.2-20.4
		c0.6-1.5,1.4-2.9,2.2-4.3c0.2,0.3,0.5,0.6,0.7,0.9c0.7,1.1,0.1,2.1-0.2,3.1c-1.4,3.3-2.7,6.6-4.2,9.8c-0.5,1-0.8,2-1.1,3
		c-1.5,2.8-2.2,5.8-3.5,8.6c-0.9,2.1-0.2,3,1.9,3.3c2.3,0.4,4.7,0.3,7,0.7c1.6,0.3,2.5-0.8,3.4-1.9c1.6-1.8,3.8-4.8,5.9-3.5
		c2.1,1.3-0.6,4.1-1.1,6.3c-0.1,0.4-0.3,0.7-0.4,1c-0.1,0.3-0.3,0.6-0.5,0.9c-1.2,1.3-1.6,2.9-1.9,4.6c-0.5,0.2-1,0.4-1.5,0.6
		c-2.3,0.8-4.3,0.7-6.2-1.1c1.2-3.6,1.2-3.6-2.8-4.1c-0.9-0.1-1.7-0.3-2.6-0.4c-5.9-1.1-11.3-1-16.4,3.1c-3.2,2.6-7.3,4.3-11.5,5
		C980.9,733.5,979.2,734.7,977.2,733.8z"/>
	<path class="st159" d="M1017.8,697c0.3-1,0.5-1.9,0.8-2.9c0.8-1.5,1.6-3.1,2.4-4.6c1.9-0.4,3.7,0.3,5.5,0.8c6.9,2,13.7,1,20.5-0.1
		c1.7,0.8,2,2.5,2.4,4.1c-0.3,3.4-3.1,4.4-5.6,5.3c-8,3-15.9,1.8-23.7-0.8C1019.1,698.5,1018.3,698,1017.8,697z"/>
	<path class="st160" d="M982.6,732.4c5.7-1.3,10.7-3.9,15.2-7.5c2-1.6,3.9-1.8,6.2-1.5c3.9,0.5,7.9,0.9,11.8,1.4
		c1.1,0.1,2.6-0.2,3.1,0.8c0.5,1.2-0.9,2.1-1.6,3.1c-0.2,0.4-0.8,0.5-1.2,0.8c-0.2,0.5-0.5,0.9-0.9,1.2c-3.5,0.9-4,4.6-6.3,6.7
		c-3,0.7-6-0.8-8.9,0c-0.7,0-1.4,0.1-2.2,0.1c-0.3,0.5-0.7,0.5-1,0c0-0.3,0-0.6-0.1-0.8c-4.3-0.9-8.7-1.8-13.1-2.3
		C982.7,734.2,980.5,734.3,982.6,732.4z"/>
	<path class="st161" d="M1009.3,736.6c0.7-3.4,1.9-6.3,6.1-6.3c0.2,1.4-0.9,2.2-1.6,3.2c-2.1,2.7-2.4,5.3,0.1,7.8
		c1.7,1.6,4.2-0.2,6,1.4c-5.9-0.8-9.1,3.7-13.4,7.6c0.4-3.3,1.7-5.3,2.9-7.3c1-1.9,1.3-3.4-0.6-4.9
		C1008.3,737.4,1009.2,737.2,1009.3,736.6z"/>
	<path class="st162" d="M996.8,737.5c0.3,0,0.7,0,1,0c-1.3,2.8-3.9,4.4-6.2,6.2c-4.9,3.9-9.7,8.1-15.2,11.2
		c4.2-4.8,9.6-8.1,14.4-12.3C992.8,740.9,994.8,739.2,996.8,737.5z"/>
	<path class="st163" d="M1009.3,736.6c-0.2,0.5-0.3,1-0.5,1.5c-3,0.5-5.9-0.9-8.9-0.8C1003,735.9,1006.2,737.3,1009.3,736.6z"/>
	<path class="st164" d="M1048.8,694.6c-0.6-1.5-1.3-2.9-1.9-4.4c-0.4-1-0.8-2-1.4-3.6c2.8,2.5,3.5,5.4,5.2,7.7
		c1.6,5.1,4.1,9.8,5,15.2c0.5,3.1,0.2,6.2,0.6,9.3c-0.9,6.5-3.4,11.8-10.1,14.3c-0.6-0.1-1.2-0.1-1.5-0.8c0.1-0.9,1.1-1.3,1.4-2.4
		c-5.9-1-11.8-1.6-17.6-2.6c-1.2-0.2-2.9,0.2-3.4-1.6c0.1-0.4,0.1-0.7,0.2-1.1c1.4-1.1,3.1-0.7,4.7-0.5c5.2,0.8,10.3,1.5,15.5,2.3
		c5,0.8,6.9-0.5,7.7-5.6c0.4-2.6,1.1-5.1,0.6-7.8c-0.2-2.9-1.2-5.5-2.1-8.2c-0.3-0.9-0.5-1.7-0.8-2.6
		C1050.3,699.7,1048.8,697.3,1048.8,694.6z"/>
	<path class="st165" d="M1014,741.3c-3.4-1-3.6-3.3-2.3-6.1c0.9-1.9,2.1-3.6,3.7-4.9c0.2-0.3,0.5-0.6,0.7-0.8c2,0.4,4.1,0.9,6.1,1.3
		c2.2,1,3.5,2.1,2.5,5c-1,2.8-1.2,5.7-5.2,5.5C1017.7,741.2,1015.8,741.3,1014,741.3z"/>
	<path class="st166" d="M1025.2,725.7c7.9,1.2,15.9,2.4,24.2,3.7c-1.4,1.8-3.1,2.2-4.6,2.9c-3.1,0.6-6.3,0.9-9.5,0.9
		c-4.1,0-8.1-0.1-11.5-3C1022.5,728.1,1023.3,726.7,1025.2,725.7z"/>
	<path class="st167" d="M1047.8,601.8c2.4-0.9,3.2,1.1,4.5,2.3c-4.4,6.7-10.1,12-17.3,16.8c0.9-3.4,1.6-6.1,2.5-9.4
		c-10.3,11.1-22.8,14.8-37.1,13.4c-0.2-5.7,3.6-9.6,6.2-14c1.7,0,3.5-0.1,5.2-0.1c0.6-0.7,0.8-2,2.2-1.4c1.8,0,3.7-0.3,5.3,0.8
		c4.1-1,6.7-4.6,10.7-5.8c1.8-0.6,4.4-2.6,5.3-0.9c1.1,2-2.2,2.6-3.6,3.9c-1.1,0.9-2.5,1.4-3.3,2.2c3-1.3,5.2-4.2,8.8-4.7
		c2.9,0,5.4-1.6,8.1-2.3C1046.4,603,1046.7,600.9,1047.8,601.8z"/>
	<path class="st168" d="M1037.3,604.8c-3.4,2.4-6.9,4.8-11.3,5.6c3.1-2.2,6.3-4.3,9.4-6.5c-0.1-0.3-0.3-0.6-0.4-0.8
		c-3.4,1.6-6.9,3.1-10.2,4.8c-1.8,0.9-3.2,2.4-5,3.2c-1.4,0.6-0.2-0.6-0.4-1c5.5-3.4,10.4-7.8,16.4-10.6c0.4,1.7-1.9,1.3-1.7,2.9
		c3.5-1.5,7.1-2.3,10.6-3.9C1042.2,600.7,1039.7,602.7,1037.3,604.8z"/>
	<path class="st169" d="M1014,609.3c-0.7,0.5-1.5,1-2.2,1.4c1-5.5,6-7.3,10-9.9C1019.2,603.6,1016.6,606.4,1014,609.3z"/>
	<path class="st170" d="M1047.8,601.8c-1-0.5-1,2.8-2.5,0.7c1.4-1.9,2.8-3.8,4.6-6.3C1050.1,598.9,1048.3,600.1,1047.8,601.8z"/>
	<path class="st171" d="M982.6,732.4c-0.8,1.6,0.6,1.1,1.3,1.2c4.4,0.5,8.8,1.2,12.8,3c-6.6-0.4-13-1.5-19.5-2.8
		C979.2,734.1,980.7,732.5,982.6,732.4z"/>
	<path class="st172" d="M1054.5,712.7c1,4.9-0.1,9.5-2.4,13.8c-0.8,1.6-2.3,1.3-3.6,1.1c-7.7-1-15.5-2-23.2-3.1
		c0.8-2.3,1.6-4.6,2.6-7.2c-1.8,0.5-2.8,1.6-3.9,2.4c-1.6,1.2-2,4-4.2,4c-3.8-0.1-7.6-0.8-11.4-1.3c-1.4-0.2-0.9-1.3-0.5-2
		c1.5-3.5,2.4-7.3,4.5-10.6c1.4-0.8,2.7-0.1,3.9,0.3c8.2,3.2,16.7,1.8,25.1,1.3c3.9-0.2,7.8-1.3,11.8-0.8
		C1054.2,711,1054,712.1,1054.5,712.7z"/>
	<path class="st173" d="M1054.5,712.7c-0.6-0.4-0.7-1-0.8-1.6c-3.5-1.7-6.8,0.1-10.2,0.5c-9.6,1-18.8-1.4-28-3.3
		c-0.9-0.2-1.6-0.7-2-1.5c1.3-3.3,2.5-6.7,4.3-9.8c7.7,2.6,15.4,4.7,23.5,2.3c3-0.9,5.9-1.8,7.5-4.8c0.9,2.5,1.8,5,2.8,7.4
		c-3.6,3.6-8.4,3.3-12.9,3.9c-5.1,0.7-10-0.7-14.9-2c9.4,2.7,13.4,2.7,23.1,0.6c1.7-0.4,3.6-1.5,5.4-0.1
		C1053.6,707.1,1054.6,709.8,1054.5,712.7z"/>
	<path class="st174" d="M1013.4,706.8c7.8,2,15.8,3.2,23.8,4.3c3.7,0.5,7.4-0.3,11.1-1c1.8-0.3,4.1-1.6,5.4,1
		c-7.5,0.7-15,1.6-22.6,2.2c-6.5,0.5-12.8-0.8-18.8-3.5C1012.4,708.7,1012.8,707.7,1013.4,706.8z"/>
	<path class="st175" d="M1008.3,714.8c-0.7,2.5-0.1,5.1-3.7,4.5C1005.2,717.6,1006.4,716.5,1008.3,714.8z"/>
	<path class="st176" d="M1052.3,704.5c-5.8,0.8-11.3,2.8-17.3,2.3c-4.1-0.3-8-1.7-12-2.8c9.7,1.7,19.3,1.9,28.6-2
		C1052.4,702.7,1052.4,703.5,1052.3,704.5z"/>
</g>
<path class="st37" d="M1092.1,656.1c-1-0.1-1.8-0.9-2.7-1.6c-1.4-1.3-2.2-2.9-2.7-4.7c-0.5-13.4-0.9-26.7-3.1-39.9
	c1.3-5.5,5.7-5.5,9.8-5c5.4,0.6,6.6-1.8,6.9-6.6"/>
<path class="st177" d="M1021.2,702c-6.5-2.7-12-7.1-16.6-12.5c-4.5-5.4-4.8-13-9.5-18.3c-4.4-3.6-5.7-8.4-5.6-13.9
	c0.1-5.4-0.1-10.9,0-16.3c0.2-3.4-0.7-7.2,2.8-9.7c3.7,1.3,3,4.6,2.9,7.2c-0.2,6.3,0.9,12.2,2.9,16.4c0.1-10.7-0.3-22.8,7.7-32.9
	c10-12.5,29.4-13,40.1-1.3c3.2,3.5,6.9,6.5,11.3,8.1c3.4,1.2,8.5,5.8,8.6-3.2c0-2.5,2.4-2.2,4.2-1.5c4,1.7,7,4.5,8.5,8.7
	c2.4,6.9,3.6,14,3.7,20.8c-0.8,1.4,0.3,1.2,0.3,1c0-3.7,2.4-4.7,5.6-4.5c0.7,1.1,1.4,2.2,2.2,3.3c4,8.3,0.8,14.4-5.7,19.6
	c-3.6,5.3-3.9,12.4-8.9,17c-4.3,4.5-9,8.6-14.7,11.1"/>
<path class="st178" d="M1049.9,581.2c17.3,3.3,28.7,12.9,35.3,28.8c3.6,13.2,4,26.6,2.9,40.2c-3.7,1.5-5.1,4.8-6.7,8.7
	c-4-12.2,1.3-27.7-14.4-34.5c-1.4,3.9,2.1,6.2,2.8,10.2c-10-1.5-19.2-4.5-25-12.4c-6.2-8.5-14.1-9.2-22.7-7.5
	c-9.5,1.9-16.4,7.6-19.3,17.2c-2.5,8.5-2.5,17.3-3.3,26.2c-9.4-7-5.2-17.2-6.5-26.1c-3.4-8.1-1.5-15.3,3.2-22.2
	c2.7-7.3,7.4-13.1,12.9-18.4"/>
<path class="st179" d="M985.3,703.8c2.6-6.1,6.6-11,12.6-14.1c2.6-1.3,5.2-2.5,8-0.7c6.3,4.9,12,10.7,19.9,13"/>
<path class="st179" d="M1060.4,699.5c5.3-2.7,9.6-6.7,14.1-10.4c10.6-0.9,14.9,6.7,19.3,14.2"/>
<path class="st180" d="M1012,662.4c0.2-3.2,1.6-5.7,5-5.8c3.7-0.2,5.8,2.1,5.8,5.7c0,3.3-2,5.4-5.3,5.4
	C1014.1,667.8,1012.4,665.6,1012,662.4z"/>
<path class="st181" d="M1064.4,667.8c-3.3-0.3-5.4-2.1-5.4-5.4c0-3.6,2-6,5.7-5.8c3.4,0.2,5,2.5,5,5.7
	C1069.7,665.7,1067.7,667.5,1064.4,667.8z"/>
<path class="st182" d="M1073.1,651.6c-5.9-2.8-11.6-4-18.6,1.3C1060.5,645.2,1066.2,645.1,1073.1,651.6z"/>
<path class="st183" d="M1008.6,651.9c6.8-6.7,11.8-6.7,17.1-0.6C1019.9,647.8,1014.3,648.3,1008.6,651.9z"/>
<ellipse class="st184" cx="1042.4" cy="689.7" rx="12.4" ry="4.4"/>
</svg>
